<svg class="img-fluid" id="outputsvg" xmlns="http://www.w3.org/2000/svg" style="transform: none; transform-origin: 50% 50%; cursor: move;" width="2432" height="2132" viewBox="0 0 24320 21320"><g id="l2dLR4jtOYv8BnOQcRVSIQC" fill="rgb(23,3,169)" style="transform: none;"><g><path id="pwb8n7DUj" d="M11450 19926 c10 -11 45 -17 115 -22 75 -5 105 -11 120 -24 11 -10 38 -23 60 -30 57 -17 330 -26 358 -12 12 6 38 13 57 15 27 2 36 8 38 24 3 19 -3 22 -40 27 -111 14 -302 26 -503 31 -197 6 -218 5 -205 -9z"></path><path id="p6chyC1PW" d="M10210 19903 c-41 -8 -122 -18 -180 -23 -58 -4 -134 -15 -170 -23 -178 -41 -188 -46 -152 -66 15 -9 15 -10 -5 -11 -12 0 -30 -3 -40 -7 -10 -3 -15 -3 -11 2 4 4 -22 18 -59 30 -50 17 -74 20 -97 14 -17 -5 -50 -9 -74 -9 -23 0 -59 -7 -79 -15 -19 -8 -82 -22 -138 -30 -57 -9 -127 -23 -155 -31 -49 -14 -51 -17 -37 -32 15 -14 25 -15 91 -3 41 6 96 9 122 6 29 -4 86 0 139 9 69 11 167 15 425 14 307 -1 342 1 421 20 47 11 110 30 140 41 30 12 95 28 144 36 108 19 234 52 252 67 7 6 10 14 7 19 -9 15 -459 8 -544 -8z"></path><path id="pxENVu1TI" d="M11015 19862 c-55 -2 -95 -8 -105 -16 -8 -7 -60 -23 -115 -35 -146 -31 -317 -70 -338 -77 -18 -6 -17 -7 4 -30 18 -19 32 -24 75 -24 80 0 251 -19 333 -36 112 -25 202 -16 343 35 64 23 150 48 190 57 172 36 218 47 218 54 0 16 -39 40 -65 40 -16 0 -36 6 -44 14 -17 14 -311 25 -496 18z"></path><path id="p19vpvTTez" d="M12266 19813 c-3 -4 -6 -17 -6 -30 0 -16 6 -23 19 -23 11 0 22 -4 25 -9 3 -5 27 -12 53 -15 27 -4 116 -21 198 -38 150 -30 150 -31 378 -24 125 4 236 10 245 14 11 4 -7 10 -48 18 -156 27 -237 47 -261 64 -14 10 -50 23 -80 28 -60 12 -513 25 -523 15z"></path><path id="p6MArrsbx" d="M11715 19695 c-286 -91 -335 -111 -335 -135 0 -21 65 -49 129 -55 36 -4 80 -11 96 -17 17 -5 57 -14 90 -18 61 -9 185 -38 284 -67 44 -13 63 -14 104 -4 62 14 248 97 263 117 6 8 38 19 70 25 33 7 66 19 74 29 8 9 23 20 33 23 9 4 17 11 17 16 0 12 -3 13 -190 51 -85 18 -160 37 -167 42 -17 14 -112 28 -228 33 -97 5 -104 4 -240 -40z"></path><path id="pIaOKmPfj" d="M9149 19626 c-32 -6 -77 -25 -100 -41 -50 -34 -84 -50 -218 -105 -53 -21 -130 -55 -171 -75 -41 -21 -98 -46 -127 -57 -51 -19 -90 -55 -75 -69 4 -4 142 -9 307 -11 l300 -3 191 97 c105 53 215 106 245 118 30 12 61 28 69 35 8 7 33 18 55 25 44 13 116 58 122 76 2 7 -6 14 -19 17 -48 11 -523 6 -579 -7z"></path><path id="ptJoLjWO4" d="M8795 19623 c-16 -2 -79 -13 -139 -24 -60 -10 -126 -19 -146 -19 -22 0 -68 -16 -119 -41 -45 -22 -144 -63 -219 -90 -76 -28 -173 -68 -217 -89 -44 -21 -115 -50 -157 -65 -43 -15 -78 -31 -78 -36 0 -4 10 -14 22 -20 24 -13 158 -5 168 11 3 5 55 12 115 16 82 5 123 13 163 31 29 12 57 23 62 23 8 0 120 51 275 126 39 18 113 49 166 68 53 19 112 44 130 55 19 12 51 26 72 32 20 5 37 14 37 19 0 10 -75 11 -135 3z"></path><path id="p2Ldi8ZXE" d="M10010 19569 c-19 -6 -46 -21 -61 -35 -14 -13 -31 -24 -38 -24 -24 0 -482 -232 -488 -247 -11 -29 22 -40 152 -51 131 -12 175 -21 230 -51 24 -13 69 -17 217 -19 l187 -4 124 85 c113 78 191 124 339 199 78 40 84 49 50 80 -24 22 -42 26 -150 36 -68 7 -133 17 -144 23 -28 15 -373 22 -418 8z"></path><path id="pmbOiAQSH" d="M11045 19403 c-17 -4 -181 -94 -249 -136 -11 -7 -56 -39 -101 -72 -44 -33 -97 -71 -117 -85 -43 -29 -54 -56 -29 -70 10 -5 49 -14 87 -21 38 -6 89 -16 114 -21 25 -5 70 -13 100 -17 59 -9 145 -30 250 -61 75 -22 184 -40 252 -40 42 0 52 5 100 48 116 105 299 245 335 256 26 8 46 59 30 75 -6 6 -19 11 -29 11 -9 0 -32 6 -50 14 -18 7 -85 23 -148 35 -143 27 -280 60 -301 71 -20 10 -216 21 -244 13z"></path><path id="p1HKiw34x4" d="M8078 19076 c-51 -18 -212 -120 -273 -171 -27 -24 -86 -69 -131 -101 -217 -158 -271 -202 -278 -229 -4 -15 -5 -29 -3 -31 2 -2 163 -5 358 -7 l354 -2 62 50 c34 28 119 96 190 153 70 57 151 122 180 145 28 23 72 58 98 77 97 72 121 98 107 112 -19 19 -612 23 -664 4z"></path><path id="pGQRVf3A4" d="M7605 19069 c-33 -5 -124 -18 -202 -29 -78 -11 -161 -28 -185 -39 -23 -10 -83 -48 -133 -85 -77 -57 -314 -219 -517 -353 -61 -41 -89 -80 -66 -94 18 -12 24 -11 88 6 30 8 108 18 173 22 64 3 117 10 117 15 0 4 26 8 59 8 85 0 133 21 235 103 50 40 101 79 113 87 41 28 248 180 313 230 36 27 68 50 73 50 16 0 116 73 111 81 -6 11 -98 10 -179 -2z"></path><path id="pPsisgb2H" d="M9104 19029 c-67 -15 -153 -74 -342 -234 -212 -178 -295 -259 -290 -283 5 -25 63 -40 195 -51 129 -11 287 -31 431 -57 121 -22 200 -16 247 18 20 14 100 86 178 160 78 74 170 159 205 189 118 101 131 114 137 140 6 24 2 28 -36 43 -24 10 -97 24 -163 31 -67 8 -182 23 -256 34 -143 22 -238 25 -306 10z"></path><path id="pHJsXsbNx" d="M6890 18936 c-84 -33 -142 -57 -158 -66 -9 -5 -57 -28 -107 -51 -49 -23 -108 -54 -130 -69 -22 -14 -75 -45 -117 -68 -79 -42 -167 -99 -273 -177 -33 -24 -108 -74 -167 -112 -60 -37 -108 -71 -108 -75 0 -5 11 -13 24 -20 21 -9 32 -6 70 16 46 27 155 65 211 73 17 2 47 13 68 24 50 25 226 142 257 171 69 64 255 188 364 243 80 41 158 95 164 113 5 16 -53 15 -98 -2z"></path><path id="pRerHoviu" d="M10231 18829 c-68 -36 -203 -158 -399 -359 -100 -102 -120 -134 -108 -165 6 -17 9 -18 86 -34 234 -48 285 -62 311 -87 23 -22 41 -27 150 -39 68 -7 144 -21 168 -30 25 -9 72 -18 105 -21 79 -7 99 6 208 132 47 55 141 161 211 237 121 134 150 178 128 200 -14 14 -379 107 -453 116 -34 4 -65 14 -78 26 -32 29 -104 44 -205 43 -67 0 -99 -5 -124 -19z"></path><path id="p25EQiniB" d="M7085 18282 c-55 -26 -89 -56 -245 -212 -181 -182 -232 -237 -329 -354 -120 -144 -137 -135 313 -147 306 -8 361 -7 385 6 31 16 84 74 217 235 47 58 145 169 217 248 147 159 151 165 142 191 -11 36 -48 40 -357 46 -285 6 -305 5 -343 -13z"></path><path id="pzbcXHVqc" d="M6610 18263 c-207 -14 -211 -15 -199 -29 10 -12 -1 -14 -69 -14 -47 0 -92 -6 -109 -14 -15 -7 -58 -27 -94 -45 -85 -41 -167 -110 -364 -306 -173 -173 -305 -323 -305 -348 0 -20 25 -25 70 -15 19 4 60 8 91 8 31 0 100 7 155 15 54 8 131 15 169 15 91 0 148 32 235 131 116 131 220 241 387 406 106 105 163 169 163 182 0 22 -6 23 -130 14z"></path><path id="pT2JZjngx" d="M8043 18114 c-59 -60 -171 -188 -248 -284 -76 -96 -156 -192 -177 -213 -22 -22 -38 -47 -38 -61 0 -45 28 -56 196 -76 88 -11 191 -25 229 -31 39 -5 106 -14 150 -19 44 -5 119 -17 167 -26 83 -16 90 -16 135 1 59 23 83 49 243 260 70 94 159 205 197 247 92 102 126 152 119 175 -4 10 -24 31 -46 46 -35 25 -53 29 -152 37 -62 6 -135 17 -161 25 -33 10 -121 17 -277 21 l-228 7 -109 -109z"></path><path id="p4ZMeHaiW" d="M5725 18099 c-299 -97 -306 -102 -739 -536 -287 -288 -279 -280 -270 -294 10 -17 82 -4 107 19 25 22 91 49 197 82 185 56 128 10 531 431 108 112 219 222 246 244 27 22 57 50 67 62 17 23 17 23 -16 22 -18 -1 -73 -14 -123 -30z"></path><path id="p17UNlkc71" d="M9392 17990 c-23 -17 -42 -34 -42 -38 0 -4 -30 -46 -67 -94 -38 -47 -111 -145 -163 -218 -52 -72 -119 -162 -147 -200 -29 -38 -53 -77 -53 -88 0 -27 40 -61 80 -68 19 -3 44 -10 55 -15 24 -10 203 -48 301 -63 40 -6 80 -18 90 -27 11 -9 35 -20 54 -24 19 -4 90 -20 157 -36 136 -32 210 -36 252 -14 16 8 44 38 63 67 19 29 70 107 113 173 43 66 88 131 100 145 24 26 153 217 174 257 6 12 11 26 11 32 0 16 -63 71 -82 71 -9 0 -19 4 -22 8 -3 4 -28 14 -56 22 -28 8 -53 18 -56 22 -3 4 -17 8 -32 8 -15 0 -53 9 -85 20 -31 11 -76 20 -99 20 -24 0 -61 7 -83 14 -62 22 -280 56 -355 56 -59 0 -72 -4 -108 -30z"></path><path id="p1BK0YctXi" d="M5178 17872 c-1 -4 -28 -25 -58 -47 -101 -72 -332 -281 -620 -560 -69 -67 -146 -141 -173 -165 -37 -34 -45 -46 -36 -56 6 -8 18 -14 25 -14 21 0 183 127 248 194 171 179 481 488 539 539 63 55 110 117 88 117 -5 0 -11 -3 -13 -8z"></path><path id="p1AFeWJGJU" d="M6351 17250 c-111 -4 -156 -9 -159 -17 -2 -7 -8 -13 -14 -13 -37 0 -86 -42 -151 -128 -40 -51 -79 -104 -87 -117 -40 -61 -130 -205 -175 -280 -27 -46 -67 -109 -88 -141 -21 -31 -51 -81 -65 -111 l-26 -53 21 -21 c19 -19 39 -22 224 -33 112 -6 209 -14 215 -18 7 -4 34 -7 60 -7 27 1 83 -2 125 -6 86 -8 139 0 139 21 0 8 4 14 9 14 20 0 82 78 127 160 40 72 122 201 179 283 28 40 175 280 175 286 0 3 9 17 20 31 29 37 26 91 -7 122 -28 26 -30 27 -198 30 -93 2 -239 1 -324 -2z"></path><path id="p2wPH1Jdr" d="M5645 17209 c-112 -5 -192 -14 -374 -41 -61 -9 -82 -18 -131 -54 -33 -24 -64 -53 -71 -66 -7 -13 -15 -25 -19 -28 -4 -3 -38 -52 -75 -110 -64 -99 -190 -292 -276 -424 -22 -32 -39 -62 -39 -66 0 -5 -12 -23 -26 -40 -17 -19 -28 -47 -32 -75 l-5 -45 69 0 c38 1 89 6 114 12 25 6 101 14 170 18 230 14 233 15 293 79 56 61 164 218 218 316 47 86 192 304 228 344 60 67 109 173 84 183 -5 2 -62 0 -128 -3z"></path><path id="pCK8RXd1m" d="M7356 17170 c-60 -16 -100 -45 -139 -103 -52 -79 -157 -247 -157 -251 0 -3 -28 -47 -63 -98 -34 -51 -95 -153 -136 -226 -67 -120 -73 -136 -64 -165 8 -31 11 -32 78 -39 107 -11 198 -30 217 -46 12 -10 50 -17 120 -20 57 -2 108 -8 113 -13 18 -13 306 -51 342 -44 55 10 110 68 163 176 27 53 69 125 93 160 24 35 66 102 92 149 60 107 164 280 182 301 7 8 13 34 13 58 0 48 -12 56 -115 72 -33 6 -68 14 -77 20 -10 5 -38 9 -62 9 -61 0 -199 20 -210 31 -6 5 -28 9 -51 9 -23 0 -45 4 -51 10 -14 14 -241 21 -288 10z"></path><path id="poB8lYFUN" d="M4770 17061 c-91 -26 -262 -89 -269 -99 -3 -5 -24 -19 -46 -30 -81 -42 -153 -127 -340 -402 -238 -349 -304 -458 -284 -471 18 -12 27 -10 198 50 79 27 167 55 195 62 65 16 132 82 201 199 70 120 249 393 283 432 46 52 173 250 169 262 -6 17 -36 16 -107 -3z"></path><path id="p1DV7b7DLW" d="M8633 16908 c-43 -33 -77 -85 -216 -333 -38 -66 -72 -127 -77 -135 -5 -8 -43 -73 -86 -145 -61 -102 -78 -139 -78 -170 l-1 -40 65 -23 c36 -13 78 -26 95 -29 16 -3 36 -14 45 -25 9 -11 39 -23 75 -29 33 -6 80 -17 105 -25 25 -8 84 -14 132 -14 92 0 167 -16 234 -49 43 -21 159 -51 199 -51 12 0 44 15 70 33 39 26 57 50 95 122 25 50 80 155 121 235 42 80 95 174 117 210 52 81 122 219 122 240 0 48 -50 78 -177 105 -43 10 -85 23 -93 30 -8 7 -48 15 -87 17 -40 3 -78 10 -85 16 -7 5 -43 12 -80 14 -49 3 -73 9 -90 24 -35 31 -95 44 -235 50 l-128 5 -42 -33z"></path><path id="p1s1VUXWx" d="M4063 16736 c-162 -121 -240 -210 -494 -561 -36 -49 -79 -112 -95 -138 -16 -26 -46 -67 -67 -90 -21 -23 -50 -62 -64 -87 -15 -25 -33 -53 -41 -62 -12 -14 -12 -20 -2 -33 20 -24 49 -18 94 18 23 19 68 52 101 74 94 64 118 93 257 308 174 268 194 297 361 516 117 154 103 170 -50 55z"></path><path id="pZ4DH9wbX" d="M10107 16545 c-30 -23 -62 -62 -88 -108 -23 -39 -72 -124 -109 -187 -70 -118 -233 -436 -245 -478 -18 -60 26 -96 150 -127 39 -9 108 -31 155 -47 105 -37 176 -60 260 -86 36 -12 79 -25 95 -31 126 -44 269 -81 317 -81 69 0 88 19 153 150 26 52 53 102 60 110 11 13 85 162 242 488 62 129 37 150 -287 247 -124 37 -229 71 -235 75 -5 4 -34 15 -62 24 -29 10 -55 22 -58 27 -4 5 -18 9 -33 9 -15 0 -36 6 -47 13 -24 17 -124 37 -180 37 -33 0 -52 -8 -88 -35z"></path><path id="pEWYHExrY" d="M17445 16055 c-5 -2 -22 -6 -37 -9 -34 -8 -87 -52 -99 -83 -4 -12 -11 -125 -15 -250 l-6 -228 50 -48 c46 -45 54 -49 111 -54 34 -3 64 -10 67 -14 3 -5 85 -9 184 -9 l178 0 11 31 c16 45 14 54 -15 88 l-26 31 -182 0 c-128 0 -186 4 -194 12 -8 8 -12 64 -12 184 0 144 3 175 16 188 13 14 47 16 213 16 l198 0 6 36 c3 19 1 52 -6 72 l-12 37 -210 2 c-116 1 -214 0 -220 -2z"></path><path id="pofMfDpw3" d="M18538 16054 c-5 -4 -8 -67 -8 -141 l0 -133 -158 0 c-198 0 -192 -4 -192 134 0 128 -5 136 -79 136 -57 0 -59 -1 -70 -31 -7 -20 -11 -135 -11 -314 0 -329 -4 -315 98 -315 l61 0 3 118 3 117 170 0 170 0 3 -110 c1 -60 6 -113 10 -117 4 -4 32 -10 62 -14 40 -4 60 -1 75 9 19 15 20 27 20 321 0 353 4 337 -92 344 -32 2 -61 0 -65 -4z"></path><path id="pkwGsdVUO" d="M18857 16053 c-4 -3 -7 -150 -7 -325 l0 -319 28 -24 27 -24 257 -1 257 0 7 35 c9 50 -1 77 -39 103 -31 21 -44 22 -193 22 -111 0 -164 4 -172 12 -7 7 -12 28 -12 48 0 20 5 41 12 48 8 8 55 12 144 12 126 0 134 1 148 22 24 34 20 71 -12 101 -27 26 -31 27 -149 27 -84 0 -123 4 -130 13 -19 23 -23 63 -9 83 13 17 32 19 213 24 l198 5 3 52 c6 98 21 93 -292 93 -150 0 -276 -3 -279 -7z"></path><path id="pBp1yOPJn" d="M19578 16035 l-28 -24 1 -268 c0 -159 4 -260 9 -248 6 14 9 4 9 -38 1 -52 3 -58 27 -67 14 -6 51 -10 82 -10 l57 1 105 131 c58 73 127 160 153 195 94 123 118 139 98 67 -17 -60 -27 -379 -12 -388 6 -4 36 -10 67 -13 46 -5 57 -3 69 13 8 11 11 31 8 47 -4 21 -2 26 8 22 12 -4 14 39 12 266 -1 235 -3 273 -17 288 -16 17 -16 19 1 26 16 7 15 9 -7 15 -14 5 -49 8 -78 9 -46 1 -57 -3 -80 -27 -29 -30 -198 -244 -277 -350 -26 -35 -52 -61 -59 -59 -8 3 -11 67 -12 211 -1 114 -5 210 -8 213 -4 4 -28 8 -54 9 -38 3 -52 -2 -74 -21z"></path><path id="p89hEFj0d" d="M20407 16053 c-4 -3 -7 -156 -7 -338 0 -385 -5 -365 96 -365 52 0 61 3 74 24 8 14 51 69 95 122 44 54 108 139 143 188 34 50 72 94 83 98 12 5 18 4 14 -2 -3 -6 -2 -10 3 -10 13 0 22 -38 10 -42 -13 -5 -17 -328 -3 -329 5 -1 15 0 20 1 5 1 7 -2 3 -6 -18 -18 17 -34 73 -34 55 0 59 2 59 23 0 12 1 165 1 340 1 208 -2 322 -9 329 -6 6 -40 9 -82 6 -57 -3 -75 -8 -86 -23 -17 -24 -56 -76 -156 -205 l-73 -95 -51 -3 c-33 -2 -55 2 -62 10 -7 9 -12 70 -13 160 -1 118 -4 148 -16 152 -20 8 -108 7 -116 -1z"></path><path id="p18gB7HOy9" d="M21182 16048 c-24 -24 -13 -91 28 -177 22 -46 49 -96 59 -110 10 -14 44 -93 75 -176 32 -85 67 -160 81 -174 19 -20 36 -25 98 -29 100 -6 122 0 137 40 7 18 26 61 42 96 15 35 28 65 28 68 0 12 79 202 121 292 52 111 58 141 33 166 -17 18 -94 22 -123 7 -9 -6 -26 -35 -36 -65 l-19 -56 -167 0 c-177 0 -180 1 -192 51 -4 14 -16 38 -28 52 -17 23 -28 27 -73 27 -28 0 -57 -5 -64 -12z m458 -270 c0 -7 -15 -50 -32 -95 -31 -78 -35 -83 -64 -83 -42 0 -69 32 -98 118 l-25 72 110 0 c79 0 109 -3 109 -12z"></path><path id="p7Ju5rIhI" d="M22009 16043 c-11 -13 -15 -81 -17 -325 l-3 -309 23 -24 c17 -19 34 -25 66 -25 37 0 44 4 52 26 6 14 10 41 10 60 0 24 4 33 11 28 8 -5 10 0 6 17 -3 13 -9 139 -13 279 -4 140 -11 263 -16 273 -12 23 -100 24 -119 0z"></path><path id="ppgLBf6Ub" d="M5515 15970 c-82 -5 -95 -8 -145 -41 -30 -20 -63 -45 -72 -55 -21 -24 -137 -284 -177 -396 -46 -131 -55 -152 -68 -161 -7 -4 -13 -16 -13 -26 0 -10 -9 -30 -20 -43 -29 -38 -91 -216 -93 -269 -3 -75 5 -79 157 -79 72 0 226 -5 343 -11 325 -17 304 -34 448 345 41 108 99 240 129 294 30 53 76 151 101 216 49 126 52 166 15 186 -10 6 -80 10 -155 10 -87 0 -156 5 -188 14 -65 18 -146 23 -262 16z"></path><path id="p16EPcEjRK" d="M4870 15929 c-30 -4 -120 -14 -200 -22 -202 -21 -295 -46 -333 -91 -18 -20 -197 -381 -197 -395 0 -17 -68 -162 -84 -179 -9 -11 -26 -44 -37 -73 -87 -228 -109 -310 -90 -333 12 -15 25 -14 172 5 42 5 159 18 260 28 l184 19 23 31 c14 17 44 79 68 138 24 59 59 132 78 163 18 30 44 87 56 125 13 39 47 123 77 187 29 65 53 119 53 122 0 15 75 161 95 185 23 27 24 31 11 56 -25 47 -32 49 -136 34z"></path><path id="p90R95N0h" d="M6588 15867 c-62 -29 -96 -80 -189 -287 -18 -41 -43 -88 -55 -105 -26 -35 -49 -87 -139 -320 -36 -93 -70 -180 -75 -193 -6 -13 -10 -38 -10 -57 0 -50 32 -71 127 -79 43 -4 107 -13 143 -21 36 -7 116 -17 179 -21 63 -4 126 -13 140 -20 14 -8 51 -14 81 -15 30 -1 47 -3 38 -6 -10 -2 -18 -10 -18 -17 0 -15 63 -26 146 -26 61 0 84 7 84 25 0 7 12 20 26 30 28 18 70 101 113 229 35 101 75 186 119 254 53 81 182 399 182 448 0 63 -29 84 -142 101 -50 7 -96 17 -102 22 -6 5 -42 11 -81 14 -112 7 -269 28 -281 38 -19 16 -255 21 -286 6z"></path><path id="p17DH1K449" d="M3999 15786 c-3 -3 -74 -27 -159 -55 -85 -27 -170 -57 -187 -66 -47 -24 -108 -100 -149 -185 -20 -41 -47 -95 -60 -120 -125 -229 -294 -641 -294 -717 0 -48 98 -35 247 33 29 13 88 35 131 49 43 14 86 34 95 46 10 11 31 50 48 87 16 37 46 99 65 137 20 39 51 111 69 160 44 120 201 467 233 515 27 41 44 103 29 112 -13 8 -61 11 -68 4z"></path><path id="p1750lqRix" d="M7933 15623 c-47 -44 -96 -140 -183 -358 -71 -177 -88 -213 -122 -264 -30 -45 -63 -125 -100 -244 l-21 -67 21 -23 c11 -12 38 -31 59 -42 21 -10 45 -24 53 -31 8 -6 31 -15 50 -18 19 -4 94 -20 165 -36 72 -16 186 -40 255 -55 69 -14 152 -33 185 -41 33 -9 98 -18 145 -21 l85 -5 32 32 c36 37 92 139 127 232 35 93 166 408 183 443 21 41 26 50 69 125 26 44 39 81 42 115 4 46 2 52 -26 72 -17 13 -53 28 -79 35 -26 7 -55 18 -64 25 -8 7 -32 13 -51 13 -20 0 -49 7 -64 15 -16 8 -50 15 -75 15 -33 0 -51 6 -64 20 -10 11 -30 20 -45 20 -14 0 -31 5 -37 11 -11 11 -133 39 -173 39 -15 0 -31 5 -37 11 -7 7 -66 14 -150 16 l-138 5 -42 -39z"></path><path id="p12LnQelNM" d="M3250 15459 c-36 -27 -102 -80 -147 -117 -90 -73 -70 -42 -234 -377 -22 -44 -55 -123 -75 -175 -20 -52 -42 -110 -49 -129 -6 -18 -16 -36 -21 -40 -5 -3 -17 -26 -26 -51 -9 -25 -32 -83 -52 -128 -53 -126 -70 -182 -58 -194 7 -7 36 12 88 56 44 37 99 78 124 93 100 58 134 108 201 296 22 60 59 150 84 199 25 49 57 120 70 157 14 38 61 146 105 241 77 167 94 221 68 219 -7 0 -42 -22 -78 -50z"></path><path id="p1E0sT9f2g" d="M2699 14848 c-12 -23 -28 -69 -36 -102 -7 -32 -44 -122 -82 -200 -101 -209 -121 -253 -121 -268 0 -8 -6 -22 -14 -33 -12 -19 -41 -83 -87 -197 -15 -39 -16 -48 -5 -48 8 0 21 -3 30 -6 25 -10 85 108 167 326 17 47 40 103 49 125 10 22 28 78 40 125 12 46 28 100 36 119 18 43 56 193 50 199 -3 2 -15 -16 -27 -40z"></path><path id="pI4fJmiE5" d="M4170 14459 c-47 -5 -145 -17 -217 -28 -140 -20 -169 -33 -221 -101 -24 -32 -64 -155 -97 -300 -14 -63 -36 -158 -49 -210 -24 -96 -70 -314 -81 -382 -3 -21 -10 -38 -15 -38 -6 0 -10 -20 -10 -45 0 -39 3 -46 30 -60 25 -13 47 -14 152 -4 68 6 155 17 193 25 39 8 105 14 149 14 75 0 79 1 110 33 35 35 48 76 100 317 55 254 88 387 112 461 13 41 26 84 29 95 11 47 41 124 47 119 11 -11 18 45 8 65 -27 51 -62 56 -240 39z"></path><path id="p52Tk3hof" d="M4778 14464 c-14 -4 -69 -70 -100 -118 -19 -29 -122 -430 -158 -611 -6 -33 -20 -98 -31 -145 -11 -47 -21 -111 -23 -143 -3 -48 -1 -59 15 -67 20 -11 476 -40 630 -40 92 0 96 1 115 28 26 34 47 92 78 212 24 93 52 179 87 270 9 25 31 99 49 165 17 66 44 163 61 215 36 118 38 178 6 208 -23 22 -31 22 -368 27 -189 2 -352 2 -361 -1z"></path><path id="pvHAeVs0Z" d="M10570 14420 c-431 -5 -493 -8 -555 -24 -38 -11 -79 -27 -90 -36 -11 -10 -54 -34 -96 -54 -115 -54 -249 -158 -292 -225 -64 -100 -79 -128 -108 -194 -33 -78 -59 -183 -79 -315 -10 -66 -12 -427 -7 -1662 3 -868 8 -1584 12 -1589 4 -8 151 -11 461 -11 l454 0 0 1473 c0 1414 1 1475 20 1559 31 139 81 200 202 241 62 21 78 22 793 25 767 3 855 0 948 -40 65 -28 121 -95 149 -177 l23 -66 5 -1505 5 -1505 458 -3 457 -2 0 1642 c0 1765 1 1723 -50 1871 -35 102 -98 216 -152 278 -47 55 -177 164 -230 195 -77 44 -164 78 -253 99 l-103 25 -743 2 c-409 2 -962 1 -1229 -2z"></path><path id="ptfdd0QW1" d="M5964 14381 c-12 -5 -30 -20 -40 -34 -19 -23 -121 -321 -164 -476 -11 -41 -25 -78 -31 -82 -6 -3 -12 -25 -13 -47 -1 -22 -8 -47 -15 -56 -7 -8 -10 -20 -6 -26 3 -5 -1 -10 -10 -10 -10 0 -15 -7 -14 -17 2 -10 -9 -54 -23 -98 -14 -44 -28 -100 -31 -124 -5 -41 -3 -47 37 -89 l42 -44 205 -24 c112 -13 276 -35 364 -49 208 -33 237 -33 270 3 14 15 32 52 41 82 8 30 21 73 29 95 7 22 16 57 20 79 3 21 15 47 25 59 11 11 33 65 50 121 17 56 58 186 92 290 74 227 81 281 45 329 -31 41 -75 56 -192 68 -141 14 -179 19 -200 29 -41 18 -447 36 -481 21z"></path><path id="pDDjpmi9z" d="M3415 14289 c-63 -12 -370 -116 -400 -135 -14 -9 -37 -38 -49 -63 -22 -43 -85 -251 -101 -331 -21 -109 -39 -165 -58 -181 -16 -12 -21 -29 -22 -67 -1 -31 3 -48 9 -45 5 4 7 -1 3 -11 -4 -10 -7 -20 -7 -22 0 -2 -6 -4 -14 -4 -7 0 -16 -13 -19 -29 -3 -16 -9 -41 -13 -56 -5 -22 -4 -26 6 -20 10 6 12 4 6 -11 -4 -10 -10 -41 -13 -67 -3 -26 -10 -50 -14 -53 -17 -10 -10 -90 9 -107 23 -21 70 -22 114 -3 80 33 138 55 208 76 127 37 139 45 165 103 13 28 35 111 49 182 45 225 68 328 86 395 10 36 21 84 25 108 4 23 10 42 14 42 18 0 81 206 81 265 0 29 -25 42 -65 34z"></path><path id="pTfIS6HoJ" d="M2681 14001 c-6 -10 -65 -58 -131 -106 -95 -70 -124 -98 -143 -134 -32 -62 -82 -277 -172 -746 -25 -132 -48 -250 -50 -261 -4 -16 1 -23 17 -27 15 -4 35 6 74 41 29 26 89 69 134 96 108 64 121 91 161 319 16 95 41 222 55 282 13 61 27 124 30 140 15 79 58 247 79 310 23 64 23 70 8 87 -21 23 -50 23 -62 -1z"></path><path id="pgzTbZern" d="M2242 13568 c-7 -13 -28 -50 -46 -83 -86 -152 -129 -274 -181 -520 -8 -38 -26 -124 -40 -190 -15 -66 -37 -185 -50 -265 -22 -128 -23 -146 -10 -159 9 -10 18 -12 24 -6 20 21 90 166 104 216 33 116 47 177 56 239 9 63 32 160 129 545 25 99 46 193 46 209 1 36 -17 44 -32 14z"></path><path id="p1HsFr9uSC" d="M4385 12901 c-41 -18 -75 -102 -91 -223 -8 -62 -16 -120 -19 -128 -2 -8 -13 -100 -24 -205 -57 -528 -58 -549 -16 -565 12 -5 146 -13 296 -20 151 -6 297 -13 326 -16 l52 -6 25 50 c18 36 28 78 36 158 6 60 16 126 21 146 5 20 14 67 19 105 11 82 47 240 60 268 27 56 57 336 41 377 -21 56 -44 60 -390 64 -175 3 -325 0 -336 -5z"></path><path id="pQ9mpQwzS" d="M3745 12864 c-88 -7 -187 -18 -220 -23 -33 -6 -64 -11 -68 -11 -4 0 -22 -15 -39 -32 -52 -56 -68 -108 -79 -257 -5 -75 -14 -170 -19 -211 -14 -103 -30 -373 -30 -497 l0 -102 34 -26 34 -26 152 11 c84 7 164 16 177 21 13 5 47 9 74 9 130 0 157 43 170 274 5 88 14 193 19 231 6 39 17 134 25 212 8 78 19 163 25 188 18 82 24 223 10 240 -15 18 -42 18 -265 -1z"></path><path id="pzrj2QqFG" d="M5512 12818 c-27 -33 -69 -178 -86 -300 -4 -27 -11 -48 -16 -48 -4 0 -14 -24 -21 -52 -6 -29 -16 -60 -20 -68 -13 -26 -78 -464 -79 -531 0 -37 5 -50 28 -71 47 -44 75 -56 146 -63 38 -4 77 -11 85 -15 22 -12 179 -40 222 -40 19 0 84 -9 144 -20 60 -11 131 -20 157 -20 42 0 53 4 78 31 30 33 54 107 65 199 4 30 15 93 25 140 9 47 28 140 41 207 12 67 26 120 31 117 4 -3 8 0 8 6 0 6 5 8 10 5 6 -3 10 0 11 7 0 7 1 31 2 53 1 22 4 42 7 45 12 12 32 111 37 187 6 80 5 82 -24 111 -30 31 -86 52 -136 52 -16 0 -36 4 -46 9 -10 6 -78 17 -152 26 -74 9 -163 20 -199 25 -36 5 -119 12 -185 15 -99 6 -123 5 -133 -7z"></path><path id="pnyKn0XqT" d="M3010 12721 c-25 -10 -76 -29 -115 -41 -38 -12 -105 -36 -148 -52 -114 -43 -117 -54 -141 -398 -23 -319 -31 -697 -16 -715 16 -20 81 -19 128 1 59 25 174 61 212 67 95 14 115 42 126 178 4 46 11 86 15 89 13 9 31 141 28 210 -2 36 -1 70 3 75 3 6 7 48 9 95 1 47 7 96 12 110 4 14 11 63 13 110 2 47 7 119 10 160 6 95 -6 124 -56 127 -19 2 -55 -6 -80 -16z"></path><path id="pnTERq94F" d="M6847 12592 c-15 -9 -36 -35 -47 -57 -17 -37 -26 -70 -76 -279 -13 -57 -24 -80 -36 -84 -10 -2 -16 -8 -13 -12 3 -4 -2 -27 -10 -51 -14 -39 -42 -173 -50 -239 -1 -14 -10 -53 -19 -87 -9 -34 -19 -102 -23 -152 -6 -86 -5 -91 14 -91 11 0 30 -12 44 -26 35 -38 47 -42 154 -58 68 -10 104 -21 119 -34 14 -13 52 -25 111 -35 50 -9 154 -31 230 -50 206 -51 211 -51 249 -28 43 27 67 83 90 213 6 34 34 110 55 148 5 9 12 31 16 50 8 38 93 347 131 476 28 97 30 124 7 171 -30 63 -70 81 -293 129 -106 22 -260 54 -335 69 -38 8 -103 21 -144 30 -94 19 -139 19 -174 -3z"></path><path id="p18RWHLq8Z" d="M2335 12409 c-141 -108 -186 -150 -192 -180 -3 -16 -9 -29 -13 -29 -13 0 -30 -112 -30 -201 0 -100 -18 -241 -32 -250 -8 -5 -13 -308 -9 -511 l1 -58 49 0 c34 0 55 6 67 18 9 9 60 46 113 82 132 90 130 83 131 440 0 174 4 270 10 260 8 -13 10 -13 14 0 8 20 23 427 18 463 -7 43 -39 34 -127 -34z"></path><path id="pdCVJ3oCe" d="M1964 12058 c-20 -25 -85 -161 -110 -227 -14 -36 -27 -91 -31 -123 -3 -32 -10 -58 -16 -58 -5 0 -8 -20 -5 -49 3 -32 1 -49 -5 -48 -19 4 -25 -73 -25 -320 0 -133 -3 -256 -7 -272 -8 -37 5 -64 16 -35 12 30 11 -32 -2 -100 -6 -32 -9 -59 -7 -61 2 -1 16 -5 31 -9 26 -6 29 -3 53 51 14 32 42 85 62 118 l37 60 7 380 c7 343 18 557 34 640 7 37 -16 75 -32 53z"></path><path id="p7xRYXhU8" d="M4251 11291 c-24 -4 -49 -15 -56 -24 -28 -38 -40 -237 -40 -642 l0 -400 24 -40 c14 -22 26 -42 28 -44 1 -2 140 -6 308 -9 l305 -4 17 38 c13 31 18 90 24 279 4 132 14 305 21 385 18 201 17 377 -2 415 -15 29 -18 30 -105 36 -166 12 -480 18 -524 10z"></path><path id="pq94i7jbs" d="M3660 11269 c-130 -10 -306 -36 -332 -50 -9 -5 -22 -26 -28 -47 -12 -46 -12 -561 1 -722 22 -280 25 -300 49 -326 l23 -24 229 0 c138 0 237 4 249 10 27 15 49 62 50 112 0 24 -3 264 -8 535 -6 351 -11 495 -20 504 -16 16 -80 19 -213 8z"></path><path id="pO4K69FJX" d="M5289 11240 c-68 -16 -86 -127 -119 -720 -15 -264 -13 -338 9 -387 22 -48 26 -49 266 -78 77 -9 206 -28 286 -41 181 -31 189 -29 218 57 11 35 21 88 21 118 0 63 27 261 36 270 3 3 4 -11 1 -31 -3 -21 -1 -38 3 -38 5 0 6 -8 3 -19 -5 -19 13 -38 24 -27 11 11 35 337 40 536 4 191 4 196 -19 229 -32 46 -84 62 -251 76 -29 3 -99 11 -157 20 -181 25 -337 40 -361 35z"></path><path id="p75564Ofo" d="M2905 11121 c-27 -9 -93 -32 -145 -51 -125 -43 -149 -56 -160 -86 -22 -58 -2 -387 55 -873 17 -146 27 -179 65 -198 29 -15 86 -17 94 -4 3 5 52 23 108 41 57 17 117 36 134 41 17 5 43 23 59 39 23 24 28 38 28 82 0 29 -7 69 -15 88 -17 41 -34 175 -21 167 4 -3 2 86 -5 196 -10 162 -16 213 -33 256 -19 47 -21 65 -15 153 6 91 4 103 -15 134 -24 40 -55 44 -134 15z"></path><path id="pmvZwNKJP" d="M6499 11005 c-46 -25 -55 -59 -101 -372 -18 -127 -25 -154 -40 -159 -18 -5 -25 -57 -19 -141 1 -18 -2 -33 -7 -33 -12 0 -25 -142 -24 -249 1 -77 3 -86 29 -113 37 -39 79 -56 187 -74 49 -9 123 -24 164 -35 41 -10 96 -19 121 -19 27 0 64 -9 86 -20 22 -11 46 -20 54 -20 8 0 22 -6 30 -13 24 -20 116 -40 150 -32 40 8 63 67 90 220 40 239 52 302 78 408 21 87 29 107 44 107 10 0 20 3 22 8 12 18 38 247 33 277 -8 40 -47 90 -85 109 -14 8 -60 21 -101 31 -41 9 -115 26 -165 37 -49 11 -135 30 -190 43 -55 13 -121 26 -147 30 -26 3 -50 10 -53 16 -9 14 -127 10 -156 -6z"></path><path id="pyeo6rjUE" d="M2240 10811 c-156 -131 -145 -111 -142 -259 3 -85 8 -132 16 -142 8 -9 16 -56 19 -115 3 -55 13 -129 21 -165 8 -36 20 -110 26 -165 6 -54 17 -124 24 -155 8 -30 17 -82 21 -114 13 -116 32 -130 93 -70 20 20 74 60 119 90 45 30 88 64 94 76 7 13 9 46 6 87 -23 280 -30 339 -44 371 -12 25 -18 83 -23 210 -5 136 -10 182 -24 208 -13 25 -14 32 -3 32 11 0 11 12 2 68 -18 107 -31 132 -68 132 -25 -1 -54 -20 -137 -89z"></path><path id="p12YqxMD2L" d="M1962 10498 c-5 -7 -37 -68 -71 -134 -53 -106 -61 -129 -61 -178 0 -32 5 -66 10 -76 6 -11 15 -79 21 -152 11 -150 49 -426 78 -568 10 -52 22 -116 25 -142 6 -41 11 -48 29 -48 17 0 28 13 46 55 14 30 43 78 65 107 l41 53 -2 94 c-2 79 -5 97 -22 115 -13 14 -21 36 -21 57 0 19 -7 56 -15 83 -19 61 -19 67 0 60 23 -9 19 49 -5 71 -11 10 -20 28 -20 40 0 12 -7 60 -15 106 -8 46 -21 167 -30 268 -8 100 -18 187 -21 192 -7 13 -20 11 -32 -3z"></path><path id="pEH30ZF8V" d="M8680 10352 c0 -63 3 -82 14 -82 31 0 36 117 6 145 -20 18 -20 17 -20 -63z"></path><path id="pxhIDoEJ6" d="M1770 9926 c0 -18 -7 -39 -16 -47 -16 -13 -15 -62 6 -189 5 -30 15 -109 21 -175 6 -65 15 -128 21 -139 6 -11 15 -60 19 -108 5 -49 13 -96 18 -107 6 -10 19 -76 30 -147 27 -169 45 -247 58 -251 19 -7 22 11 24 148 1 113 -3 160 -29 294 -17 88 -38 212 -46 275 -8 63 -25 192 -37 285 -15 122 -26 174 -37 183 -25 19 -32 14 -32 -22z"></path><path id="pNwTp4uBi" d="M4236 9665 c-34 -35 -33 -108 10 -505 44 -403 70 -560 96 -560 5 0 26 -14 47 -30 l37 -30 245 2 244 3 9 49 c7 33 6 78 -2 140 -16 116 -29 310 -41 599 -8 208 -11 232 -33 275 -33 68 -47 71 -345 71 -213 1 -254 -1 -267 -14z"></path><path id="p66YRMXTB" d="M3765 9659 c-49 -5 -108 -13 -130 -18 -22 -5 -72 -13 -111 -17 -40 -3 -78 -10 -85 -15 -23 -14 -24 -135 -1 -204 11 -33 23 -89 27 -125 4 -36 11 -75 16 -87 4 -12 13 -62 20 -110 6 -48 16 -99 21 -113 5 -14 16 -63 23 -110 23 -144 54 -273 78 -320 l22 -45 105 1 c64 1 127 8 159 18 30 9 78 16 106 16 79 0 90 13 90 107 0 146 -20 283 -40 283 -12 0 -24 34 -30 85 -2 11 -8 47 -14 80 -15 84 -40 282 -50 396 -13 137 -41 192 -98 188 -10 -1 -58 -5 -108 -10z"></path><path id="pOGG9S2Wc" d="M5193 9622 c-54 -34 -57 -211 -14 -862 11 -157 30 -233 65 -254 12 -8 66 -16 125 -19 56 -4 109 -11 115 -16 7 -6 41 -15 77 -20 35 -5 106 -17 158 -26 69 -12 101 -14 117 -6 49 22 51 38 58 481 3 228 6 423 6 433 0 10 5 15 10 12 6 -4 10 13 10 45 0 36 -7 61 -24 88 -46 72 -67 81 -246 102 -52 6 -120 15 -150 20 -48 8 -258 30 -285 30 -5 0 -15 -4 -22 -8z"></path><path id="pe3EiBhBO" d="M3085 9540 c-16 -4 -59 -21 -95 -39 -36 -18 -92 -41 -125 -52 -33 -11 -66 -28 -73 -37 -14 -18 -8 -87 10 -109 6 -7 16 -41 23 -75 7 -35 18 -83 24 -108 27 -104 114 -450 127 -505 29 -126 63 -229 81 -246 31 -31 87 -26 223 21 69 23 129 46 134 51 5 4 8 44 8 88 -2 61 -7 89 -23 118 -33 58 -73 235 -160 708 -12 66 -30 137 -41 158 -16 32 -23 37 -51 36 -17 -1 -45 -4 -62 -9z"></path><path id="pCjN4cSnm" d="M6294 9418 c-29 -14 -52 -69 -64 -153 -11 -85 -35 -586 -35 -744 l0 -113 40 -34 c21 -19 51 -37 65 -40 14 -3 34 -9 45 -14 11 -5 45 -11 75 -15 30 -3 80 -15 112 -26 32 -10 70 -19 85 -19 15 0 48 -7 73 -16 25 -9 87 -21 139 -26 l94 -11 24 27 c15 17 23 41 24 64 0 31 2 34 10 17 6 -13 7 2 3 48 -6 72 10 164 32 183 9 7 12 41 12 105 0 59 5 114 16 148 19 66 41 248 41 353 0 71 -2 79 -29 107 -21 22 -45 33 -85 41 -31 7 -64 16 -73 21 -25 13 -93 29 -168 40 -36 6 -77 19 -92 29 -20 15 -44 20 -87 20 -33 0 -63 5 -66 10 -8 13 -164 12 -191 -2z"></path><path id="peTPDc2rA" d="M2560 9312 c-68 -45 -181 -135 -194 -154 -18 -25 -21 -104 -7 -152 32 -109 56 -184 65 -201 6 -11 18 -47 27 -80 40 -146 132 -430 172 -535 43 -110 45 -115 72 -113 16 1 41 14 56 29 15 15 59 48 96 74 61 42 68 51 71 84 2 20 -7 71 -19 114 -41 144 -47 167 -74 262 -15 52 -29 109 -32 125 -3 17 -14 39 -24 51 -25 27 -81 238 -115 427 -7 40 -38 87 -57 86 -7 0 -23 -8 -37 -17z"></path><path id="pYCXiKk1M" d="M7469 9121 c-40 -31 -43 -42 -94 -356 -23 -136 -25 -145 -40 -145 -15 0 -15 1 -50 -196 -14 -78 -25 -177 -25 -220 0 -78 0 -79 35 -107 39 -31 64 -42 155 -68 183 -51 215 -61 224 -67 6 -4 29 -12 51 -19 22 -6 65 -21 95 -32 37 -14 80 -20 131 -21 l77 0 17 37 c16 34 38 118 110 428 14 61 33 139 42 175 8 36 21 94 29 129 7 35 19 70 25 77 19 23 15 135 -5 166 -22 34 -17 32 -336 125 -47 14 -89 28 -95 33 -5 4 -29 11 -53 15 -23 4 -57 19 -73 33 -27 22 -43 26 -113 30 -71 4 -84 1 -107 -17z"></path><path id="p1BFv1uS4o" d="M2217 8984 c-15 -8 -27 -23 -27 -34 0 -25 -49 -128 -72 -152 -25 -25 -24 -90 2 -113 11 -10 20 -28 20 -40 0 -48 103 -400 174 -598 83 -229 107 -281 131 -291 28 -10 55 -7 55 7 0 8 18 49 41 91 23 44 41 92 41 110 0 39 -86 315 -112 359 -42 71 -122 338 -194 638 -8 34 -25 40 -59 23z"></path><path id="pycTwBioi" d="M2033 8417 c9 -170 29 -260 82 -382 17 -39 54 -150 65 -195 5 -19 22 -71 38 -115 17 -44 48 -129 71 -190 22 -60 43 -122 47 -137 5 -25 10 -28 43 -28 l37 0 1 102 c1 81 -3 110 -17 138 -35 68 -234 630 -285 805 -29 100 -32 105 -61 105 l-27 0 6 -103z"></path><path id="p12sPc8nrl" d="M4483 8093 c-21 -15 -24 -59 -8 -133 9 -41 20 -100 26 -130 25 -138 118 -531 153 -652 20 -67 52 -118 85 -135 14 -6 28 -18 32 -26 6 -11 48 -14 202 -16 l194 -2 7 23 c3 13 6 37 6 55 0 27 -57 349 -89 508 -25 117 -54 266 -68 340 -30 164 -32 165 -310 171 -120 3 -223 2 -230 -3z"></path><path id="ptUAXjVUC" d="M3970 8080 c-25 -5 -71 -11 -103 -15 -76 -9 -91 -24 -84 -89 6 -55 10 -69 86 -306 110 -345 146 -442 191 -510 5 -8 19 -37 32 -65 44 -101 49 -105 139 -105 44 0 123 5 176 12 125 15 125 16 83 171 -17 64 -49 167 -70 228 -44 123 -44 123 -31 115 22 -14 -14 93 -45 134 -18 23 -40 94 -74 241 -22 92 -39 144 -56 167 -25 32 -25 32 -112 31 -48 -1 -107 -5 -132 -9z"></path><path id="pWXfrNJDH" d="M5277 8048 c-27 -20 -31 -106 -12 -238 9 -63 23 -169 30 -235 21 -171 45 -317 54 -330 5 -5 11 -23 15 -38 4 -15 10 -25 15 -23 5 3 11 -26 13 -64 3 -62 7 -74 33 -100 27 -26 39 -30 130 -39 55 -6 167 -17 249 -26 91 -9 154 -11 159 -6 12 12 4 122 -17 226 -8 44 -16 123 -16 175 0 52 -5 137 -10 189 -6 51 -14 157 -19 236 -10 153 -24 201 -64 209 -102 21 -131 26 -194 36 -39 5 -91 10 -115 10 -24 0 -48 4 -53 9 -6 5 -48 12 -95 15 -64 5 -90 4 -103 -6z"></path><path id="p15oM64l5M" d="M3487 7979 c-21 -5 -50 -15 -65 -23 -15 -7 -43 -16 -63 -20 -20 -3 -46 -15 -59 -26 -12 -10 -26 -20 -32 -22 -23 -8 -7 -92 46 -241 31 -86 78 -202 105 -259 27 -57 70 -152 96 -213 72 -169 143 -302 171 -320 30 -19 74 -13 153 21 29 13 64 24 77 24 29 0 54 25 54 54 0 12 -23 81 -51 152 -28 71 -55 140 -59 154 -5 14 -20 57 -35 95 -14 39 -32 89 -39 112 -8 23 -28 65 -45 93 -17 28 -31 56 -31 63 0 7 -4 17 -8 23 -5 5 -19 45 -32 89 -45 154 -70 228 -81 242 -13 15 -45 15 -102 2z"></path><path id="pYjqdoTD9" d="M6199 7868 c-19 -31 -20 -44 -16 -243 6 -246 25 -613 35 -669 6 -33 17 -47 67 -86 49 -37 73 -48 130 -59 39 -8 113 -25 165 -38 52 -13 127 -27 165 -30 60 -5 73 -3 85 12 12 14 16 73 22 289 4 156 14 312 23 367 18 117 20 284 2 318 -6 14 -25 29 -42 34 -16 5 -44 23 -61 39 -23 22 -46 31 -95 39 -66 10 -174 32 -244 49 -22 5 -79 10 -128 10 l-87 0 -21 -32z"></path><path id="pikAwqHkV" d="M3002 7771 c-77 -50 -142 -115 -142 -141 0 -54 104 -281 337 -735 l118 -230 48 -3 c44 -3 52 1 117 50 38 29 69 61 70 70 0 29 -69 190 -110 255 -41 66 -111 219 -204 448 -32 77 -64 155 -72 173 -8 18 -14 38 -14 45 0 22 -59 107 -73 107 -8 0 -41 -18 -75 -39z"></path><path id="p1BjqvmuIf" d="M7225 7640 c-12 -4 -26 -15 -34 -23 -19 -24 -80 -633 -84 -845 -2 -121 -3 -120 108 -153 38 -12 79 -25 90 -30 11 -4 44 -15 74 -24 30 -8 61 -21 70 -29 21 -19 178 -66 219 -66 47 0 65 38 96 194 14 72 32 165 40 206 31 156 85 446 89 480 6 45 -12 87 -55 127 -33 32 -131 72 -175 73 -12 0 -25 5 -28 10 -3 6 -16 10 -29 10 -13 0 -37 7 -54 16 -17 8 -53 19 -79 24 -26 4 -66 15 -88 24 -43 16 -127 20 -160 6z"></path><path id="pWWwGzJI3" d="M2714 7474 c-97 -152 -95 -185 21 -379 14 -22 59 -107 101 -190 101 -197 146 -275 298 -507 17 -26 37 -48 43 -48 7 0 24 22 37 49 13 28 33 65 44 84 18 27 20 39 12 68 -10 37 -95 206 -135 269 -45 71 -202 383 -266 525 -57 130 -90 185 -111 185 -4 0 -24 -25 -44 -56z"></path><path id="pJhPU9wP2" d="M8232 7304 c-20 -9 -47 -72 -70 -164 -68 -280 -103 -427 -122 -515 -12 -55 -27 -114 -34 -130 -27 -61 -29 -95 -9 -117 22 -25 125 -78 151 -78 10 0 37 -9 60 -20 22 -11 46 -20 52 -20 14 0 91 -38 110 -55 31 -27 148 -66 187 -63 34 3 41 8 65 53 15 28 39 85 53 129 14 43 61 178 104 300 43 121 84 239 91 261 7 22 16 42 21 45 9 6 13 40 11 87 -2 42 -32 68 -104 94 -31 12 -75 36 -96 55 -21 18 -52 36 -68 39 -66 13 -183 49 -239 73 -58 25 -137 37 -163 26z"></path><path id="psLYEIudZ" d="M2606 7142 c-11 -19 -17 -172 -8 -223 11 -57 87 -225 119 -263 20 -23 20 -23 85 -146 25 -47 55 -101 66 -120 12 -19 36 -61 54 -93 18 -33 40 -71 49 -87 8 -15 23 -35 32 -45 9 -9 17 -21 17 -25 0 -5 23 -33 50 -62 28 -29 50 -56 50 -60 0 -4 4 -8 9 -8 12 0 20 187 9 226 -5 18 -24 52 -43 74 -19 23 -35 46 -35 50 0 5 -17 35 -39 67 -21 32 -74 123 -118 203 -102 185 -121 219 -144 251 -10 15 -46 81 -79 148 -33 66 -62 121 -64 121 -3 0 -7 -3 -10 -8z"></path><path id="pzGCWieBG" d="M9232 6880 c-21 -13 -42 -41 -62 -82 -29 -62 -176 -437 -200 -510 -6 -21 -15 -38 -20 -38 -11 0 -50 -67 -50 -85 0 -8 -9 -29 -20 -47 -11 -18 -20 -44 -20 -57 0 -27 45 -81 68 -81 7 0 32 -11 55 -24 23 -13 53 -27 67 -31 14 -4 36 -18 50 -30 33 -30 286 -145 320 -145 15 0 35 10 47 23 57 64 203 319 329 578 24 48 47 90 53 94 6 3 11 15 11 26 0 10 9 24 20 31 15 10 20 24 20 55 0 58 -20 71 -280 189 -118 53 -224 105 -235 114 -52 43 -104 50 -153 20z"></path><path id="p19DUlVRAk" d="M2630 6673 c0 -35 44 -172 80 -253 47 -105 47 -105 135 -240 34 -52 68 -106 75 -120 7 -14 51 -86 98 -160 47 -74 92 -146 100 -160 9 -14 17 -31 18 -38 4 -26 55 -82 75 -82 22 0 21 12 -14 120 -26 84 -53 133 -116 217 -68 88 -140 203 -206 322 -59 109 -119 207 -145 236 -10 11 -35 52 -55 90 -42 78 -45 83 -45 68z"></path><path id="p6ECQO9Ke" d="M12605 6553 c-37 -39 -45 -54 -45 -85 0 -21 4 -38 8 -38 12 0 72 67 110 123 l33 47 -30 0 c-23 0 -41 -11 -76 -47z"></path><path id="p1HGioR02i" d="M4880 6575 c-10 -12 -10 -25 -1 -62 23 -93 103 -285 179 -430 26 -49 32 -64 62 -145 62 -164 122 -286 159 -322 l36 -35 148 -7 147 -7 0 26 c0 15 -27 109 -59 209 -33 101 -83 261 -111 357 -29 95 -63 195 -76 221 -13 26 -24 53 -24 59 0 20 -41 95 -68 124 l-26 27 -177 0 c-145 0 -179 -3 -189 -15z"></path><path id="pRT87P2tf" d="M4465 6570 c-44 -4 -88 -10 -97 -14 -28 -13 -33 -61 -9 -95 12 -16 21 -33 21 -37 0 -4 6 -15 14 -23 8 -9 30 -56 50 -104 49 -118 210 -427 261 -502 23 -33 59 -92 79 -131 21 -40 48 -82 61 -94 24 -23 26 -23 132 -11 163 19 156 16 150 56 -6 35 -60 159 -82 185 -40 49 -144 282 -266 595 -23 61 -56 127 -73 147 -30 37 -32 38 -96 36 -36 0 -101 -4 -145 -8z"></path><path id="pHNy8Zk5q" d="M5525 6520 c-7 -21 7 -110 29 -180 8 -25 24 -83 36 -130 19 -73 33 -122 57 -200 3 -8 6 -28 8 -45 4 -44 23 -85 39 -85 15 0 23 -20 52 -135 9 -38 28 -94 41 -122 21 -45 30 -54 61 -62 68 -17 322 -53 337 -47 17 6 19 45 5 96 -22 83 -82 431 -116 675 -18 126 -33 164 -88 215 -25 23 -37 25 -169 32 -254 12 -285 11 -292 -12z"></path><path id="psGHhwbg3" d="M4011 6460 c-115 -39 -117 -42 -90 -116 20 -55 49 -102 148 -244 21 -30 78 -118 127 -195 48 -77 115 -180 148 -228 34 -49 68 -98 76 -110 39 -58 94 -117 108 -117 10 1 53 13 97 28 98 34 101 44 45 130 -22 35 -54 91 -71 125 -17 34 -41 77 -54 97 -12 19 -40 69 -62 110 -22 41 -59 104 -82 140 -23 36 -71 126 -108 200 -36 74 -79 152 -95 173 -37 46 -68 48 -187 7z"></path><path id="pVBfYx2id" d="M6255 6375 c-8 -60 0 -156 14 -184 5 -9 12 -63 16 -121 3 -58 11 -123 17 -144 11 -44 16 -79 17 -114 1 -13 5 -20 11 -17 6 3 10 1 10 -5 0 -6 6 -17 13 -25 8 -7 19 -64 27 -131 13 -109 16 -121 44 -152 29 -31 39 -34 136 -48 58 -9 127 -22 154 -30 27 -8 66 -14 87 -14 34 0 38 3 44 31 4 17 4 88 1 158 -3 69 -8 225 -11 346 -7 314 -12 351 -44 387 -14 16 -42 33 -61 38 -19 5 -55 14 -80 20 -25 7 -54 15 -65 20 -32 12 -164 33 -247 38 l-76 4 -7 -57z"></path><path id="plCkD7Cu8" d="M3682 6300 c-33 -28 -64 -59 -67 -69 -7 -23 5 -55 41 -106 15 -22 73 -107 129 -190 121 -180 174 -254 282 -394 169 -219 188 -241 207 -241 16 0 53 27 140 101 5 4 -1 20 -13 35 -11 15 -21 32 -21 39 0 6 -10 20 -21 31 -30 27 -270 385 -458 684 -119 188 -123 190 -219 110z"></path><path id="pnzH6c3BA" d="M7095 6214 c-18 -14 -20 -31 -27 -237 -10 -334 -9 -613 2 -641 10 -27 46 -41 136 -52 34 -5 58 -15 79 -34 20 -19 46 -31 78 -35 26 -4 50 -11 53 -16 3 -5 22 -9 42 -9 26 0 41 6 50 20 7 11 19 81 27 156 9 75 17 139 19 143 2 3 9 48 15 100 11 87 29 139 44 125 4 -4 4 22 1 57 -4 44 -1 85 10 131 14 55 15 73 5 107 -7 22 -19 47 -28 55 -24 21 -169 76 -200 76 -16 0 -40 9 -54 20 -14 11 -30 20 -35 20 -5 0 -15 7 -22 15 -17 21 -167 21 -195 -1z"></path><path id="pmrHILQAD" d="M3512 6117 c-18 -22 -72 -128 -72 -143 0 -43 169 -282 394 -557 45 -54 96 -117 114 -140 51 -64 169 -177 185 -177 18 0 67 90 67 122 0 27 -59 117 -128 193 -25 28 -92 113 -149 190 -57 77 -121 162 -144 189 -22 27 -83 113 -136 192 -53 79 -102 144 -109 144 -6 0 -16 -6 -22 -13z"></path><path id="p16gVBogvg" d="M7886 5937 c-25 -25 -41 -85 -82 -312 -14 -77 -29 -156 -34 -175 -5 -20 -14 -71 -20 -115 -6 -44 -18 -106 -26 -137 -18 -70 -7 -99 45 -122 119 -52 313 -120 351 -123 l45 -4 58 143 c90 219 94 231 158 413 32 94 59 184 59 200 0 47 -21 68 -106 104 -44 19 -86 40 -94 46 -8 7 -26 16 -40 20 -14 4 -41 14 -60 22 -19 8 -44 19 -55 24 -113 48 -163 52 -199 16z"></path><path id="pEywzPatd" d="M3382 5728 c4 -124 -5 -109 216 -363 338 -389 466 -525 494 -525 17 0 18 8 14 83 l-4 83 -52 54 c-74 77 -240 267 -346 395 -88 107 -244 321 -244 334 0 9 -55 41 -70 41 -9 0 -11 -28 -8 -102z"></path><path id="pfB1ofkuC" d="M8704 5618 c-26 -29 -54 -75 -54 -86 0 -5 -18 -41 -40 -79 -22 -38 -49 -91 -59 -118 -11 -28 -47 -117 -81 -200 -34 -82 -70 -183 -81 -224 -18 -69 -18 -76 -3 -92 9 -10 40 -25 68 -33 28 -9 96 -38 151 -66 72 -37 116 -53 156 -57 62 -6 63 -6 121 88 15 24 46 73 69 109 23 36 83 139 134 230 50 91 101 181 113 200 14 23 22 51 22 81 l0 46 -72 33 c-40 19 -88 44 -107 57 -18 13 -41 23 -49 23 -9 0 -23 6 -31 14 -9 7 -38 25 -66 38 -129 66 -160 71 -191 36z"></path><path id="pTSGllrwu" d="M3420 5436 c0 -13 8 -34 19 -47 10 -13 22 -35 26 -49 24 -80 106 -199 173 -253 30 -25 28 -37 -8 -37 -16 0 -30 -4 -30 -9 0 -55 152 -251 424 -546 61 -66 146 -163 188 -215 117 -147 289 -320 316 -320 12 0 22 4 22 9 0 10 -86 124 -126 167 -41 44 -105 129 -148 198 -21 32 -102 122 -180 200 -78 77 -173 177 -210 221 -38 44 -103 115 -145 158 -41 42 -71 77 -65 77 6 0 21 -11 34 -25 15 -16 26 -21 30 -14 4 6 25 -12 51 -43 71 -86 358 -368 375 -368 9 0 13 6 10 13 -2 6 -15 44 -27 82 -21 65 -30 78 -134 185 -199 205 -396 423 -456 505 -93 128 -100 135 -120 135 -13 0 -19 -7 -19 -24z"></path><path id="pitdqpwAd" d="M9442 5215 c-26 -29 -94 -127 -137 -196 -5 -9 -31 -47 -57 -85 -185 -269 -221 -328 -231 -380 -8 -41 4 -51 113 -101 47 -22 105 -53 130 -68 86 -56 158 -69 195 -37 25 20 181 192 284 312 83 96 92 108 179 207 54 61 63 76 60 104 -3 29 -11 38 -74 75 -40 23 -118 66 -174 95 -57 28 -117 65 -135 80 -26 23 -42 29 -78 29 -39 0 -49 -5 -75 -35z"></path><path id="pUkWjPI2p" d="M5528 5203 c-32 -8 -27 -34 23 -131 77 -148 312 -538 384 -638 105 -146 98 -141 218 -143 l77 -1 -6 28 c-7 27 -195 401 -240 477 -13 22 -53 110 -89 195 -44 104 -76 164 -96 183 -28 25 -35 27 -122 27 -50 0 -101 2 -112 4 -11 2 -27 2 -37 -1z"></path><path id="p17D1Vmcun" d="M5230 5183 c-92 -9 -122 -15 -127 -29 -6 -17 125 -214 232 -349 39 -49 104 -135 145 -190 40 -55 120 -155 178 -222 l104 -123 72 0 c40 0 75 3 79 6 9 10 -19 71 -58 125 -96 134 -247 358 -287 426 -9 15 -44 72 -77 126 -34 55 -61 103 -61 107 0 5 -23 36 -50 69 -54 65 -51 64 -150 54z"></path><path id="pN8xFqD9f" d="M5951 5166 c-13 -16 -15 -11 56 -165 18 -40 45 -101 59 -134 15 -34 59 -134 99 -223 150 -330 177 -367 281 -384 78 -13 144 -13 144 1 0 5 -33 108 -73 227 -41 119 -86 262 -101 317 -86 314 -96 328 -231 351 -143 25 -219 28 -234 10z"></path><path id="ps61Q2bty" d="M4905 5125 c-16 -8 -41 -16 -55 -19 -41 -9 -57 -23 -42 -38 6 -6 12 -19 12 -28 0 -17 70 -105 205 -255 44 -50 109 -126 145 -169 36 -43 108 -124 161 -180 53 -55 113 -120 134 -144 66 -74 85 -84 144 -71 38 8 51 15 51 28 0 17 -100 147 -255 331 -93 110 -143 176 -253 335 -102 148 -171 225 -198 224 -11 0 -32 -6 -49 -14z"></path><path id="pHFeinbrY" d="M6496 5066 c-4 -15 4 -73 19 -138 75 -327 91 -384 114 -411 9 -10 14 -31 13 -46 -2 -16 5 -38 17 -53 12 -14 21 -32 21 -39 0 -15 18 -73 36 -116 7 -18 27 -39 43 -48 36 -18 158 -45 207 -45 38 0 37 -5 18 100 -2 14 -6 70 -9 124 -3 71 -9 105 -21 124 -11 17 -17 42 -15 66 1 21 -2 42 -9 46 -7 4 -17 66 -25 146 -26 248 -28 251 -255 290 -52 9 -107 18 -121 21 -22 4 -27 0 -33 -21z"></path><path id="pZmRJGeGK" d="M4616 4980 c-20 -22 -36 -46 -36 -54 0 -16 271 -303 388 -411 42 -38 133 -127 202 -196 122 -124 203 -189 234 -189 25 0 64 22 71 39 4 11 -17 38 -72 91 -133 128 -410 427 -552 598 -123 147 -138 162 -167 162 -24 0 -40 -9 -68 -40z"></path><path id="pItjQSpCg" d="M13903 4929 c-27 -17 -33 -28 -33 -54 0 -32 1 -33 23 -22 28 15 107 81 107 90 0 15 -67 5 -97 -14z"></path><path id="pwpN92HWZ" d="M7070 4925 c-15 -18 -10 -165 14 -410 9 -82 20 -196 25 -253 12 -126 23 -147 86 -155 26 -4 67 -16 92 -27 25 -11 63 -20 84 -20 47 0 44 -9 58 200 30 449 34 529 28 544 -4 9 -24 24 -44 32 -21 8 -47 19 -58 24 -11 5 -47 19 -80 31 -33 12 -67 28 -76 35 -22 19 -113 18 -129 -1z"></path><path id="pHjXGTx6C" d="M4497 4830 c-39 -46 -42 -67 -14 -108 31 -46 159 -175 252 -255 39 -33 95 -83 125 -112 86 -81 262 -225 377 -309 64 -46 106 -47 111 -4 4 35 -43 86 -225 246 -74 64 -235 219 -359 345 -124 125 -229 227 -234 227 -4 0 -20 -13 -33 -30z"></path><path id="pLsypmp0W" d="M10180 4815 c-21 -12 -129 -122 -536 -546 l-64 -66 28 -25 c15 -14 45 -35 67 -48 22 -13 78 -49 124 -79 117 -78 122 -81 161 -81 48 0 109 45 540 399 168 137 195 174 153 208 -47 37 -149 105 -263 175 -131 81 -161 91 -210 63z"></path><path id="p1BM97rgxU" d="M7640 4720 c-6 -10 -13 -47 -16 -82 -4 -35 -12 -72 -19 -83 -7 -11 -18 -67 -24 -125 -7 -58 -19 -139 -26 -181 -26 -140 -30 -235 -11 -264 10 -15 26 -25 40 -25 13 0 29 -7 36 -15 7 -8 17 -15 22 -15 6 0 37 -12 69 -26 92 -42 122 -21 149 101 12 57 87 255 101 269 5 6 9 19 9 31 0 12 4 25 9 31 19 21 53 143 55 196 1 50 -3 60 -28 87 -15 16 -42 35 -60 41 -17 6 -38 15 -46 19 -8 5 -40 14 -70 20 -30 7 -68 19 -83 27 -42 21 -94 18 -107 -6z"></path><path id="p10Nj6vJrZ" d="M4426 4644 c-8 -22 -7 -127 2 -140 8 -12 191 -171 325 -281 52 -43 135 -106 183 -140 49 -34 118 -87 154 -118 36 -31 79 -64 95 -72 17 -9 37 -22 47 -30 9 -8 29 -13 45 -11 41 5 42 37 1 75 -70 66 -203 180 -247 212 -25 18 -64 50 -86 70 -22 21 -58 50 -80 66 -48 34 -91 72 -254 224 -158 147 -151 141 -151 152 0 15 -27 10 -34 -7z"></path><path id="pFb2hRqER" d="M8196 4487 c-9 -12 -36 -81 -60 -152 -101 -290 -153 -420 -168 -423 -9 -2 -19 -15 -23 -29 -5 -20 0 -32 21 -54 15 -16 33 -29 39 -29 7 0 42 -16 78 -35 44 -23 79 -35 106 -35 35 0 44 5 74 43 39 49 76 107 176 272 40 66 91 148 112 183 33 53 39 69 33 98 -7 36 -44 74 -73 74 -10 0 -21 4 -26 9 -21 19 -222 101 -247 101 -18 0 -33 -8 -42 -23z"></path><path id="pctYfvNVb" d="M10871 4394 c-19 -8 -111 -72 -205 -143 -94 -70 -229 -170 -301 -221 -209 -150 -225 -163 -225 -182 0 -10 25 -36 58 -60 31 -23 94 -73 140 -110 46 -37 94 -71 107 -74 27 -7 105 17 168 51 71 38 179 100 235 133 29 18 55 32 58 32 4 0 49 28 103 63 53 35 128 82 166 105 83 50 120 82 129 110 7 20 -26 51 -178 167 -21 17 -72 56 -113 88 -41 31 -82 57 -91 57 -9 -1 -32 -7 -51 -16z"></path><path id="pbERjNlhh" d="M4466 4375 c-9 -33 11 -100 43 -150 15 -22 56 -59 95 -85 63 -41 66 -45 42 -48 -15 -2 -34 2 -42 9 -21 17 -26 6 -18 -36 4 -25 26 -60 63 -104 31 -36 77 -95 103 -131 48 -69 126 -154 168 -183 14 -10 59 -40 100 -67 67 -44 72 -50 46 -50 l-29 0 49 -54 c27 -30 60 -68 73 -85 12 -18 39 -41 60 -52 20 -11 65 -38 101 -59 36 -22 74 -44 85 -49 11 -5 43 -19 70 -31 45 -19 48 -23 33 -34 -21 -15 -23 -26 -7 -26 7 0 31 -9 54 -21 35 -18 41 -25 37 -45 -3 -18 0 -24 12 -24 10 0 41 -22 69 -49 52 -48 177 -121 231 -135 27 -7 28 -8 11 -26 -16 -17 -16 -20 -2 -20 8 0 26 -13 39 -28 27 -33 97 -82 115 -82 7 0 35 -16 62 -35 26 -19 54 -35 60 -35 7 0 29 -9 49 -20 74 -39 106 -50 145 -50 33 0 38 2 27 14 -6 8 -35 29 -63 47 -29 17 -70 44 -93 59 -22 15 -61 35 -86 44 -36 14 -53 29 -76 66 -42 67 -219 179 -285 180 -31 0 -87 26 -87 39 0 12 26 21 61 21 29 0 29 0 15 28 -19 35 -66 72 -153 118 -37 21 -79 47 -91 58 l-24 21 25 5 c24 5 24 7 -39 89 -35 46 -73 104 -85 128 -18 37 -91 103 -114 103 -3 0 -40 19 -81 41 -72 40 -74 42 -58 60 12 14 21 16 30 9 8 -8 13 -7 16 2 3 8 9 5 17 -10 9 -18 20 -22 56 -22 34 0 45 4 45 16 0 21 -19 54 -31 54 -5 0 -29 18 -51 40 -23 22 -45 40 -49 40 -4 0 -35 19 -69 43 -34 23 -69 47 -78 52 -43 25 -109 75 -126 94 -11 11 -23 21 -29 21 -5 0 -44 32 -86 71 -42 40 -93 82 -113 95 -20 13 -64 48 -98 79 -35 30 -66 55 -70 55 -5 0 -17 16 -29 35 -24 42 -37 44 -45 10z m362 -400 c85 -70 106 -84 200 -140 91 -55 106 -80 42 -72 -22 2 -50 12 -62 21 -13 9 -34 24 -48 33 -95 67 -172 128 -215 173 -41 43 -46 51 -25 45 23 -7 24 -7 10 11 -14 17 -13 17 11 -1 15 -11 54 -42 87 -70z"></path><path id="pECizUYUU" d="M8776 4218 c-14 -11 -73 -82 -129 -157 -56 -75 -132 -174 -168 -221 -36 -47 -83 -111 -104 -144 -31 -49 -35 -60 -24 -72 28 -27 201 -114 229 -114 37 0 89 42 270 217 80 77 173 167 207 200 34 33 67 72 73 88 10 25 8 32 -22 62 -17 18 -38 33 -46 33 -15 0 -175 83 -202 105 -27 22 -56 23 -84 3z"></path><path id="pWzczDcLm" d="M6150 3940 c-8 -5 -27 -10 -42 -10 -15 0 -29 -4 -32 -8 -8 -14 210 -249 303 -327 60 -51 78 -71 66 -73 -12 -3 -53 31 -119 97 -56 56 -106 101 -111 101 -6 0 -46 36 -90 81 -101 102 -135 123 -179 115 -58 -11 -53 -32 21 -100 37 -33 104 -95 148 -136 44 -42 103 -94 130 -118 40 -34 46 -42 29 -42 -19 0 -111 65 -213 150 -75 63 -197 157 -219 169 -19 10 -28 10 -48 -4 -13 -8 -24 -19 -24 -22 0 -4 37 -42 83 -85 62 -59 77 -77 61 -78 -25 0 -67 31 -123 93 l-44 48 -24 -22 c-25 -24 -29 -49 -13 -79 6 -11 97 -77 203 -147 111 -74 185 -129 176 -131 -9 -1 -32 6 -50 17 -19 11 -68 39 -109 61 -93 50 -138 78 -174 108 -38 29 -96 31 -96 2 0 -25 41 -65 94 -92 21 -11 57 -33 79 -49 54 -39 19 -39 -39 1 -46 31 -130 54 -106 29 6 -7 12 -25 12 -39 0 -25 36 -70 55 -70 5 0 20 -10 34 -23 15 -13 89 -52 166 -87 156 -70 172 -80 131 -80 -37 0 -184 65 -217 96 -17 16 -37 24 -62 24 -35 0 -36 -1 -27 -26 6 -15 37 -56 70 -92 33 -36 60 -68 60 -72 0 -4 34 -22 75 -40 76 -33 87 -43 60 -54 -25 -9 -17 -30 28 -72 43 -41 127 -83 169 -85 13 0 39 -7 58 -14 l35 -13 -52 -1 c-36 -1 -53 -5 -53 -13 0 -14 86 -93 130 -120 74 -47 446 -84 584 -60 l40 7 -27 18 c-14 9 -30 17 -35 17 -13 0 -53 46 -46 52 3 4 -12 19 -35 33 -22 15 -55 50 -73 77 -17 28 -43 61 -57 74 -14 13 -20 24 -14 24 8 0 10 12 6 35 -3 19 0 55 7 80 10 36 21 50 56 72 24 16 44 32 44 38 0 5 -21 31 -47 59 -27 27 -41 45 -33 41 20 -12 49 -36 75 -63 15 -16 31 -23 50 -20 28 3 27 5 -67 113 -53 61 -144 157 -203 215 -101 98 -186 193 -297 330 -44 55 -96 100 -115 100 -4 0 -15 -5 -23 -10z m65 -961 l80 -28 -51 0 c-29 -1 -58 5 -70 14 -10 8 -31 15 -46 15 -15 0 -30 5 -33 10 -10 16 5 32 24 25 9 -4 52 -20 96 -36z"></path><path id="pDqbotGXL" d="M6295 3929 c-4 -5 15 -33 42 -62 27 -29 94 -108 148 -177 54 -69 131 -159 170 -200 39 -41 110 -121 158 -177 97 -113 113 -126 160 -121 l32 3 -60 60 c-33 33 -97 112 -143 175 -45 63 -107 146 -137 183 -30 38 -87 120 -125 183 -39 62 -78 121 -86 129 -18 18 -149 21 -159 4z"></path><path id="pvLlr7Ak9" d="M9315 3933 c-29 -8 -65 -34 -216 -163 -75 -63 -191 -161 -257 -218 -148 -124 -149 -128 -57 -189 115 -76 177 -90 225 -53 14 11 30 20 35 20 6 0 33 17 60 38 28 21 93 63 145 93 159 94 323 200 353 227 52 49 40 68 -110 165 -32 21 -73 49 -92 62 -34 25 -47 27 -86 18z"></path><path id="pY6aC1hWR" d="M6554 3915 c-4 -10 6 -33 25 -58 17 -23 57 -80 88 -127 31 -47 77 -116 103 -155 197 -295 299 -425 337 -425 41 0 35 16 -94 220 -52 84 -125 228 -221 440 -41 92 -61 106 -155 114 -66 6 -78 4 -83 -9z"></path><path id="p14M0rQ6Q9" d="M11405 3904 c-22 -14 -110 -60 -195 -103 -157 -78 -201 -102 -210 -111 -8 -8 -50 -31 -145 -78 -144 -71 -222 -121 -229 -145 -7 -24 -5 -26 157 -168 72 -65 80 -69 125 -69 26 0 79 12 117 25 39 14 95 34 125 44 78 27 119 45 257 112 66 33 138 65 160 73 55 19 224 103 252 125 l25 19 -38 46 c-21 26 -93 94 -159 151 -112 97 -125 105 -162 104 -24 -1 -56 -11 -80 -25z"></path><path id="pWk2tPfRo" d="M6866 3872 c-5 -9 29 -102 59 -158 8 -16 15 -36 15 -45 0 -9 9 -28 20 -42 11 -14 20 -28 20 -32 0 -3 16 -41 36 -83 20 -42 56 -120 79 -172 79 -178 118 -225 160 -190 9 7 15 8 20 0 10 -17 45 -12 45 8 1 10 8 3 18 -18 13 -27 24 -36 48 -38 19 -2 33 2 36 10 3 7 2 74 -2 148 -4 74 -6 196 -5 270 4 151 -5 203 -38 224 -12 8 -59 25 -105 37 -107 29 -111 26 -88 -83 10 -46 23 -117 31 -158 7 -41 20 -91 28 -110 10 -23 12 -41 6 -58 -5 -13 -7 -28 -3 -33 3 -5 -4 -9 -15 -9 -24 0 -26 7 -126 402 -17 69 -29 85 -80 110 -36 18 -151 32 -159 20z"></path><path id="pNGfiZOK3" d="M7506 3683 c-16 -42 -39 -530 -28 -583 7 -33 10 -35 47 -35 l39 0 63 185 c104 299 111 325 100 346 -19 36 -61 74 -81 74 -12 0 -39 7 -61 15 -53 19 -72 18 -79 -2z"></path><path id="pOJHlVpzO" d="M9795 3640 c3 -4 -7 -11 -23 -15 -15 -3 -61 -28 -102 -54 -41 -26 -122 -74 -180 -106 -58 -33 -118 -69 -135 -81 -16 -12 -90 -52 -162 -89 -73 -36 -133 -72 -133 -79 0 -7 6 -19 13 -28 20 -26 118 -88 138 -88 10 0 21 -5 25 -11 7 -12 57 -8 114 9 62 19 352 128 465 176 205 87 263 117 268 142 5 29 6 29 -88 99 -44 33 -96 74 -115 91 -31 27 -97 54 -85 34z"></path><path id="p9JjWIy45" d="M7800 3512 c-12 -26 -37 -96 -56 -157 -46 -143 -104 -294 -115 -301 -18 -11 -9 -54 16 -70 36 -23 54 -15 97 46 21 30 62 88 91 128 29 41 70 100 93 132 22 32 55 75 73 95 51 58 42 82 -47 126 -41 20 -87 39 -103 43 -26 5 -30 2 -49 -42z"></path><path id="ppzGzNPvU" d="M11860 3446 c-36 -12 -99 -41 -140 -62 -83 -44 -388 -165 -546 -217 -55 -18 -113 -42 -130 -54 l-29 -22 18 -33 c10 -18 41 -58 68 -88 28 -30 58 -65 66 -77 30 -45 134 -49 261 -10 26 8 76 22 112 32 36 9 94 26 129 36 35 10 77 19 92 19 57 0 267 55 287 74 3 3 -1 12 -7 20 -11 12 -6 17 31 26 50 13 110 37 156 63 32 19 33 20 16 46 -21 32 -76 103 -123 157 -20 22 -50 57 -68 77 -28 33 -36 37 -80 37 -26 0 -77 -11 -113 -24z"></path><path id="pWXKeqhqf" d="M8027 3272 c-65 -81 -154 -189 -198 -239 l-80 -92 33 -21 c18 -11 38 -20 44 -20 7 0 106 70 220 156 115 85 230 171 255 190 50 37 54 57 20 88 -19 18 -152 86 -166 85 -5 0 -63 -66 -128 -147z"></path><path id="pndEpph0T" d="M10040 3235 c-223 -83 -372 -135 -386 -135 -8 0 -14 -6 -14 -14 0 -8 -15 -17 -36 -21 -21 -3 -46 -12 -58 -20 -12 -7 -46 -18 -76 -24 -63 -13 -123 -45 -118 -64 2 -8 33 -39 70 -70 62 -52 72 -57 115 -57 49 0 256 44 468 100 66 17 156 40 200 50 44 10 96 23 115 28 39 10 140 59 140 68 0 18 -31 52 -111 124 -90 79 -92 80 -143 79 -34 -1 -90 -15 -166 -44z"></path><path id="pt8vHSjoZ" d="M8361 3177 c-52 -34 -104 -69 -116 -77 -114 -78 -241 -158 -292 -184 -60 -30 -70 -59 -28 -78 20 -9 32 -8 58 4 18 8 47 19 66 23 84 18 406 152 421 175 3 4 37 21 75 38 58 25 71 35 73 56 3 20 -3 28 -25 38 -15 7 -44 22 -63 34 -64 39 -68 38 -169 -29z"></path><path id="pIYZtxEf3" d="M8693 3046 c-5 -8 -60 -33 -123 -55 -63 -21 -155 -54 -204 -71 -49 -18 -144 -45 -210 -61 -160 -39 -152 -36 -132 -58 9 -9 13 -21 9 -24 -10 -10 28 -36 53 -37 12 0 27 6 33 14 6 8 48 19 91 25 44 7 104 19 133 28 28 8 75 19 102 23 138 22 445 98 445 110 0 3 -28 28 -63 55 -34 28 -63 53 -65 58 -6 13 -61 7 -69 -7z"></path><path id="paQfIpCiy" d="M14060 3047 c0 -7 -21 -20 -47 -29 -27 -9 -97 -35 -158 -58 -115 -43 -318 -110 -470 -155 -49 -15 -101 -33 -116 -40 -14 -8 -49 -17 -77 -21 -37 -5 -56 -12 -63 -26 -6 -10 -21 -23 -35 -28 -28 -11 -32 -50 -9 -90 8 -14 14 -39 15 -57 0 -45 52 -103 92 -103 35 0 461 105 633 156 66 19 152 44 190 54 107 29 203 75 216 104 10 21 6 44 -25 143 -47 151 -55 163 -106 163 -26 0 -40 -5 -40 -13z"></path><path id="pUjtlw0ys" d="M12315 2988 c-75 -19 -230 -59 -350 -93 -66 -18 -158 -43 -205 -55 -47 -12 -116 -30 -155 -41 -38 -10 -82 -19 -97 -19 -15 0 -42 -9 -60 -20 -18 -11 -50 -20 -70 -20 -66 0 -70 -41 -14 -124 14 -21 33 -55 42 -76 17 -38 19 -39 78 -45 48 -5 119 4 326 40 146 25 335 61 420 80 85 19 170 34 188 35 18 0 57 14 87 31 50 28 54 33 49 57 -18 72 -155 264 -186 261 -7 -1 -31 -6 -53 -11z"></path><path id="pKoecs2SP" d="M10550 2949 c-25 -4 -85 -17 -135 -28 -49 -11 -184 -39 -300 -61 -115 -23 -240 -50 -276 -61 -36 -10 -74 -19 -84 -19 -10 0 -32 -4 -49 -10 -17 -5 -42 -12 -56 -14 -14 -3 -34 -12 -45 -20 -19 -14 -18 -16 35 -73 82 -88 82 -87 229 -73 69 6 196 21 281 31 85 11 190 24 232 29 42 6 88 14 101 19 13 5 58 12 98 16 106 9 176 31 184 56 7 20 -21 57 -127 170 -42 46 -44 46 -88 38z"></path><path id="p1ETFhVE6v" d="M8910 2879 c-30 -4 -95 -19 -144 -33 -48 -14 -100 -26 -114 -26 -14 0 -34 -8 -44 -17 -14 -13 -47 -19 -121 -25 -56 -4 -127 -12 -157 -17 -30 -5 -90 -10 -132 -10 -42 -1 -79 -4 -82 -9 -8 -13 22 -70 44 -82 11 -6 29 -9 38 -6 18 6 125 17 342 36 161 14 210 21 205 30 -2 4 42 10 98 14 248 16 257 17 257 40 0 27 -7 35 -52 69 -52 38 -75 44 -138 36z"></path><path id="pvqdItYZR" d="M15573 2730 c-12 -5 -30 -17 -41 -26 -30 -25 -501 -224 -532 -224 -8 0 -39 -14 -69 -30 -30 -17 -62 -30 -73 -30 -10 0 -18 -4 -18 -8 0 -5 -39 -23 -87 -41 -127 -46 -134 -50 -179 -119 -22 -34 -51 -73 -64 -87 -19 -20 -21 -27 -10 -40 16 -19 44 -19 59 -1 6 8 51 26 99 40 48 14 110 33 137 43 90 29 398 154 455 184 30 16 60 29 66 29 15 0 100 47 140 77 37 28 140 177 150 216 7 29 2 31 -33 17z"></path><path id="p16KqhYkVR" d="M9070 2670 c-58 -14 -445 -31 -625 -28 -94 1 -189 -1 -212 -6 -40 -7 -42 -9 -32 -29 12 -23 64 -74 95 -94 11 -6 17 -17 15 -25 -7 -20 -6 -59 2 -105 7 -42 6 -43 -19 -43 -17 0 -28 -6 -31 -20 -3 -12 -20 -24 -42 -31 -49 -15 -130 -30 -161 -30 -14 0 -49 1 -78 1 -29 0 -71 5 -93 11 -30 10 -42 10 -51 1 -10 -10 1 -25 47 -67 32 -30 63 -55 67 -55 5 0 39 -28 76 -62 133 -123 193 -169 290 -219 61 -33 83 -39 120 -37 25 2 47 8 49 14 2 6 -22 24 -54 40 -31 16 -80 51 -107 77 l-51 48 45 -22 c25 -12 77 -41 116 -65 76 -46 175 -94 195 -94 7 0 21 -8 31 -17 18 -16 92 -22 106 -8 3 3 1 19 -5 36 l-12 30 44 -25 c24 -14 51 -26 59 -26 9 0 30 -9 48 -20 35 -21 74 -25 98 -10 12 8 12 11 -3 28 -9 10 -14 22 -10 25 3 4 -4 19 -18 33 l-24 26 30 -13 c17 -7 34 -16 40 -21 5 -4 21 -8 35 -8 14 0 35 -7 46 -15 23 -17 67 -19 96 -4 20 11 20 11 -7 38 l-26 28 53 -10 c29 -5 69 -10 88 -11 30 -1 36 3 38 22 2 15 -5 34 -19 48 l-23 24 31 -11 c38 -13 95 -8 100 8 2 6 -10 27 -28 47 -30 35 -34 36 -98 36 -64 0 -69 2 -101 35 -25 25 -43 35 -66 35 -58 0 -139 20 -159 40 -24 24 -15 25 75 4 36 -8 101 -21 145 -30 44 -9 92 -22 107 -30 15 -8 36 -14 46 -14 10 0 29 -9 42 -20 27 -23 31 -24 51 -7 40 33 42 44 14 82 -27 34 -29 35 -99 35 -43 0 -82 6 -100 15 -15 8 -52 15 -81 15 -40 0 -56 5 -71 21 -19 21 -19 21 11 15 50 -10 257 -36 292 -36 38 0 51 19 36 52 -13 29 -84 44 -292 62 -164 14 -164 14 -195 46 l-31 32 80 -6 c44 -3 102 -13 129 -21 61 -19 256 -21 256 -3 0 22 -42 98 -58 107 -10 5 -115 12 -235 16 -119 4 -220 11 -223 16 -3 5 -92 9 -199 9 -189 0 -256 11 -153 24 28 4 192 4 363 0 314 -7 385 -3 385 19 0 7 -20 34 -43 60 -39 41 -49 47 -83 46 -21 -1 -55 -5 -74 -9z m105 -665 l40 -13 -43 -1 c-40 -1 -112 21 -112 34 0 7 61 -4 115 -20z"></path><path id="pqVK2GjcG" d="M6499 2606 c41 -42 122 -79 176 -79 54 -1 353 22 382 29 30 8 29 20 -4 41 -24 16 -49 18 -218 15 -165 -3 -193 -1 -204 12 -10 12 -32 16 -89 16 l-76 0 33 -34z"></path><path id="prEziqovV" d="M10680 2619 c-224 -36 -502 -68 -725 -84 -49 -3 -109 -11 -132 -17 l-42 -10 29 -57 c15 -32 36 -63 45 -71 17 -14 307 -16 650 -4 172 6 209 10 201 23 -3 5 52 12 122 16 71 3 135 10 142 15 11 7 6 24 -25 85 -21 43 -47 88 -58 101 -22 29 -45 29 -207 3z"></path><path id="p6RmVhFzZ" d="M14135 2556 c-49 -13 -137 -37 -195 -54 -58 -16 -121 -32 -141 -36 -20 -4 -44 -15 -54 -26 -10 -11 -38 -22 -64 -26 -25 -4 -55 -12 -66 -19 -11 -7 -69 -22 -130 -35 -186 -38 -309 -70 -321 -83 -7 -6 -15 -61 -19 -121 l-8 -109 73 5 c40 3 75 10 79 16 4 6 36 16 71 21 104 17 591 130 706 164 126 37 157 55 172 102 7 22 14 80 15 130 2 73 -1 90 -13 92 -8 1 -55 -9 -105 -21z"></path><path id="p16vORqUFU" d="M12439 2540 c-69 -15 -167 -33 -217 -39 -50 -6 -103 -16 -117 -21 -15 -6 -58 -13 -96 -16 -46 -5 -77 -13 -91 -25 -16 -15 -37 -19 -92 -19 -41 0 -82 -6 -98 -14 -15 -8 -62 -17 -105 -21 -109 -11 -123 -17 -123 -58 0 -19 9 -46 20 -60 11 -14 20 -36 20 -50 0 -46 18 -51 183 -44 128 6 505 46 572 61 11 3 81 14 155 25 256 39 251 36 221 155 -11 47 -21 96 -21 109 0 55 -31 58 -211 17z"></path><path id="p3FRsxF3s" d="M7040 2524 c-30 -8 -107 -17 -171 -21 l-116 -6 24 -35 c36 -54 91 -82 172 -89 58 -5 71 -3 87 13 11 11 44 32 74 48 30 16 68 37 84 47 l28 17 -21 21 c-25 25 -76 26 -161 5z"></path><path id="p1Ccg7zdnO" d="M6464 2509 c-22 -36 198 -167 296 -177 27 -2 50 0 50 5 0 14 -74 83 -90 83 -7 0 -33 11 -57 25 -42 25 -164 75 -183 75 -5 0 -12 -5 -16 -11z"></path><path id="p6doY4exR" d="M7220 2424 c-19 -19 -65 -51 -102 -72 -38 -20 -68 -40 -68 -44 0 -8 167 -88 185 -88 17 0 55 44 55 64 0 21 19 57 36 71 8 6 15 30 16 55 l3 45 -45 2 c-39 1 -50 -3 -80 -33z"></path><path id="p1AyvuyTJm" d="M7415 2408 c-19 -55 -58 -198 -59 -217 -1 -20 9 -28 69 -53 39 -17 82 -32 98 -35 33 -6 34 4 8 96 -11 36 -22 85 -26 108 -7 45 -33 86 -66 103 -14 8 -20 8 -24 -2z"></path><path id="p18iaGGOKo" d="M15255 2344 c-22 -13 -62 -30 -88 -39 -26 -9 -71 -26 -100 -39 -29 -13 -110 -48 -182 -77 -71 -29 -141 -60 -155 -70 -20 -14 -157 -62 -342 -119 -15 -4 -61 -29 -102 -56 -60 -37 -73 -50 -65 -61 18 -21 60 -15 160 23 52 19 171 64 264 99 331 123 591 259 647 337 23 33 16 34 -37 2z"></path><path id="piPQrRFQl" d="M7571 2331 c-17 -11 -10 -45 24 -116 13 -27 36 -79 53 -116 29 -65 29 -65 105 -97 75 -31 147 -42 147 -22 0 6 -10 14 -23 19 -32 12 -179 216 -219 304 -14 30 -22 37 -45 37 -15 0 -34 -4 -42 -9z"></path><path id="pVGxR48yW" d="M10725 2314 c-143 -14 -288 -13 -529 1 -88 6 -241 -6 -280 -21 -8 -3 -17 -12 -20 -19 -7 -19 14 -77 32 -91 33 -24 314 -39 732 -39 l415 0 3 36 c3 36 -30 128 -51 141 -17 11 -129 8 -302 -8z"></path><path id="p15wgv0QGz" d="M7704 2296 c-6 -15 108 -164 228 -297 66 -75 70 -77 146 -98 81 -22 132 -27 132 -13 0 18 -187 192 -206 192 -12 0 -58 38 -118 100 -115 116 -169 151 -182 116z"></path><path id="psCEq5O5N" d="M6905 2261 c11 -10 49 -31 85 -47 36 -15 72 -33 80 -40 8 -6 35 -21 60 -33 25 -11 53 -26 62 -33 9 -7 19 -10 21 -8 11 11 -7 72 -22 77 -9 3 -64 28 -122 54 -69 32 -119 49 -145 49 -38 0 -38 0 -19 -19z"></path><path id="pUPYmaL91" d="M12490 2174 c-98 -14 -271 -33 -302 -34 -10 0 -18 -7 -18 -15 0 -11 -12 -15 -47 -15 -27 0 -104 -7 -173 -15 -69 -9 -182 -22 -253 -29 -70 -7 -130 -15 -133 -18 -3 -3 -8 -37 -11 -75 -8 -93 -10 -92 237 -82 360 14 570 32 780 65 129 20 127 19 133 62 4 20 10 60 15 89 12 74 4 83 -71 82 -34 -1 -105 -7 -157 -15z"></path><path id="p16ayJHtJJ" d="M14027 2161 c-42 -15 -87 -33 -100 -40 -46 -25 -550 -136 -750 -166 -26 -4 -58 -15 -70 -25 -24 -19 -97 -130 -97 -148 0 -20 30 -20 136 -2 60 11 174 31 253 44 79 14 152 28 161 31 10 3 42 10 72 15 134 23 299 62 360 86 59 22 74 33 114 87 50 65 78 122 69 137 -10 17 -67 9 -148 -19z"></path><path id="pgtPQsxqd" d="M9208 2100 c12 -11 27 -20 33 -20 7 0 5 8 -6 20 -10 11 -25 20 -33 20 -12 0 -11 -5 6 -20z"></path><path id="p8FUippp3" d="M9932 2080 c-29 -27 -28 -30 11 -66 35 -34 86 -45 297 -64 58 -5 155 -16 215 -24 159 -20 606 -38 620 -24 4 3 11 25 16 47 7 32 6 48 -6 70 l-15 29 -227 1 c-302 2 -618 17 -723 36 -117 21 -161 19 -188 -5z"></path><path id="pBRvV3Iyu" d="M7350 2060 c0 -22 5 -30 18 -30 10 0 22 -4 28 -8 18 -17 240 -102 264 -102 l24 0 -28 29 c-37 38 -127 83 -192 96 -18 3 -40 15 -50 26 -9 10 -28 19 -41 19 -19 0 -23 -5 -23 -30z"></path><path id="p1DIdaFY8N" d="M9878 1919 c-24 -14 -23 -46 3 -59 11 -7 50 -17 86 -24 60 -11 64 -13 50 -28 -9 -8 -13 -18 -10 -22 4 -3 -14 -6 -39 -6 -32 0 -50 6 -63 20 -22 24 -65 26 -108 4 -32 -17 -64 -52 -59 -66 1 -5 -32 -8 -73 -8 -64 0 -76 -3 -85 -20 -6 -11 -18 -20 -28 -20 -25 -1 33 -50 59 -50 11 0 64 -11 117 -24 118 -29 251 -58 392 -87 58 -12 145 -32 193 -45 66 -18 113 -24 190 -24 118 0 143 9 112 40 -15 14 -49 24 -125 36 -85 14 -110 22 -130 42 l-25 24 35 -6 c19 -3 67 -8 105 -12 39 -3 102 -12 142 -20 115 -22 186 -19 239 12 73 43 58 58 -65 66 -57 5 -109 12 -115 17 -6 5 -49 12 -96 16 -47 4 -93 12 -102 17 -27 13 -22 35 9 41 48 9 306 -14 328 -29 21 -15 151 -20 171 -6 18 12 64 86 64 103 0 14 -14 18 -72 24 -40 3 -111 12 -158 20 -47 8 -146 17 -220 20 -74 4 -144 10 -155 15 -11 5 -65 11 -120 14 -55 2 -147 11 -205 20 -120 18 -217 20 -242 5z m382 -149 c-8 -5 -11 -10 -6 -10 5 0 3 -6 -3 -13 -6 -8 -8 -16 -6 -19 3 -3 -14 -2 -37 3 -24 4 -47 8 -53 9 -5 0 1 10 14 20 15 13 38 20 65 20 30 0 37 -3 26 -10z m-338 -86 c40 -9 145 -31 233 -50 l160 -33 -107 2 c-69 2 -112 7 -120 15 -6 6 -26 12 -44 12 -55 0 -178 32 -199 51 -24 23 -16 23 77 3z"></path><path id="pE1a8aJsr" d="M7789 1902 c13 -25 102 -82 127 -82 11 0 24 -4 30 -9 5 -5 38 -21 73 -35 67 -27 80 -24 81 15 0 38 -143 101 -283 125 -36 6 -38 5 -28 -14z"></path><path id="poTemtDH7" d="M12425 1859 c-77 -4 -187 -14 -245 -23 -76 -11 -182 -16 -382 -16 l-277 0 -29 -42 c-51 -75 -66 -109 -50 -119 18 -12 602 -11 836 1 195 11 244 20 284 57 25 22 78 116 78 137 0 18 12 17 -215 5z"></path><path id="p29mdkqpY" d="M13840 1849 c-97 -35 -223 -70 -305 -85 -44 -8 -127 -24 -185 -35 -58 -11 -154 -26 -215 -33 -138 -17 -210 -37 -304 -84 -51 -25 -80 -47 -93 -69 -23 -39 -74 -60 -176 -74 -42 -5 -91 -17 -109 -25 -17 -7 -36 -14 -42 -14 -13 0 -15 -49 -2 -68 6 -11 27 -8 107 12 54 14 135 30 179 35 44 6 101 17 126 25 25 8 81 20 124 26 44 7 90 20 104 31 19 13 45 19 98 20 58 1 76 6 90 21 27 30 158 78 212 78 11 0 38 11 62 24 23 13 74 33 113 43 39 10 112 38 161 63 76 39 94 53 113 88 27 49 23 51 -58 21z"></path><path id="pMt7sIyLO" d="M8180 1765 c0 -9 9 -15 22 -15 12 0 31 -8 42 -19 12 -10 48 -28 81 -40 153 -57 261 -91 284 -91 13 0 33 -7 43 -16 14 -13 21 -14 32 -5 11 9 20 10 36 1 29 -16 57 -5 40 15 -11 13 -7 13 31 1 128 -40 271 -95 289 -111 8 -7 38 -16 65 -20 28 -3 69 -11 92 -17 30 -7 51 -7 73 0 23 8 38 8 63 -3 22 -9 53 -12 95 -8 36 3 67 1 74 -4 49 -39 285 -63 363 -37 47 16 58 16 190 -5 28 -5 71 -12 97 -16 25 -4 63 -4 83 -1 30 6 34 10 25 21 -7 8 -22 17 -33 21 -12 3 -29 13 -39 21 -9 8 -49 19 -90 24 -40 6 -93 19 -117 30 -24 10 -52 19 -62 19 -11 0 -27 4 -37 9 -9 5 -39 15 -65 22 -26 6 -58 20 -70 29 -14 11 -49 19 -96 23 -55 5 -79 11 -96 27 -14 13 -35 20 -62 20 -22 0 -54 5 -72 11 -24 8 -55 7 -137 -6 -84 -14 -113 -15 -143 -6 -21 6 -74 11 -117 11 l-78 0 20 -21 c12 -11 43 -27 70 -34 l49 -15 -62 3 c-38 2 -69 9 -80 19 -10 8 -36 18 -57 21 -22 4 -60 20 -84 38 -42 30 -47 31 -170 36 -70 2 -145 10 -167 18 -22 7 -57 16 -79 20 -21 3 -46 10 -55 14 -66 33 -191 43 -191 16z m1268 -190 c3 -3 -16 -5 -42 -5 -51 0 -104 18 -124 43 -11 13 3 11 74 -8 48 -14 89 -27 92 -30z"></path><path id="p7wG1o8cp" d="M12335 1609 c-27 -5 -260 -11 -516 -13 l-466 -3 -62 -34 c-46 -25 -61 -39 -61 -55 0 -12 6 -25 13 -27 9 -4 9 -6 -1 -6 -7 -1 -10 -5 -7 -11 4 -6 -26 -10 -84 -10 -93 0 -125 -6 -115 -21 3 -5 -7 -9 -23 -9 -15 -1 -41 -6 -57 -13 -23 -10 -26 -15 -15 -24 26 -20 144 -33 302 -33 98 0 157 -4 157 -10 0 -13 112 -13 315 0 202 13 275 26 299 52 36 39 13 43 -307 51 -166 4 -333 11 -372 16 -47 6 -5 7 130 3 110 -4 328 -7 484 -6 236 0 286 3 295 15 15 19 109 79 125 79 15 0 61 45 61 60 0 11 -23 11 -95 -1z"></path><path id="pvwDGB6Yy" d="M10658 1362 l-78 -3 0 -28 0 -28 108 -9 c130 -11 826 -12 865 -1 58 16 12 27 -116 27 -198 1 -517 18 -530 28 -14 11 -141 18 -249 14z"></path></g></g><g id="l2NJ4zcVtciTIQa61oQIdNn" fill="rgb(91,197,0)" style="transform: none;"><g style="transform: none;"><path id="pR7t720jM" d="M12755 19493 c-26 -7 -95 -37 -170 -75 -33 -17 -86 -44 -117 -60 -32 -16 -58 -34 -58 -42 0 -23 44 -53 87 -60 23 -3 54 -12 70 -20 15 -8 48 -20 73 -26 25 -7 54 -16 65 -21 11 -5 65 -22 120 -39 55 -16 132 -41 171 -54 85 -29 133 -26 186 13 184 133 268 200 268 212 0 4 -33 18 -72 30 -40 12 -77 26 -82 30 -6 5 -19 9 -30 9 -12 0 -43 11 -71 25 -27 13 -61 25 -75 25 -28 0 -79 17 -129 43 -26 13 -57 17 -125 16 -50 -1 -100 -4 -111 -6z"></path><path id="pSQYEc1iy" d="M13965 19364 c-43 -14 -84 -29 -89 -34 -18 -18 7 -44 60 -64 27 -10 67 -26 89 -36 91 -40 323 -129 362 -140 32 -8 49 -8 65 1 41 21 98 82 98 105 0 17 -9 25 -37 35 -62 19 -336 128 -365 144 -36 20 -88 17 -183 -11z"></path><path id="ps2RsICz5" d="M12104 19101 c-88 -59 -170 -126 -273 -221 -74 -68 -91 -90 -89 -110 4 -30 15 -35 303 -125 116 -37 262 -84 326 -106 141 -47 186 -49 237 -12 20 16 41 34 46 41 14 23 172 199 220 245 44 43 64 85 51 107 -10 16 -81 45 -159 64 -39 9 -83 23 -99 31 -17 8 -37 15 -45 15 -7 0 -28 6 -45 14 -18 8 -43 16 -57 19 -67 13 -197 52 -211 64 -9 8 -41 13 -81 13 -59 0 -70 -4 -124 -39z"></path><path id="p2ZopTV7g" d="M14775 19109 c-32 -16 -77 -88 -73 -117 3 -30 50 -60 180 -117 46 -20 145 -66 220 -102 77 -37 144 -63 152 -60 13 5 16 23 16 81 0 66 -3 78 -26 105 -14 17 -30 31 -34 31 -5 0 -97 43 -204 95 -107 52 -198 95 -203 94 -4 0 -17 -5 -28 -10z"></path><path id="pKAi9WFeu" d="M14603 18828 c-24 -27 -133 -251 -133 -273 0 -30 46 -61 160 -109 63 -26 195 -88 293 -137 179 -89 247 -113 262 -89 12 19 55 240 55 283 0 21 -4 46 -10 56 -10 19 -180 121 -202 121 -7 0 -47 18 -88 40 -41 22 -78 40 -83 40 -5 0 -32 11 -60 24 -61 28 -157 66 -167 66 -3 0 -16 -10 -27 -22z"></path><path id="p358yTdTR" d="M13227 18747 c-33 -34 -132 -158 -224 -281 -29 -38 -53 -77 -53 -87 0 -30 42 -53 206 -113 88 -32 173 -65 189 -72 17 -8 68 -29 115 -48 47 -19 123 -50 170 -70 94 -40 135 -44 166 -18 12 9 60 87 107 172 47 85 96 175 110 199 20 34 23 49 16 63 -11 21 -71 51 -209 103 -52 20 -108 42 -125 50 -16 7 -42 17 -58 20 -15 4 -30 11 -33 16 -3 5 -13 9 -22 9 -9 0 -30 7 -47 16 -58 30 -198 74 -238 74 -31 0 -45 -7 -70 -33z"></path><path id="pNbEMKZLF" d="M15506 18428 c-7 -25 -36 -293 -36 -330 0 -33 5 -41 57 -77 31 -23 60 -41 64 -41 5 0 88 -43 186 -96 346 -188 354 -192 367 -158 3 9 6 30 6 47 0 60 -41 310 -55 337 -16 32 -64 70 -120 95 -22 10 -54 29 -72 42 -17 12 -42 27 -55 33 -13 5 -31 14 -40 20 -10 5 -26 15 -35 20 -19 11 -85 43 -143 69 -19 9 -42 21 -50 27 -25 19 -70 26 -74 12z"></path><path id="pJUwH5PNE" d="M16330 17948 c1 -13 8 -52 16 -88 9 -36 23 -105 31 -155 25 -154 31 -171 77 -208 22 -19 79 -58 126 -87 47 -29 141 -90 210 -134 160 -105 216 -137 224 -129 20 21 -6 122 -87 328 -44 113 -57 136 -101 180 -28 28 -64 58 -81 67 -33 19 -37 22 -142 91 -40 26 -75 47 -78 47 -4 0 -32 20 -63 43 -95 73 -132 85 -132 45z"></path><path id="pxsSOKCez" d="M10815 17663 c-11 -3 -31 -15 -43 -26 -20 -18 -253 -362 -337 -497 -12 -19 -34 -54 -48 -77 -63 -100 -25 -139 199 -204 56 -16 112 -29 124 -29 13 0 31 -6 39 -14 9 -7 77 -32 151 -55 74 -24 176 -58 227 -77 72 -26 107 -34 161 -34 88 0 87 -1 232 250 62 107 136 236 165 285 29 50 60 108 69 129 15 37 15 40 -1 59 -23 25 -89 67 -106 67 -7 0 -32 9 -55 20 -23 11 -66 25 -95 30 -28 6 -64 19 -79 30 -15 11 -33 20 -41 20 -7 0 -17 4 -23 8 -5 5 -29 14 -54 21 -25 7 -65 19 -90 28 -25 9 -73 19 -108 23 -38 5 -71 15 -83 26 -15 13 -39 18 -102 20 -45 2 -91 0 -102 -3z"></path><path id="p1FgoxAWGZ" d="M14012 17603 c-15 -6 -79 -132 -177 -348 -38 -82 -74 -159 -81 -170 -6 -11 -15 -34 -19 -51 -5 -28 -1 -36 40 -72 25 -22 74 -52 110 -66 35 -14 94 -40 132 -57 37 -17 102 -47 143 -66 41 -19 147 -70 235 -114 132 -66 168 -79 207 -79 35 0 50 5 57 18 11 21 155 405 181 482 30 90 31 103 10 138 -20 33 -94 92 -115 92 -6 0 -38 13 -71 28 -32 16 -111 54 -174 84 -63 31 -149 72 -191 92 -41 20 -82 36 -91 36 -8 0 -21 7 -28 15 -22 26 -134 52 -168 38z"></path><path id="p1AtQbhvPk" d="M12193 17189 c-35 -22 -156 -217 -311 -501 l-92 -166 15 -35 c16 -39 46 -56 185 -107 155 -57 494 -193 575 -231 139 -64 202 -71 254 -25 13 11 53 82 88 156 36 74 108 222 160 329 88 180 94 195 82 222 -11 29 -101 87 -159 104 -14 4 -32 13 -40 20 -8 7 -35 19 -60 25 -25 7 -67 23 -95 35 -27 12 -66 28 -85 35 -19 7 -39 17 -45 21 -5 3 -26 10 -45 14 -19 4 -44 13 -55 20 -32 20 -288 105 -315 105 -14 0 -39 -9 -57 -21z"></path><path id="pAYyiceSp" d="M15031 14349 c-101 -12 -248 -52 -319 -88 -207 -104 -366 -285 -432 -492 -58 -178 -54 -82 -58 -1379 -2 -828 0 -1221 8 -1280 29 -224 115 -404 257 -541 109 -105 218 -170 348 -209 156 -46 71 -44 1556 -47 l1397 -4 6 23 c10 40 7 465 -5 495 -5 15 -74 92 -152 170 l-142 143 -1051 0 c-1124 0 -1055 -3 -1160 46 -45 20 -88 73 -115 141 l-24 58 0 945 0 945 23 65 c33 94 95 156 190 189 42 14 175 16 1242 21 l1195 5 3 380 c1 209 0 390 -3 403 l-5 22 -1343 -1 c-738 -1 -1375 -5 -1416 -10z"></path><path id="pxSW8M9N" d="M7801 10669 c-35 -33 -46 -66 -111 -346 -33 -142 -67 -283 -75 -313 -29 -107 -65 -285 -65 -321 0 -42 27 -82 71 -104 37 -20 281 -99 384 -126 44 -11 87 -24 96 -29 30 -16 223 -70 250 -70 15 0 35 3 44 6 23 9 59 85 90 190 14 49 37 125 50 169 13 44 58 186 99 316 62 194 76 248 76 301 0 54 -4 68 -22 85 -33 29 -106 61 -165 73 -29 5 -60 14 -70 20 -28 15 -135 50 -156 50 -11 0 -33 6 -50 14 -51 22 -89 34 -131 41 -21 3 -46 10 -55 15 -37 20 -153 50 -194 50 -30 0 -50 -6 -66 -21z"></path><path id="p10FTdmSqC" d="M11707 9060 c-25 -20 -79 -108 -151 -245 -76 -146 -135 -256 -225 -423 -72 -132 -95 -185 -99 -222 -4 -48 -4 -49 42 -81 41 -29 211 -123 352 -194 29 -14 67 -36 85 -48 36 -24 111 -65 192 -105 58 -28 94 -23 136 18 25 26 111 150 212 310 20 30 62 97 95 148 207 323 219 347 215 414 -2 32 -59 84 -135 123 -42 22 -86 49 -98 62 -12 13 -31 23 -43 23 -23 0 -102 47 -124 73 -7 9 -25 17 -39 17 -14 0 -33 6 -41 14 -19 15 -85 49 -195 100 -89 41 -141 46 -179 16z"></path><path id="pGSgCrLCI" d="M14954 8991 c-18 -11 -61 -67 -109 -142 -80 -125 -170 -259 -254 -379 -25 -36 -83 -120 -128 -188 -81 -120 -84 -125 -81 -175 3 -51 3 -52 80 -112 43 -33 132 -100 199 -150 125 -92 154 -114 274 -209 75 -60 104 -67 155 -41 26 13 113 126 486 627 60 81 117 168 126 194 15 43 15 48 0 84 -17 38 -38 57 -257 222 -38 29 -92 74 -120 99 -27 26 -67 54 -88 64 -21 10 -60 37 -86 61 -27 24 -56 44 -64 44 -9 0 -19 5 -22 10 -10 17 -78 11 -111 -9z"></path><path id="p11SaU6wU6" d="M8652 8727 c-46 -24 -72 -91 -158 -412 -25 -93 -56 -204 -68 -245 -51 -166 -59 -198 -64 -258 -4 -59 -3 -65 23 -92 16 -16 49 -37 74 -47 40 -14 269 -106 486 -194 95 -38 126 -38 157 4 13 17 36 61 50 97 129 320 279 718 288 764 16 79 -26 126 -160 182 -41 17 -95 40 -120 52 -25 11 -61 23 -80 27 -46 8 -141 45 -161 62 -8 7 -21 13 -28 13 -6 0 -41 14 -78 30 -70 32 -123 38 -161 17z"></path><path id="pebk470eP" d="M17798 8703 c-26 -28 -45 -57 -134 -208 -51 -86 -190 -301 -313 -482 -94 -139 -110 -169 -111 -210 0 -46 13 -72 62 -124 64 -69 165 -183 201 -228 172 -213 179 -220 210 -221 30 0 106 89 230 271 176 258 292 443 344 546 38 76 44 97 39 126 -7 35 -119 178 -305 387 -42 47 -88 99 -102 116 -49 60 -83 67 -121 27z"></path><path id="pGLtrrXSe" d="M18518 7850 c-14 -9 -178 -243 -178 -255 0 -8 -159 -240 -278 -406 -162 -227 -167 -255 -70 -402 66 -99 83 -128 138 -232 47 -88 76 -125 98 -125 34 0 88 60 227 257 82 114 160 224 174 243 15 19 46 67 70 105 24 39 58 93 76 120 67 103 88 168 73 223 -12 45 -124 242 -241 425 -37 57 -55 67 -89 47z"></path><path id="pFH0i4kQG" d="M14038 7669 c-21 -11 -56 -43 -79 -72 -146 -188 -290 -369 -392 -494 -173 -211 -178 -220 -175 -268 3 -45 -11 -33 358 -305 219 -162 221 -163 264 -154 39 7 63 28 206 184 171 187 194 212 254 285 32 39 91 105 130 148 167 183 167 212 0 336 -55 42 -134 105 -174 140 -40 35 -87 70 -104 77 -17 8 -58 34 -91 59 -103 77 -146 91 -197 64z"></path><path id="pezQZyi5B" d="M16890 7354 c-18 -16 -110 -121 -203 -234 -94 -113 -180 -216 -193 -230 -85 -94 -233 -271 -252 -301 -43 -71 -29 -106 104 -249 38 -41 115 -130 172 -197 56 -67 106 -124 111 -128 6 -3 28 -1 51 4 48 11 131 79 199 162 24 30 83 97 131 149 48 52 118 131 156 175 37 44 101 117 141 163 47 54 77 100 88 131 15 47 15 50 -7 87 -12 22 -49 71 -82 109 -32 39 -66 82 -75 96 -33 53 -256 278 -282 284 -19 5 -34 -1 -59 -21z"></path><path id="p1EIa6Ckap" d="M12030 7091 c-21 -11 -56 -48 -87 -92 -204 -290 -241 -342 -380 -524 -99 -129 -107 -144 -111 -191 l-4 -52 83 -55 c46 -29 145 -91 219 -137 74 -46 158 -98 185 -116 72 -46 89 -49 141 -24 31 15 75 57 147 138 56 64 163 184 238 267 74 83 134 155 132 161 -2 6 23 37 55 70 69 69 82 91 82 136 0 24 -8 42 -27 60 -24 21 -136 99 -195 134 -10 6 -26 18 -36 27 -10 10 -23 17 -29 17 -5 0 -20 11 -33 25 -13 14 -30 25 -38 25 -8 0 -31 13 -51 28 -20 15 -47 33 -61 40 -14 7 -47 28 -75 47 -58 40 -102 45 -155 16z"></path><path id="pSJRXCeHA" d="M17530 6513 c-18 -14 -42 -42 -55 -62 -35 -55 -270 -318 -432 -485 -80 -82 -153 -163 -164 -180 -33 -54 -25 -92 39 -192 77 -122 75 -118 123 -209 74 -141 87 -152 144 -116 36 22 362 343 529 521 192 203 212 243 172 332 -31 69 -174 309 -220 371 -31 40 -41 47 -70 47 -23 0 -45 -9 -66 -27z"></path><path id="pjAnkn7Uw" d="M11145 5893 c-39 -6 -50 -17 -154 -143 -47 -58 -156 -186 -241 -285 -190 -219 -244 -290 -237 -310 7 -17 89 -77 209 -152 289 -183 272 -178 364 -109 33 24 70 56 84 71 14 15 61 59 105 97 44 39 158 147 253 242 177 176 193 200 178 258 -3 13 -25 35 -48 50 -24 15 -69 45 -102 67 -32 23 -60 41 -63 41 -3 0 -50 30 -105 68 -91 62 -123 81 -170 104 -18 8 -21 8 -73 1z"></path><path id="p1FcLJLYmt" d="M17893 5674 c-54 -58 -199 -208 -322 -333 -363 -365 -343 -331 -287 -496 19 -57 41 -133 47 -169 15 -78 36 -104 71 -85 72 38 625 569 706 679 71 97 71 108 8 313 -30 97 -58 182 -61 187 -3 6 -19 10 -35 10 -23 0 -46 -19 -127 -106z"></path><path id="p10513hVMM" d="M13875 5748 c-16 -12 -76 -63 -131 -112 -138 -124 -337 -294 -404 -346 -85 -67 -199 -170 -210 -191 -19 -34 1 -67 88 -145 48 -42 127 -115 176 -163 49 -47 103 -96 120 -108 37 -29 89 -30 123 -3 14 11 31 20 38 20 6 0 20 9 30 20 10 11 57 47 105 80 48 33 90 65 93 73 2 7 22 21 43 32 22 11 72 46 112 78 39 32 103 82 140 110 206 157 261 222 228 272 -9 13 -111 109 -227 214 -203 183 -213 191 -253 191 -26 -1 -52 -9 -71 -22z"></path><path id="pMa2INCzV" d="M16434 5368 c-49 -37 -278 -231 -289 -243 -6 -7 -116 -96 -245 -199 -129 -103 -243 -199 -253 -214 -24 -38 -15 -73 48 -167 29 -44 76 -122 105 -173 29 -51 62 -99 74 -107 28 -20 72 -19 95 3 11 9 51 40 91 67 81 57 216 155 340 247 145 108 356 295 370 327 16 39 4 74 -56 172 -26 41 -50 83 -55 94 -5 11 -35 63 -67 115 -54 89 -60 95 -93 98 -24 2 -44 -4 -65 -20z"></path><path id="pGGN60wvp" d="M11966 5333 c-17 -9 -136 -111 -265 -227 -130 -116 -282 -251 -339 -300 -56 -49 -107 -97 -113 -107 -19 -36 -21 -35 305 -280 49 -37 99 -70 112 -73 45 -12 124 38 435 276 345 263 399 311 399 349 0 33 5 29 -157 149 -67 50 -149 115 -181 145 -33 30 -66 55 -75 55 -8 0 -20 7 -27 15 -16 19 -57 19 -94 -2z"></path><path id="pcMlF8HV7" d="M14599 5072 c-25 -15 -83 -56 -128 -92 -46 -36 -122 -95 -169 -132 -48 -37 -129 -97 -182 -133 -52 -36 -138 -95 -190 -131 -178 -122 -184 -139 -92 -237 56 -59 150 -169 220 -255 40 -50 86 -63 138 -38 95 45 570 347 753 478 128 92 130 110 29 234 -160 198 -292 335 -323 333 -5 0 -31 -12 -56 -27z"></path><path id="pj7H1Cpyu" d="M13280 4147 c-41 -18 -138 -68 -215 -111 -268 -150 -331 -184 -450 -246 -122 -64 -174 -96 -187 -115 -16 -21 -7 -52 23 -81 17 -16 72 -80 121 -141 l91 -113 47 0 c26 0 66 7 89 15 58 20 350 150 441 195 69 35 173 85 310 147 73 34 119 69 131 101 8 22 5 33 -23 71 -99 141 -265 312 -300 311 -2 0 -37 -15 -78 -33z"></path><path id="pfOtwgK9X" d="M16945 4018 c-90 -68 -263 -187 -475 -327 -243 -161 -322 -219 -346 -255 -9 -15 -17 -58 -20 -112 -3 -49 -12 -105 -19 -125 -13 -33 -12 -38 4 -53 10 -9 23 -16 29 -16 30 0 231 122 535 327 243 162 320 222 343 265 19 37 50 251 45 316 -2 22 -55 11 -96 -20z"></path><path id="p6fuRmqLX" d="M15495 3741 c-38 -20 -106 -59 -150 -86 -44 -27 -222 -120 -395 -208 -173 -87 -328 -171 -343 -185 -32 -30 -32 -30 6 -162 13 -47 30 -104 36 -127 11 -41 14 -43 50 -43 42 0 88 14 172 53 30 14 113 51 184 82 182 81 545 266 589 301 20 16 39 39 42 51 12 44 -66 310 -99 341 l-22 20 -70 -37z"></path><path id="p1FMD7Mrcj" d="M13765 3576 c-38 -13 -153 -63 -254 -110 -102 -48 -201 -93 -220 -101 -44 -16 -325 -133 -403 -168 -70 -31 -73 -46 -24 -120 18 -29 53 -88 76 -132 24 -44 48 -84 54 -88 23 -17 145 4 271 47 158 54 329 116 410 149 367 151 385 161 385 200 -1 20 -35 90 -119 240 -27 47 -85 108 -102 107 -2 -1 -35 -11 -74 -24z"></path><path id="p6HOFp6ZO" d="M16851 3503 c-29 -21 -82 -62 -119 -91 -63 -52 -90 -70 -282 -193 -101 -65 -133 -85 -220 -135 -130 -76 -198 -128 -231 -179 -18 -28 -50 -73 -71 -101 -50 -67 -49 -78 8 -77 33 1 741 458 807 521 72 69 195 260 182 282 -10 16 -19 12 -74 -27z"></path><path id="p2r0bRfAK" d="M15650 3193 c-8 -3 -97 -46 -197 -94 -100 -49 -184 -89 -187 -89 -2 0 -87 -38 -188 -83 -101 -46 -205 -92 -233 -102 -27 -10 -59 -25 -70 -32 -11 -7 -28 -13 -37 -13 -34 0 -54 -54 -67 -176 -14 -128 -9 -144 37 -137 15 3 59 17 97 33 39 15 99 39 135 53 83 32 186 74 228 93 17 8 47 20 65 28 17 7 66 30 107 49 41 20 104 48 140 62 93 39 198 109 204 137 20 96 26 132 31 194 5 60 3 72 -10 78 -19 7 -34 7 -55 -1z"></path></g></g><g id="l6tRCT78LJfXMzjS4JaxRT8" fill="rgb(7,186,243)" style="transform: none;"><g style="transform: none;"><path id="p1FeWURkui" d="M12172 19878 c2 -14 9 -22 18 -19 8 2 35 5 60 8 95 10 75 29 -33 32 -45 1 -48 -1 -45 -21z"></path><path id="pweofB3LS" d="M9878 19865 c-16 -9 -60 -15 -121 -16 l-95 -2 21 -28 c23 -32 55 -37 104 -18 39 15 152 38 251 52 46 7 80 15 76 20 -14 14 -207 7 -236 -8z"></path><path id="pgEBR84RB" d="M9505 19823 c-39 -10 -36 -21 7 -27 23 -4 62 -12 86 -18 27 -7 47 -7 53 -1 6 6 -9 14 -41 22 -27 7 -52 17 -56 22 -5 9 -16 10 -49 2z"></path><path id="p5INdEplb" d="M12237 19806 c-27 -12 -27 -13 -9 -29 27 -24 57 -21 70 7 17 38 -6 46 -61 22z"></path><path id="p4C4qvkBc" d="M7519 19261 c-25 -10 -74 -32 -109 -49 -35 -18 -69 -32 -75 -32 -13 0 -121 -55 -143 -73 -19 -15 5 -28 38 -21 76 18 239 68 270 84 38 20 90 66 90 79 0 24 -27 28 -71 12z"></path><path id="pGgPVGso6" d="M5836 18325 c-9 -9 -16 -23 -16 -31 0 -26 28 -26 70 -1 38 23 40 25 18 29 -13 3 -30 9 -39 12 -10 4 -23 0 -33 -9z"></path><path id="p8WIwrUnP" d="M6426 18235 c4 -8 19 -15 35 -15 21 0 27 4 23 15 -4 8 -19 15 -35 15 -21 0 -27 -4 -23 -15z"></path><path id="p7FnDBS9R" d="M6498 17255 c-4 -4 -4 -13 -1 -21 4 -11 41 -14 191 -14 161 0 184 2 172 14 -11 11 -59 16 -185 21 -93 4 -173 4 -177 0z"></path><path id="pKi2tBjN9" d="M4260 17029 c-45 -57 -56 -98 -17 -61 13 12 27 22 31 22 4 0 25 14 46 32 l40 31 -26 14 c-15 7 -28 13 -30 13 -2 0 -22 -23 -44 -51z"></path><path id="pMoo2FuTj" d="M5140 16325 c7 -8 20 -15 30 -15 10 0 23 7 30 15 11 13 7 15 -30 15 -37 0 -41 -2 -30 -15z"></path><path id="p85g1jAze" d="M6038 16327 c13 -16 58 -19 254 -21 61 -1 89 6 76 19 -3 3 -81 8 -174 12 -154 6 -168 5 -156 -10z"></path><path id="p10PhAx4Hd" d="M8375 16020 c-11 -18 37 -42 97 -47 35 -3 75 -12 90 -19 30 -16 194 -20 168 -5 -15 9 -115 31 -160 35 -14 2 -41 8 -60 14 -54 18 -130 30 -135 22z"></path><path id="p1B1mT1pim" d="M19551 15748 c0 -182 4 -263 10 -243 12 40 11 515 -2 515 -5 0 -9 -109 -8 -272z"></path><path id="pdT19jhDe" d="M20218 15747 c1 -150 4 -278 7 -284 15 -44 20 18 18 258 -1 213 -4 274 -15 285 -11 11 -13 -31 -10 -259z"></path><path id="pUZ1toTzS" d="M5597 15974 c-3 -3 -3 -12 0 -20 4 -11 29 -14 112 -13 95 1 102 2 69 13 -20 6 -40 14 -44 19 -9 8 -128 10 -137 1z"></path><path id="p1FxKYBQaF" d="M18693 15915 c0 -27 2 -38 4 -22 2 15 2 37 0 50 -2 12 -4 0 -4 -28z"></path><path id="pfNTiFlA1" d="M18683 15660 c3 -111 7 -204 11 -207 3 -4 6 87 6 200 0 135 -4 207 -10 207 -7 0 -9 -67 -7 -200z"></path><path id="p17MXqWjER" d="M20915 15786 c-11 -9 -14 -16 -7 -16 6 0 12 -8 12 -17 0 -12 3 -14 11 -6 6 6 9 20 7 32 -3 20 -5 21 -23 7z"></path><path id="p12ugsgoDW" d="M20905 15703 c-4 -16 -7 -88 -6 -162 3 -131 3 -134 29 -157 22 -19 39 -23 85 -24 57 0 76 13 35 24 -13 3 -44 6 -69 6 l-46 0 5 124 c6 172 -11 271 -33 189z"></path><path id="pFmtftVp7" d="M22141 15598 c0 -64 3 -119 7 -122 4 -2 6 41 4 97 -4 148 -9 159 -11 25z"></path><path id="p1FtprTh2s" d="M17517 15384 c-19 -19 21 -24 184 -24 172 0 230 10 133 24 -61 8 -309 8 -317 0z"></path><path id="p15JlYoWDB" d="M18891 15374 c9 -11 61 -14 270 -14 154 0 259 4 259 9 0 17 -33 19 -288 19 -215 0 -251 -2 -241 -14z"></path><path id="pg9HaBL8l" d="M22027 15384 c-14 -14 6 -24 48 -24 48 0 68 14 32 24 -29 8 -72 8 -80 0z"></path><path id="piyuERMbd" d="M20420 15365 c9 -10 32 -15 75 -15 47 0 64 4 69 15 4 13 -8 15 -76 15 -70 0 -79 -2 -68 -15z"></path><path id="poEC6SGGs" d="M6802 14728 c4 -17 55 -27 143 -27 62 -1 108 10 95 22 -3 3 -58 8 -123 11 -95 6 -117 5 -115 -6z"></path><path id="p17h4xQM1V" d="M4386 14415 c9 -62 15 -74 24 -50 13 31 12 41 -10 66 l-19 24 5 -40z"></path><path id="p143jAN1UJ" d="M19335 14415 c-17 -6 -118 -33 -170 -46 -226 -55 -470 -284 -560 -524 -10 -27 -28 -88 -39 -135 -19 -83 -20 -122 -23 -1714 l-3 -1629 27 -29 27 -28 428 0 428 0 8 23 c4 12 9 688 11 1502 2 909 6 1497 12 1525 24 106 87 177 199 223 l55 22 805 0 805 0 68 -29 c89 -37 139 -95 179 -202 l29 -79 -3 -1483 c-2 -1293 0 -1484 12 -1492 22 -14 866 -13 892 1 l20 11 -6 1601 c-4 881 -9 1631 -12 1667 -11 133 -73 309 -148 422 -55 83 -162 189 -249 246 -43 29 -81 52 -83 52 -3 0 -29 11 -59 25 -30 14 -79 30 -109 35 -30 5 -65 15 -78 22 -19 10 -257 13 -1238 15 -668 1 -1219 0 -1225 -2z"></path><path id="poWlt9orS" d="M2342 14001 c-15 -48 -15 -51 1 -51 16 0 80 67 70 73 -4 2 -20 7 -34 10 -23 6 -27 3 -37 -32z"></path><path id="pSmzFw4kX" d="M5717 13768 c-6 -21 -2 -36 7 -27 10 11 16 49 8 49 -5 0 -12 -10 -15 -22z"></path><path id="pzd10kTk4" d="M2799 13574 c-18 -22 -20 -117 -2 -103 7 6 15 27 19 48 3 20 8 44 11 54 6 21 -10 22 -28 1z"></path><path id="p134yWwDfM" d="M2751 13379 c-6 -29 -10 -53 -8 -55 2 -2 13 5 25 16 26 24 31 90 8 90 -9 0 -18 -19 -25 -51z"></path><path id="pt08AElmn" d="M3480 13356 c0 -62 14 -65 18 -5 2 29 -1 49 -7 49 -6 0 -11 -20 -11 -44z"></path><path id="pCZghjSTp" d="M3116 12483 c-13 -74 -25 -328 -15 -337 5 -6 9 19 10 65 2 79 2 82 18 174 13 73 14 135 2 135 -5 0 -12 -17 -15 -37z"></path><path id="pRdF317zF" d="M5390 12418 c-7 -29 -16 -57 -20 -63 -13 -18 -32 -108 -40 -195 -5 -47 -12 -110 -16 -140 -7 -51 -6 -54 9 -38 10 9 21 43 27 75 5 32 16 93 24 137 9 43 17 107 20 142 2 34 6 66 9 71 11 19 17 63 8 63 -5 0 -15 -24 -21 -52z"></path><path id="pOtFgT7jV" d="M6320 12364 c-10 -25 -13 -100 -4 -77 3 7 11 10 19 7 10 -4 13 7 12 45 -2 56 -12 65 -27 25z"></path><path id="p1B8mUcxGd" d="M2440 12170 c0 -11 -4 -20 -10 -20 -12 0 -13 -149 -1 -169 14 -21 18 -2 26 107 5 72 4 102 -4 102 -6 0 -11 -9 -11 -20z"></path><path id="p1GboEudwJ" d="M6674 12162 c3 -5 -3 -35 -13 -68 -10 -32 -22 -79 -26 -103 -7 -40 -6 -42 11 -33 17 10 30 54 50 175 6 31 4 37 -10 37 -10 0 -15 -4 -12 -8z"></path><path id="p1Fs0ev3ai" d="M3072 12016 c-14 -113 -15 -166 -3 -166 13 0 20 42 27 158 9 131 -9 137 -24 8z"></path><path id="pT3alRFBu" d="M2057 11668 c-5 -84 0 -118 14 -82 11 27 11 164 0 164 -4 0 -11 -37 -14 -82z"></path><path id="p128MNHXNi" d="M1800 11609 c0 -24 4 -38 10 -34 6 3 10 22 10 41 0 19 -4 34 -10 34 -5 0 -10 -18 -10 -41z"></path><path id="pvTnkSLzr" d="M1787 11553 c-8 -14 -19 -110 -17 -160 5 -139 4 -211 -1 -338 -4 -76 -4 -146 -1 -155 11 -26 20 38 21 155 1 61 6 195 11 299 6 112 6 194 1 199 -5 5 -11 5 -14 0z"></path><path id="pu7Fjqn4g" d="M3063 10885 c0 -22 2 -30 4 -17 2 12 2 30 0 40 -3 9 -5 -1 -4 -23z"></path><path id="pgP8WaX6F" d="M2421 10763 c0 -48 3 -82 6 -75 2 6 12 12 20 12 12 0 14 7 9 28 -4 15 -9 46 -13 70 -10 75 -23 56 -22 -35z"></path><path id="pqOClFDZT" d="M3062 10698 c4 -79 12 -165 18 -191 5 -27 10 -66 10 -87 0 -20 6 -42 13 -48 9 -8 10 28 0 181 -14 217 -18 247 -36 271 -10 13 -11 -11 -5 -126z"></path><path id="p5SfVviaG" d="M6018 10640 c-2 -25 0 -39 7 -37 13 4 19 77 7 77 -6 0 -12 -18 -14 -40z"></path><path id="pVrhU95Kw" d="M6005 10440 c0 -26 3 -46 8 -43 4 2 7 22 7 43 0 21 -3 41 -7 43 -5 3 -8 -17 -8 -43z"></path><path id="pfv00SCyZ" d="M21597 10470 c-4 -14 -6 -50 -6 -80 l2 -55 8 69 c10 73 7 108 -4 66z"></path><path id="p22Cc3STg" d="M6351 10471 c-9 -6 -14 -33 -15 -90 0 -44 -4 -81 -7 -81 -7 0 -12 -32 -25 -160 -6 -56 -5 -63 8 -52 8 6 17 9 20 6 4 -3 9 30 13 73 3 43 10 107 15 143 24 173 23 181 -9 161z"></path><path id="pRLQHIH17" d="M3131 10120 c0 -36 2 -41 10 -27 7 12 7 27 0 45 -9 25 -9 24 -10 -18z"></path><path id="p5EZ39TzG" d="M1758 9949 c-14 -8 -18 -24 -18 -76 l0 -67 30 29 c27 26 31 36 28 74 -3 47 -12 57 -40 40z"></path><path id="p17nXWnBog" d="M2069 9868 c7 -49 31 -65 31 -20 0 16 -8 36 -18 45 -17 16 -18 15 -13 -25z"></path><path id="peRn6Z3Lo" d="M5900 9413 c0 -26 5 -55 10 -63 7 -11 10 1 10 42 0 31 -4 60 -10 63 -6 4 -10 -12 -10 -42z"></path><path id="perBIjizf" d="M4055 8863 c8 -66 9 -68 28 -60 12 4 13 15 6 49 -4 24 -8 49 -9 56 0 6 -7 12 -16 12 -14 0 -15 -8 -9 -57z"></path><path id="p8pO08E8D" d="M7008 8618 c-5 -58 -2 -70 12 -48 11 17 10 100 -1 100 -4 0 -9 -24 -11 -52z"></path><path id="pERNGv8Q9" d="M6194 8525 c0 -55 1 -76 3 -47 2 29 2 74 0 100 -2 26 -3 2 -3 -53z"></path><path id="pFmvExkoL" d="M7313 8587 c-1 -17 -6 -48 -12 -67 -14 -51 -41 -234 -40 -272 1 -26 4 -21 13 23 6 31 16 54 21 52 6 -2 18 44 28 109 9 62 20 130 23 151 6 32 4 37 -12 37 -14 0 -20 -8 -21 -33z"></path><path id="piwfKTuba" d="M6976 8362 c-3 -5 -1 -22 4 -38 8 -29 8 -29 9 9 1 36 -3 45 -13 29z"></path><path id="p15SZaend2" d="M4330 7651 c0 -32 27 -104 46 -122 l22 -21 -8 39 c-14 60 -60 141 -60 104z"></path><path id="pRZo3yCa" d="M5300 7520 c0 -8 7 -50 15 -93 8 -43 15 -98 15 -122 0 -24 6 -48 14 -54 7 -6 16 -26 20 -43 4 -19 10 -28 15 -22 11 11 -5 122 -20 140 -5 6 -12 47 -15 90 -3 61 -9 84 -24 99 -15 15 -20 16 -20 5z"></path><path id="pnwiAGDqU" d="M4772 7018 c6 -16 398 -26 398 -10 0 12 -102 20 -274 22 -101 1 -127 -2 -124 -12z"></path><path id="pzqNyekHR" d="M6292 5956 c3 -35 9 -70 14 -77 5 -8 9 -21 10 -29 1 -8 2 -25 3 -38 0 -13 6 -20 11 -17 6 3 10 -1 10 -9 0 -9 5 -16 10 -16 7 0 9 13 5 33 -3 17 -10 63 -15 100 -9 61 -32 117 -48 117 -2 0 -2 -29 0 -64z"></path><path id="p1FDLNc0HM" d="M7621 5968 c0 -33 2 -38 9 -23 12 28 12 65 0 65 -5 0 -10 -19 -9 -42z"></path><path id="pHcjnpUYE" d="M5651 5975 c1 -36 25 -90 40 -90 22 0 11 56 -17 85 -22 23 -24 23 -23 5z"></path><path id="pUuNSnt6J" d="M6833 5910 c0 -25 2 -35 4 -22 2 12 2 32 0 45 -2 12 -4 2 -4 -23z"></path><path id="pUOHTyKJ3" d="M7590 5783 c0 -16 -3 -39 -6 -53 -5 -23 -4 -23 9 -8 10 13 16 15 25 6 9 -9 12 -7 12 9 0 12 -4 25 -10 28 -5 3 -10 15 -10 26 0 10 -4 19 -10 19 -5 0 -10 -12 -10 -27z"></path><path id="phI8gBk0h" d="M3135 5700 c4 -8 19 -29 31 -47 13 -17 24 -34 24 -38 0 -33 106 -215 126 -215 22 0 17 16 -20 67 -48 68 -66 107 -66 143 0 20 -6 33 -17 37 -10 3 -33 20 -52 37 -19 17 -30 24 -26 16z"></path><path id="p10O3QO8oe" d="M7043 5510 c0 -30 2 -43 4 -27 2 15 2 39 0 55 -2 15 -4 2 -4 -28z"></path><path id="p1DWbQdwWd" d="M3610 5041 c0 -20 43 -61 59 -56 11 3 26 -5 41 -20 18 -19 26 -22 31 -13 13 21 -69 98 -103 98 -15 0 -28 -4 -28 -9z"></path><path id="p1DKlk4QmV" d="M6928 4590 c2 -22 6 -40 8 -40 2 0 4 18 4 40 0 22 -3 40 -8 40 -4 0 -6 -18 -4 -40z"></path><path id="p10eGPfBAK" d="M6935 4505 c16 -140 16 -139 32 -122 20 20 9 108 -18 140 l-19 22 5 -40z"></path><path id="p1BpAqLjKM" d="M4610 4074 c20 -23 47 -35 92 -39 l41 -4 -29 30 c-22 23 -36 29 -72 29 -39 0 -43 -2 -32 -16z"></path><path id="pdXCSCljC" d="M5110 3769 c0 -7 -15 -9 -42 -6 l-42 5 34 -29 c19 -15 49 -36 67 -46 30 -16 33 -16 51 0 14 13 21 14 30 5 9 -9 12 -9 12 0 0 11 -87 81 -102 82 -5 0 -8 -5 -8 -11z"></path><path id="p27Bw6jFd" d="M7248 3384 c0 -10 -1 -25 -1 -31 1 -7 -8 -13 -19 -13 -14 0 -18 -5 -14 -17 3 -10 10 -38 16 -63 7 -25 22 -58 33 -75 12 -16 21 -32 19 -35 -2 -3 6 -6 18 -8 25 -4 26 13 4 105 -9 37 -17 73 -17 80 0 7 -5 11 -11 10 -6 -1 -11 10 -12 26 -1 32 -13 49 -16 21z"></path><path id="pD80JRMBU" d="M5342 3358 c3 -7 13 -15 22 -16 12 -3 17 1 14 10 -3 7 -13 15 -22 16 -12 3 -17 -1 -14 -10z"></path><path id="pA8AwwTA9" d="M5493 3158 c-22 -11 -32 -38 -14 -38 4 0 21 -12 36 -26 28 -26 121 -62 108 -41 -7 11 12 2 37 -18 24 -19 55 -23 68 -8 7 7 29 13 50 14 l37 1 -39 9 c-22 5 -47 16 -55 23 -24 21 -176 96 -192 95 -8 0 -24 -5 -36 -11z"></path><path id="pTOWVfvbJ" d="M6055 3030 c-7 -11 12 -40 25 -40 15 0 21 33 8 42 -17 11 -26 10 -33 -2z"></path><path id="p1CUkewlgx" d="M6561 2864 c7 -8 30 -14 58 -14 55 1 38 15 -27 23 -36 4 -41 3 -31 -9z"></path><path id="pb6OMtfvk" d="M5911 2836 c-9 -10 -2 -21 31 -48 53 -43 109 -78 126 -78 24 0 11 30 -25 57 -21 15 -48 40 -61 56 -26 29 -53 35 -71 13z"></path><path id="p1CkOZtU4I" d="M6630 2765 c7 -9 30 -15 54 -15 48 1 32 14 -27 23 -33 5 -37 4 -27 -8z"></path><path id="pxXBYhnEO" d="M8292 2263 c17 -21 71 -43 105 -43 25 0 24 3 -17 21 -25 12 -58 25 -73 30 -26 7 -27 6 -15 -8z"></path><path id="ptoYSIwEb" d="M8210 2214 c0 -10 7 -14 22 -12 32 5 35 28 4 28 -17 0 -26 -5 -26 -16z"></path><path id="p10M8wU6Zv" d="M8295 2180 c-3 -5 -4 -10 -1 -10 2 0 11 -3 20 -6 11 -4 16 -1 16 10 0 18 -25 22 -35 6z"></path><path id="p19tUNG6WW" d="M7190 2150 c0 -11 -5 -20 -11 -20 -8 0 -8 -5 1 -15 17 -20 44 -20 36 1 -3 9 -6 24 -6 35 0 10 -4 19 -10 19 -5 0 -10 -9 -10 -20z"></path><path id="p14vQqss37" d="M9183 2103 c19 -21 35 -29 48 -26 32 9 19 38 -17 39 -16 0 -36 4 -44 9 -8 4 -2 -6 13 -22z"></path><path id="p18hROVmra" d="M8715 1870 c16 -16 26 -32 23 -35 -3 -3 -24 -7 -46 -8 -46 -1 -46 -10 3 -33 33 -15 37 -15 60 0 24 16 24 18 11 45 -14 26 -55 61 -73 61 -3 0 6 -13 22 -30z"></path><path id="pvzGl1378" d="M8065 1803 c-15 -35 -13 -42 17 -52 41 -15 138 -3 131 15 -3 10 -17 12 -47 8 -38 -6 -44 -3 -59 20 -20 30 -32 33 -42 9z"></path><path id="pOzz32q88" d="M10015 1808 c-19 -25 -15 -37 18 -47 74 -23 105 -24 132 -3 l26 21 -24 15 c-32 22 -139 31 -152 14z"></path><path id="pg5cAvfAB" d="M10260 1770 c-8 -5 -11 -10 -6 -10 5 0 3 -7 -4 -15 -18 -21 25 -36 128 -42 70 -5 82 -4 82 10 0 9 10 17 23 19 15 2 6 8 -33 20 -71 22 -171 31 -190 18z"></path><path id="p1BksU5cLw" d="M13425 1643 c-16 -3 -55 -11 -85 -20 -30 -8 -61 -15 -67 -16 -7 0 -13 -4 -13 -9 0 -4 -6 -8 -13 -8 -20 0 -47 -33 -47 -58 0 -27 0 -27 58 -3 26 10 75 27 110 37 35 9 86 32 115 51 l51 33 -39 -1 c-22 -1 -53 -4 -70 -6z"></path><path id="pTMOOvEna" d="M8656 1612 c-15 -18 -15 -20 2 -35 24 -22 98 -23 105 -2 8 18 -38 55 -68 55 -12 0 -29 -8 -39 -18z"></path><path id="pzPev8LJu" d="M9155 1559 c11 -11 31 -19 49 -19 38 0 24 15 -28 29 -37 10 -38 10 -21 -10z"></path><path id="p11PoOaxPD" d="M12925 1561 c-36 -4 -45 -8 -32 -13 26 -11 115 -10 121 1 6 8 -18 23 -32 19 -4 0 -29 -4 -57 -7z"></path><path id="pZX1XPTH5" d="M11232 1483 l3 -48 60 -7 c33 -3 193 -9 355 -13 162 -4 308 -11 323 -16 32 -10 69 5 101 40 16 18 31 21 92 21 40 0 76 5 79 10 4 7 -62 10 -192 10 -333 0 -765 20 -790 36 -33 21 -35 18 -31 -33z"></path><path id="pkeBYn0Nm" d="M9292 1484 c-18 -8 -38 -12 -44 -8 -5 4 -14 1 -19 -7 -20 -33 113 -49 246 -30 l50 7 -45 8 c-25 5 -67 17 -93 27 -55 22 -52 22 -95 3z"></path><path id="p14mQYdtNu" d="M12375 1421 c-96 -26 -154 -52 -148 -68 5 -12 24 -13 106 -7 56 4 113 10 127 15 l25 7 -24 1 c-13 1 -21 4 -18 8 4 3 1 13 -6 21 -9 12 -9 16 1 19 13 5 17 24 5 22 -5 -1 -35 -9 -68 -18z"></path><path id="p4ZzUhVpz" d="M9835 1400 c-18 -19 -17 -20 6 -19 13 0 47 9 74 19 l50 18 -56 1 c-44 1 -60 -3 -74 -19z"></path><path id="poNQ8ozSQ" d="M12082 1358 c3 -7 25 -14 51 -16 37 -2 47 0 47 12 0 12 -12 16 -51 16 -36 0 -49 -4 -47 -12z"></path><path id="pT2csTwZa" d="M10535 1349 c-16 -5 -68 -14 -115 -20 -86 -10 -118 -23 -86 -35 9 -3 76 -3 149 1 l132 7 0 29 c0 25 -4 29 -25 28 -14 0 -38 -5 -55 -10z"></path><path id="pLnGxvGsx" d="M11400 1340 c0 -6 43 -9 113 -9 100 2 105 3 52 9 -90 11 -165 11 -165 0z"></path></g></g></svg>