<svg width="71" height="52" viewBox="0 0 71 52" fill="none" xmlns="http://www.w3.org/2000/svg">
<path d="M67.872 13.6481L38.577 1.25225C37.6767 0.873542 36.7099 0.678467 35.7332 0.678467C34.7566 0.678467 33.7898 0.873542 32.8895 1.25225L3.59449 13.6481C2.80267 13.983 2.12709 14.5438 1.65211 15.2604C1.17714 15.977 0.923828 16.8177 0.923828 17.6775C0.923828 18.5372 1.17714 19.3779 1.65211 20.0945C2.12709 20.8111 2.80267 21.3719 3.59449 21.7068L13.8612 26.0483V40.0089C13.8533 41.2625 14.1718 42.4965 14.7855 43.5896C15.3992 44.6827 16.2868 45.5973 17.3612 46.2433C22.9363 49.5028 29.2781 51.2207 35.7362 51.2207C42.1942 51.2207 48.5361 49.5028 54.1112 46.2433C55.1855 45.5973 56.0731 44.6827 56.6868 43.5896C57.3005 42.4965 57.6191 41.2625 57.6112 40.0089V26.0483L61.9862 24.1962V31.1116C61.4003 31.3652 60.8918 31.7689 60.5118 32.282C60.1319 32.795 59.894 33.3992 59.8223 34.0335C59.7505 34.6679 59.8474 35.3099 60.1032 35.8949C60.3589 36.4798 60.7645 36.9869 61.2789 37.365C60.8213 37.7015 60.449 38.1407 60.1919 38.6473C59.9349 39.1538 59.8002 39.7136 59.7987 40.2816V43.9275C59.7987 44.3142 59.9523 44.6852 60.2258 44.9587C60.4993 45.2321 60.8702 45.3858 61.257 45.3858H65.632C66.0188 45.3858 66.3897 45.2321 66.6632 44.9587C66.9367 44.6852 67.0903 44.3142 67.0903 43.9275V40.2816C67.0888 39.7136 66.9541 39.1538 66.6971 38.6473C66.44 38.1407 66.0677 37.7015 65.6101 37.365C66.1245 36.9869 66.5301 36.4798 66.7858 35.8949C67.0416 35.3099 67.1385 34.6679 67.0667 34.0335C66.9949 33.3992 66.7571 32.795 66.3772 32.282C65.9972 31.7689 65.4887 31.3652 64.9028 31.1116V22.9625L67.872 21.7068C68.6638 21.3719 69.3394 20.8111 69.8144 20.0945C70.2894 19.3779 70.5427 18.5372 70.5427 17.6775C70.5427 16.8177 70.2894 15.977 69.8144 15.2604C69.3394 14.5438 68.6638 13.983 67.872 13.6481ZM64.1737 34.4483C64.1737 34.5925 64.1309 34.7335 64.0508 34.8534C63.9707 34.9733 63.8568 35.0668 63.7235 35.1219C63.5903 35.1771 63.4437 35.1916 63.3022 35.1634C63.1608 35.1353 63.0309 35.0659 62.9289 34.9639C62.8269 34.8619 62.7575 34.732 62.7293 34.5905C62.7012 34.4491 62.7156 34.3025 62.7708 34.1693C62.826 34.036 62.9195 33.9221 63.0394 33.842C63.1593 33.7619 63.3003 33.7191 63.4445 33.7191C63.6379 33.7191 63.8234 33.7959 63.9601 33.9327C64.0968 34.0694 64.1737 34.2549 64.1737 34.4483ZM64.1737 42.4691H62.7153V40.2816C62.7153 40.0882 62.7922 39.9028 62.9289 39.766C63.0656 39.6293 63.2511 39.5525 63.4445 39.5525C63.6379 39.5525 63.8234 39.6293 63.9601 39.766C64.0968 39.9028 64.1737 40.0882 64.1737 40.2816V42.4691ZM54.6945 40.0089C54.7029 40.7548 54.5171 41.49 54.1553 42.1423C53.7935 42.7945 53.2682 43.3414 52.631 43.7291C47.5042 46.7241 41.6736 48.3024 35.7362 48.3024C29.7988 48.3024 23.9681 46.7241 18.8414 43.7291C18.2041 43.3414 17.6788 42.7945 17.317 42.1423C16.9552 41.49 16.7694 40.7548 16.7778 40.0089V27.282L32.8953 34.1012C33.7955 34.4803 34.7624 34.6756 35.7391 34.6756C36.7158 34.6756 37.6827 34.4803 38.5828 34.1012L54.6945 27.282V40.0089ZM66.736 19.0206L37.441 31.4164C36.9012 31.6431 36.3216 31.7599 35.7362 31.7599C35.1507 31.7599 34.5711 31.6431 34.0314 31.4164L4.73637 19.0206C4.47243 18.9089 4.24723 18.722 4.08891 18.4831C3.93058 18.2443 3.84615 17.964 3.84615 17.6775C3.84615 17.3909 3.93058 17.1106 4.08891 16.8718C4.24723 16.6329 4.47243 16.446 4.73637 16.3343L34.0314 3.9385C34.571 3.71132 35.1506 3.5943 35.7362 3.5943C36.3217 3.5943 36.9013 3.71132 37.441 3.9385L66.736 16.3343C66.9999 16.446 67.2251 16.6329 67.3834 16.8718C67.5417 17.1106 67.6262 17.3909 67.6262 17.6775C67.6262 17.964 67.5417 18.2443 67.3834 18.4831C67.2251 18.722 66.9999 18.9089 66.736 19.0206Z" fill="black" style="fill:black;fill-opacity:1;"/>
</svg>
