<svg width="75" height="87" viewBox="0 0 75 87" fill="none" xmlns="http://www.w3.org/2000/svg">
<path d="M48.5425 39.4745C48.5425 33.3957 43.5975 28.4491 37.517 28.4491C31.4348 28.4491 26.4882 33.3941 26.4882 39.4745C26.4882 45.5567 31.4365 50.505 37.517 50.505C43.5958 50.5034 48.5425 45.5567 48.5425 39.4745ZM29.1773 39.4745C29.1773 34.8789 32.918 31.1399 37.517 31.1399C42.1126 31.1399 45.8516 34.8789 45.8516 39.4745C45.8516 44.0735 42.1126 47.8142 37.517 47.8142C32.918 47.8142 29.1773 44.0735 29.1773 39.4745ZM63.9687 34.5715C60.5002 32.5458 56.0322 33.7166 54.0065 37.1834L44.4877 53.4831C44.3365 53.7435 44.0627 53.8577 43.7671 53.7754C39.4453 52.608 35.5904 52.608 31.2602 53.7771C30.9712 53.856 30.6941 53.7418 30.5413 53.4815L21.0225 37.1834C18.9968 33.7182 14.5305 32.5475 11.0653 34.5715C9.3923 35.5474 8.19637 37.123 7.70086 39.0093C7.20535 40.8955 7.47074 42.8574 8.44832 44.5304L22.4788 68.5499C22.5459 68.6658 22.5678 68.7448 22.5678 68.8775V82.8558C22.5678 84.6951 24.0627 86.1917 25.8986 86.1917H49.1337C50.9696 86.1917 52.4645 84.6951 52.4645 82.8558V68.8775C52.4645 68.7448 52.4864 68.6641 52.5519 68.5516L66.584 44.5304C67.5599 42.8574 67.8236 40.8972 67.3298 39.0109C66.8359 37.1213 65.6417 35.5457 63.9687 34.5715ZM64.261 43.1715L50.2289 67.1944C49.9232 67.7202 49.7754 68.2694 49.7754 68.8758V82.8541C49.7754 83.2102 49.4881 83.4991 49.1354 83.4991H25.8986C25.5459 83.4991 25.2586 83.2102 25.2586 82.8541V68.8758C25.2586 68.2694 25.1108 67.7202 24.8034 67.1927L10.7713 43.1715C10.1566 42.1184 9.99027 40.8821 10.3027 39.6912C10.6151 38.5003 11.3676 37.5076 12.4225 36.8929C13.1481 36.4679 13.9443 36.2663 14.732 36.2663C16.3109 36.2663 17.8495 37.0793 18.7011 38.5373L28.2216 54.8386C28.9976 56.1589 30.506 56.772 31.969 56.3705C35.8575 55.3207 39.1765 55.3207 43.0583 56.3688C44.533 56.777 46.0414 56.1606 46.8124 54.837L56.3295 38.539C57.6061 36.3537 60.4246 35.6146 62.6132 36.8945C63.6647 37.5076 64.4172 38.5003 64.7296 39.6912C65.0404 40.8821 64.8757 42.1184 64.261 43.1715ZM71.8129 8.70938H26.9434C24.827 3.5729 19.8198 0.186646 14.1912 0.186646C6.58891 0.186646 0.404297 6.37293 0.404297 13.9786C0.404297 21.5808 6.58891 27.7654 14.1912 27.7654C19.8198 27.7654 24.827 24.3792 26.9434 19.2427H46.3605V24.2263C46.3605 25.5852 47.4675 26.6904 48.8297 26.6904H53.1952C54.5557 26.6904 55.6643 25.5852 55.6643 24.2263V19.2427H59.4923V24.2263C59.4923 25.5852 60.5993 26.6904 61.9615 26.6904H66.327C67.6875 26.6904 68.7961 25.5852 68.7961 24.2263V19.2427H71.8129C73.3666 19.2427 74.6297 17.9796 74.6297 16.4259V11.5262C74.6297 9.97251 73.3666 8.70938 71.8129 8.70938ZM71.9388 16.4259C71.9388 16.4914 71.8784 16.5518 71.8129 16.5518H67.4507C66.7083 16.5518 66.1053 17.1532 66.1053 17.8973V23.9996H62.1815V17.8973C62.1815 17.1548 61.5802 16.5518 60.8361 16.5518H54.3172C53.5748 16.5518 52.9718 17.1532 52.9718 17.8973V23.9996H49.048V17.8973C49.048 17.1548 48.4467 16.5518 47.7026 16.5518H26.0095C25.43 16.5518 24.916 16.9231 24.7329 17.474C23.2245 22.0209 18.9884 25.0746 14.1912 25.0746C8.07207 25.0746 3.09516 20.0977 3.09516 13.9786C3.09516 7.8561 8.07207 2.87583 14.1912 2.87583C18.9884 2.87583 23.2245 5.93118 24.7329 10.4764C24.916 11.0273 25.43 11.3986 26.0095 11.3986H71.8129C71.8784 11.3986 71.9388 11.459 71.9388 11.5245V16.4259ZM14.1912 8.21891C11.0182 8.21891 8.43656 10.8023 8.43656 13.9786C8.43656 17.1515 11.0182 19.7332 14.1912 19.7332C17.3658 19.7332 19.9508 17.1515 19.9508 13.9786C19.9508 10.8023 17.3675 8.21891 14.1912 8.21891ZM14.1912 17.0423C12.5014 17.0423 11.1274 15.6683 11.1274 13.9786C11.1274 12.2871 12.5014 10.9098 14.1912 10.9098C15.8826 10.9098 17.26 12.2871 17.26 13.9786C17.26 15.6666 15.8826 17.0423 14.1912 17.0423Z" fill="white" style="fill:white;fill-opacity:1;"/>
</svg>
