<svg width="331" height="331" viewBox="0 0 331 331" fill="none" xmlns="http://www.w3.org/2000/svg">
<mask id="mask0_792_161" style="mask-type:alpha" maskUnits="userSpaceOnUse" x="0" y="0" width="331" height="331">
<rect width="331" height="331" fill="#D9D9D9" style="fill:#D9D9D9;fill:color(display-p3 0.8510 0.8510 0.8510);fill-opacity:1;"/>
</mask>
<g mask="url(#mask0_792_161)">
<path d="M140.476 285.808C131.776 284.508 116.376 279.808 108.376 276.008C96.076 270.208 88.076 264.608 78.276 255.108C44.876 222.708 35.676 173.408 54.976 130.708C68.276 101.408 94.276 79.6081 126.976 70.4081C148.076 64.4081 170.376 65.5081 192.576 73.6081L200.976 76.6081V90.3081C200.976 97.9081 200.676 104.308 200.376 104.608C200.076 105.008 196.376 103.508 192.176 101.308C143.876 76.9081 83.476 105.908 72.576 158.908C64.776 196.608 83.476 235.208 117.476 252.008C143.576 264.808 175.476 263.108 199.876 247.408C226.776 230.108 241.476 199.108 237.976 167.108C236.776 156.608 234.176 147.908 229.376 138.208C227.476 134.508 226.376 131.308 226.776 131.008C227.276 130.708 233.376 130.408 240.476 130.308C251.676 130.208 253.476 130.408 254.576 131.908C256.476 134.508 261.076 148.808 262.676 156.908C264.576 167.308 264.376 187.308 262.076 198.608C253.576 240.408 221.676 273.408 179.976 283.408C170.776 285.708 148.576 287.008 140.476 285.808Z" fill="#1C299D" style="fill:#1C299D;fill:color(display-p3 0.1098 0.1608 0.6157);fill-opacity:1;"/>
<path d="M144.976 233.408C122.776 229.208 106.276 214.008 98.776 190.908C96.876 184.808 97.176 167.108 99.376 160.408C105.976 140.608 121.276 125.808 140.476 120.908C149.276 118.708 162.976 119.008 171.376 121.708C175.176 122.908 178.476 124.408 178.676 124.908C178.876 125.508 174.676 130.208 169.476 135.408L160.076 144.808L153.676 144.908C144.676 145.108 134.976 150.008 129.776 156.908C114.276 177.208 126.976 206.108 152.276 208.108C161.776 208.908 168.476 206.608 175.576 200.108C182.776 193.508 186.076 186.608 186.476 177.208L186.776 170.508L195.976 161.408C200.976 156.508 205.476 152.408 205.876 152.408C206.976 152.408 209.776 159.008 210.976 164.408C212.276 170.408 212.276 182.108 210.876 188.608C210.276 191.508 207.976 197.608 205.876 202.208C199.276 215.808 187.476 226.308 172.476 231.408C166.076 233.608 151.576 234.708 144.976 233.408Z" fill="#1C299D" style="fill:#1C299D;fill:color(display-p3 0.1098 0.1608 0.6157);fill-opacity:1;"/>
<path d="M149.476 183.208C147.976 181.808 146.676 179.408 146.276 177.108L145.676 173.308L178.376 140.608L210.976 107.808V94.1082V80.3082L229.576 61.8082C239.776 51.7082 248.576 43.7082 249.076 44.0082C249.576 44.3082 249.976 51.9082 249.976 60.9082C249.976 69.9082 250.276 77.9082 250.576 78.8082C251.076 80.2082 253.576 80.4082 267.476 80.4082C284.176 80.4082 286.976 80.7082 286.976 82.8082C286.976 83.4082 278.876 92.0082 268.976 101.908L250.976 119.908L238.576 119.608C230.876 119.408 225.376 119.608 224.176 120.308C222.976 120.908 207.576 135.808 189.876 153.408C154.976 188.008 154.976 187.908 149.476 183.208Z" fill="#6BAFFC" style="fill:#6BAFFC;fill:color(display-p3 0.4196 0.6863 0.9882);fill-opacity:1;"/>
</g>
</svg>
