<svg width="83" height="82" viewBox="0 0 83 82" fill="none" xmlns="http://www.w3.org/2000/svg">
<path d="M31.275 34.5866C33.0456 36.3572 33.5515 38.1278 33.5515 40.2778C33.5515 41.0366 34.0573 41.5425 34.8162 41.5425H48.8544C49.6132 41.5425 50.1191 41.0366 50.1191 40.2778V39.519C50.1191 37.7484 50.8779 35.9778 52.2691 34.7131C58.8456 28.6425 58.7191 18.1455 52.0162 12.2013C42.6573 3.85428 27.6073 9.67193 26.5956 22.319C26.2162 26.8719 27.9868 31.2984 31.275 34.5866ZM40.3809 10.8102C52.6485 9.41899 59.4779 24.469 50.625 32.816C48.8544 34.4602 47.8426 36.6102 47.7162 38.8866H43.1632V31.2984L47.3368 27.1249C47.8426 26.619 47.8426 25.8602 47.3368 25.3543C46.8309 24.8484 46.0721 24.8484 45.5662 25.3543L41.8985 29.0219L38.2309 25.3543C37.725 24.8484 36.9662 24.8484 36.4603 25.3543C35.9544 25.8602 35.9544 26.619 36.4603 27.1249L40.6338 31.2984V38.8866H36.0809C35.8279 36.6102 34.8162 34.3337 33.0456 32.6896C25.0779 25.1013 29.8838 11.9484 40.3809 10.8102Z" fill="white" style="fill:white;fill-opacity:1;"/>
<path d="M41.8995 5.37194C42.6583 5.37194 43.1642 4.86606 43.1642 4.10723V1.45135C43.1642 0.692528 42.6583 0.186646 41.8995 0.186646C41.1406 0.186646 40.6348 0.692528 40.6348 1.45135V4.10723C40.6348 4.86606 41.1406 5.37194 41.8995 5.37194Z" fill="white" style="fill:white;fill-opacity:1;"/>
<path d="M26.3429 11.0631C26.5958 11.3161 26.9752 11.4425 27.2282 11.4425C28.3664 11.4425 28.8723 10.0513 28.1135 9.29252L26.2164 7.39546C25.7105 6.88958 24.9517 6.88958 24.4458 7.39546C23.9399 7.90135 23.9399 8.66017 24.4458 9.16605L26.3429 11.0631Z" fill="white" style="fill:white;fill-opacity:1;"/>
<path d="M18.503 26.1131H21.1589C21.9177 26.1131 22.4236 25.6072 22.4236 24.8484C22.4236 24.0896 21.9177 23.5837 21.1589 23.5837H18.503C17.7442 23.5837 17.2383 24.0896 17.2383 24.8484C17.2383 25.6072 17.7442 26.1131 18.503 26.1131Z" fill="white" style="fill:white;fill-opacity:1;"/>
<path d="M62.5147 26.1131H65.1706C65.9294 26.1131 66.4353 25.6072 66.4353 24.8484C66.4353 24.0896 65.9294 23.5837 65.1706 23.5837H62.5147C61.7559 23.5837 61.25 24.0896 61.25 24.8484C61.25 25.6072 61.8824 26.1131 62.5147 26.1131Z" fill="white" style="fill:white;fill-opacity:1;"/>
<path d="M56.4427 11.4425C56.8222 11.4425 57.0751 11.3161 57.328 11.0631L59.2251 9.16605C59.731 8.66017 59.731 7.90135 59.2251 7.39546C58.7192 6.88958 57.9604 6.88958 57.4545 7.39546L55.5575 9.29252C54.7986 10.0513 55.431 11.4425 56.4427 11.4425Z" fill="white" style="fill:white;fill-opacity:1;"/>
<path d="M82.7491 62.2837C82.2432 59.7543 79.7138 57.8572 76.6785 58.6161L75.0344 54.4425C74.7815 53.8102 74.1491 53.5572 73.6432 53.6837C59.4785 56.719 54.2932 49.7631 42.0256 60.1337C30.8962 49.7631 24.6991 57.0984 10.155 53.6837C9.52264 53.5572 8.89028 53.8102 8.63734 54.4425L6.99323 58.6161L6.36087 58.4896C3.95793 57.9837 1.55499 59.5014 0.922636 61.9043C0.290283 64.4337 1.80793 67.0896 4.33734 67.722L32.5403 75.4367C33.6785 78.8514 36.9668 81.2543 40.6344 81.2543H43.0373C46.705 81.2543 49.9932 78.8514 51.1315 75.4367L78.955 67.9749C81.6109 67.3425 83.255 64.8131 82.7491 62.2837ZM10.6609 56.3396C25.4579 59.5014 30.5168 52.2925 40.8873 62.6631C41.3932 63.169 42.1521 63.169 42.6579 62.6631C54.4197 52.1661 58.5932 58.869 73.0109 56.2131L74.1491 59.122L47.0844 66.0778C46.705 66.2043 46.3256 66.4572 46.1991 66.9631C45.5668 68.8602 43.7962 70.1249 41.8991 70.2514C39.8756 70.1249 38.2315 68.8602 37.5991 66.9631C37.4726 66.5837 37.0932 66.2043 36.7138 66.0778L9.52264 59.2484L10.6609 56.3396ZM78.4491 65.4455L49.8668 73.0337C49.3609 73.1602 49.1079 73.5396 48.9815 73.919C48.3491 76.7014 45.8197 78.5984 43.0373 78.5984H40.6344C37.8521 78.5984 35.4491 76.7014 34.6903 74.0455C34.5638 73.5396 34.1844 73.2867 33.805 73.1602C33.805 73.1602 4.9697 65.1925 4.84323 65.1925C4.21087 65.0661 3.83146 64.6867 3.45205 64.1808C2.56675 62.5367 4.0844 60.5131 5.85499 60.8925L6.99323 61.1455C7.24617 61.3984 7.37264 61.3984 7.87852 61.3984L35.3226 68.4808C36.9668 72.2749 41.1403 73.1602 42.405 72.7808C45.0609 72.5278 47.3374 70.8837 48.3491 68.4808L75.7932 61.5249C76.2991 61.6514 76.5521 61.5249 76.805 61.272C77.8168 61.019 78.4491 60.7661 79.3344 61.3984C80.8521 62.4102 80.4726 65.0661 78.4491 65.4455Z" fill="white" style="fill:white;fill-opacity:1;"/>
<path d="M48.4758 44.1984H35.1963C34.4375 44.1984 33.9316 44.7043 33.9316 45.4631C33.9316 46.222 34.4375 46.7278 35.1963 46.7278H48.4758C49.2346 46.7278 49.7405 46.222 49.7405 45.4631C49.7405 44.7043 49.2346 44.1984 48.4758 44.1984Z" fill="white" style="fill:white;fill-opacity:1;"/>
<path d="M48.4758 49.5102H35.1963C34.4375 49.5102 33.9316 50.0161 33.9316 50.7749C33.9316 51.5337 34.4375 52.0396 35.1963 52.0396H48.4758C49.2346 52.0396 49.7405 51.5337 49.7405 50.7749C49.7405 50.0161 49.2346 49.5102 48.4758 49.5102Z" fill="white" style="fill:white;fill-opacity:1;"/>
</svg>
