<svg width="71" height="71" viewBox="0 0 71 71" fill="none" xmlns="http://www.w3.org/2000/svg">
<path d="M69.1673 63.0589V35.9013C69.1641 35.7208 69.1181 35.5437 69.0331 35.3844H69.0448L66.1888 29.6736C65.6008 28.483 64.3865 27.7308 63.0586 27.7346H55.1673V26.5679C55.1673 26.2585 55.0443 25.9618 54.8255 25.7431L48.5091 19.4268C48.0893 19.0113 47.5699 18.7104 47.0006 18.5529V10.6838L49.334 10.0573V12.8829V12.8911C49.3327 14.0891 49.9314 15.2082 50.9288 15.8719C51.2756 16.1033 51.7195 16.132 52.0932 15.9473C52.4669 15.7627 52.7137 15.3927 52.7407 14.9767C52.7676 14.5607 52.5706 14.1619 52.2238 13.9306C51.8757 13.6993 51.6668 13.309 51.6673 12.8911V12.8829V9.3281C52.484 8.85641 52.9364 7.9395 52.8138 7.00442C52.6913 6.06933 52.0179 5.29995 51.1073 5.0546L35.9337 0.980596C35.5408 0.875609 35.1272 0.875609 34.7343 0.980596L19.5606 5.0546C18.5402 5.33318 17.8324 6.26015 17.8324 7.31793C17.8324 8.37571 18.5402 9.30267 19.5606 9.58126L23.6673 10.6838V18.4013H23.5938C22.5566 18.4017 21.5733 18.8635 20.9105 19.6613L15.7772 25.8213C15.6003 26.03 15.5024 26.2943 15.5007 26.5679V27.7346H7.60932C6.2825 27.73 5.0685 28.4802 4.47915 29.6689L1.62315 35.3798H1.63482C1.54913 35.5404 1.50313 35.7192 1.50065 35.9013V63.0589C0.781108 63.4724 0.336487 64.2381 0.333984 65.0679V67.4013C0.333984 68.6899 1.37865 69.7346 2.66732 69.7346H18.1583C18.5718 70.4541 19.3374 70.8988 20.1673 70.9013H50.5006C51.3305 70.8988 52.0962 70.4541 52.5097 69.7346H68.0006C69.2893 69.7346 70.334 68.6899 70.334 67.4013V65.0679C70.3315 64.2381 69.8869 63.4724 69.1673 63.0589ZM51.6673 62.7346H50.5006V37.0679H66.834V62.7346H51.6673ZM38.834 62.7346H31.834V49.9013H38.834V62.7346ZM40.0006 47.5679H30.6673C30.023 47.5679 29.5007 48.0903 29.5007 48.7346V62.7346H22.5007V37.0679H48.1673V62.7346H41.1673V48.7346C41.1673 48.0903 40.645 47.5679 40.0006 47.5679ZM52.834 27.7346V30.0679H17.834V27.7346H52.834ZM50.5006 32.4013V34.7346H20.1673V32.4013H50.5006ZM63.0586 30.0679C63.5009 30.0665 63.9054 30.3168 64.1017 30.7131L66.113 34.7346H52.834V32.4013C54.1226 32.4013 55.1673 31.3566 55.1673 30.0679H63.0586ZM35.334 3.2346L50.517 7.31793H50.5018L35.3398 11.4013L20.1673 7.3086L35.334 3.2346ZM26.0007 11.3103L34.7343 13.6553C35.1271 13.761 35.5409 13.761 35.9337 13.6553L44.6673 11.3103V18.4013H26.0007V11.3103ZM22.6978 21.1546C22.9194 20.8886 23.2476 20.7347 23.5938 20.7346H46.0335C46.3433 20.7344 46.6405 20.8573 46.8595 21.0764L51.1843 25.4013H19.1581L22.6978 21.1546ZM6.56632 30.7131C6.76252 30.3168 7.16707 30.0665 7.60932 30.0679H15.5007C15.5007 31.3566 16.5453 32.4013 17.834 32.4013V34.7346H4.55498L6.56632 30.7131ZM2.66732 65.0679H17.834V67.4013H2.66732V65.0679ZM19.0007 62.7346H3.83398V37.0679H20.1673V62.7346H19.0007ZM20.1673 68.5679V65.0679H50.5006V68.5679H20.1673ZM68.0006 67.4013H52.834V65.0679H68.0006V67.4013Z" fill="black" style="fill:black;fill-opacity:1;"/>
<path d="M31.8346 39.4012C31.1903 39.4012 30.668 39.9236 30.668 40.5679V42.9012C30.668 43.5456 31.1903 44.0679 31.8346 44.0679C32.479 44.0679 33.0013 43.5456 33.0013 42.9012V40.5679C33.0013 39.9236 32.479 39.4012 31.8346 39.4012Z" fill="black" style="fill:black;fill-opacity:1;"/>
<path d="M15.5007 40.5679C14.8563 40.5679 14.334 41.0902 14.334 41.7345V44.0679C14.334 44.7122 14.8563 45.2345 15.5007 45.2345C16.145 45.2345 16.6673 44.7122 16.6673 44.0679V41.7345C16.6673 41.0902 16.145 40.5679 15.5007 40.5679Z" fill="black" style="fill:black;fill-opacity:1;"/>
<path d="M8.50065 40.5679C7.85632 40.5679 7.33398 41.0902 7.33398 41.7345V44.0679C7.33398 44.7122 7.85632 45.2345 8.50065 45.2345C9.14498 45.2345 9.66732 44.7122 9.66732 44.0679V41.7345C9.66732 41.0902 9.14498 40.5679 8.50065 40.5679Z" fill="black" style="fill:black;fill-opacity:1;"/>
<path d="M15.5007 47.5679C14.8563 47.5679 14.334 48.0902 14.334 48.7345V51.0679C14.334 51.7122 14.8563 52.2345 15.5007 52.2345C16.145 52.2345 16.6673 51.7122 16.6673 51.0679V48.7345C16.6673 48.0902 16.145 47.5679 15.5007 47.5679Z" fill="black" style="fill:black;fill-opacity:1;"/>
<path d="M8.50065 47.5679C7.85632 47.5679 7.33398 48.0902 7.33398 48.7345V51.0679C7.33398 51.7122 7.85632 52.2345 8.50065 52.2345C9.14498 52.2345 9.66732 51.7122 9.66732 51.0679V48.7345C9.66732 48.0902 9.14498 47.5679 8.50065 47.5679Z" fill="black" style="fill:black;fill-opacity:1;"/>
<path d="M15.5007 54.5679C14.8563 54.5679 14.334 55.0902 14.334 55.7345V58.0679C14.334 58.7122 14.8563 59.2345 15.5007 59.2345C16.145 59.2345 16.6673 58.7122 16.6673 58.0679V55.7345C16.6673 55.0902 16.145 54.5679 15.5007 54.5679Z" fill="black" style="fill:black;fill-opacity:1;"/>
<path d="M8.50065 54.5679C7.85632 54.5679 7.33398 55.0902 7.33398 55.7345V58.0679C7.33398 58.7122 7.85632 59.2345 8.50065 59.2345C9.14498 59.2345 9.66732 58.7122 9.66732 58.0679V55.7345C9.66732 55.0902 9.14498 54.5679 8.50065 54.5679Z" fill="black" style="fill:black;fill-opacity:1;"/>
<path d="M62.1667 40.5679C61.5223 40.5679 61 41.0902 61 41.7345V44.0679C61 44.7122 61.5223 45.2345 62.1667 45.2345C62.811 45.2345 63.3333 44.7122 63.3333 44.0679V41.7345C63.3333 41.0902 62.811 40.5679 62.1667 40.5679Z" fill="black" style="fill:black;fill-opacity:1;"/>
<path d="M55.1667 40.5679C54.5223 40.5679 54 41.0902 54 41.7345V44.0679C54 44.7122 54.5223 45.2345 55.1667 45.2345C55.811 45.2345 56.3333 44.7122 56.3333 44.0679V41.7345C56.3333 41.0902 55.811 40.5679 55.1667 40.5679Z" fill="black" style="fill:black;fill-opacity:1;"/>
<path d="M62.1667 47.5679C61.5223 47.5679 61 48.0902 61 48.7345V51.0679C61 51.7122 61.5223 52.2345 62.1667 52.2345C62.811 52.2345 63.3333 51.7122 63.3333 51.0679V48.7345C63.3333 48.0902 62.811 47.5679 62.1667 47.5679Z" fill="black" style="fill:black;fill-opacity:1;"/>
<path d="M55.1667 47.5679C54.5223 47.5679 54 48.0902 54 48.7345V51.0679C54 51.7122 54.5223 52.2345 55.1667 52.2345C55.811 52.2345 56.3333 51.7122 56.3333 51.0679V48.7345C56.3333 48.0902 55.811 47.5679 55.1667 47.5679Z" fill="black" style="fill:black;fill-opacity:1;"/>
<path d="M62.1667 54.5679C61.5223 54.5679 61 55.0902 61 55.7345V58.0679C61 58.7122 61.5223 59.2345 62.1667 59.2345C62.811 59.2345 63.3333 58.7122 63.3333 58.0679V55.7345C63.3333 55.0902 62.811 54.5679 62.1667 54.5679Z" fill="black" style="fill:black;fill-opacity:1;"/>
<path d="M55.1667 54.5679C54.5223 54.5679 54 55.0902 54 55.7345V58.0679C54 58.7122 54.5223 59.2345 55.1667 59.2345C55.811 59.2345 56.3333 58.7122 56.3333 58.0679V55.7345C56.3333 55.0902 55.811 54.5679 55.1667 54.5679Z" fill="black" style="fill:black;fill-opacity:1;"/>
<path d="M38.8346 39.4012C38.1903 39.4012 37.668 39.9236 37.668 40.5679V42.9012C37.668 43.5456 38.1903 44.0679 38.8346 44.0679C39.479 44.0679 40.0013 43.5456 40.0013 42.9012V40.5679C40.0013 39.9236 39.479 39.4012 38.8346 39.4012Z" fill="black" style="fill:black;fill-opacity:1;"/>
</svg>
