<svg class="img-fluid" id="outputsvg" xmlns="http://www.w3.org/2000/svg" style="transform: matrix(0.390001, 0, 0, 0.390001, 0, 0); transform-origin: 50% 50%; cursor: move; transition: transform 200ms ease-in-out;" width="1200" height="480" viewBox="0 0 12000 4800"><g id="l9opkPhubhYBCSgpbwboH0" fill="rgb(28,41,157)" style="transform: none;"><g style="transform: none;"><path id="p11YJItkjH" d="M1980 4171 c-14 -4 -26 -15 -28 -24 -3 -15 3 -16 42 -11 52 8 76 -6 76 -42 0 -18 -11 -29 -50 -49 -58 -30 -78 -62 -64 -103 13 -36 80 -61 118 -44 41 18 31 32 -24 32 -37 0 -52 4 -58 18 -14 27 -4 41 49 67 72 37 89 82 47 128 -25 27 -68 38 -108 28z"></path><path id="p1HXFBrEYT" d="M2350 4167 c-76 -26 -107 -144 -57 -218 32 -48 91 -68 142 -48 57 21 78 57 78 128 0 107 -72 168 -163 138z m99 -51 c24 -26 37 -81 27 -121 -17 -67 -105 -90 -145 -39 -35 45 -21 160 21 177 33 13 75 6 97 -17z"></path><path id="p16ThJTyr8" d="M5486 4163 c-18 -44 -76 -231 -76 -241 0 -7 6 -12 14 -12 15 0 25 21 57 130 13 41 26 78 29 83 3 4 14 -19 24 -50 30 -101 58 -163 72 -163 21 0 18 13 -30 145 -34 94 -48 121 -64 123 -11 2 -22 -4 -26 -15z"></path><path id="p1QNnvhSu" d="M5670 4045 c0 -125 2 -136 18 -133 15 3 17 17 17 133 0 116 -2 130 -17 133 -16 3 -18 -8 -18 -133z"></path><path id="p15uKMyNSm" d="M5775 4169 c-11 -18 3 -23 55 -20 45 2 51 0 62 -24 14 -31 8 -38 -59 -74 -44 -24 -48 -29 -51 -68 -2 -33 1 -44 20 -57 29 -21 118 -22 118 -2 0 11 -14 16 -46 18 -32 2 -50 9 -58 21 -12 20 2 34 74 80 28 18 36 30 38 59 5 55 -23 78 -92 78 -30 0 -58 -5 -61 -11z"></path><path id="plkXM6GJr" d="M6000 4045 c0 -113 2 -135 15 -135 13 0 15 22 15 135 0 113 -2 135 -15 135 -13 0 -15 -22 -15 -135z"></path><path id="p1EwwALHLM" d="M6135 4154 c-54 -58 -54 -152 0 -210 28 -30 39 -34 81 -34 81 0 124 47 124 135 0 90 -43 135 -128 135 -44 0 -57 -4 -77 -26z m148 -37 c27 -36 27 -109 0 -145 -29 -39 -89 -43 -123 -7 -33 35 -36 121 -5 155 41 45 94 44 128 -3z"></path><path id="pzBfos82P" d="M6405 4168 c-3 -8 -4 -68 -3 -134 3 -111 4 -119 23 -119 14 0 37 27 81 97 33 54 62 100 65 102 2 2 4 -41 4 -97 0 -84 3 -102 15 -102 13 0 15 21 15 130 0 113 -2 130 -17 133 -16 3 -79 -83 -129 -177 -10 -20 -19 -31 -20 -26 0 6 -1 52 -2 104 -1 65 -6 96 -14 98 -7 3 -15 -2 -18 -9z"></path><path id="pQgeoHmSJ" d="M9417 4173 c-2 -5 -21 -59 -42 -122 -20 -63 -39 -120 -42 -128 -3 -8 2 -13 16 -13 18 0 26 16 53 105 18 58 36 105 39 105 4 0 21 -45 38 -101 29 -89 50 -123 68 -106 4 5 -38 132 -84 255 -6 13 -39 17 -46 5z"></path><path id="pXm34Y2bb" d="M9560 4173 c0 -5 20 -64 44 -133 39 -110 46 -125 66 -125 20 0 28 15 66 125 24 68 44 128 44 132 0 4 -9 8 -19 8 -14 0 -21 -10 -28 -37 -8 -37 -10 -38 -60 -41 l-50 -3 -17 41 c-9 22 -23 40 -31 40 -8 0 -15 -3 -15 -7z m132 -158 c-8 -30 -18 -55 -22 -55 -4 0 -12 18 -19 41 -7 23 -15 47 -18 55 -4 11 5 14 35 14 l39 0 -15 -55z"></path><path id="pr5b9ufsa" d="M9830 4045 c0 -113 2 -135 15 -135 13 0 15 20 15 120 l0 120 60 0 c47 0 60 3 60 15 0 12 -15 15 -75 15 l-75 0 0 -135z"></path><path id="p1FH6pClGl" d="M10046 4164 c-23 -23 -30 -58 -31 -159 0 -77 2 -90 18 -93 15 -3 17 7 17 96 0 113 14 145 64 145 50 0 61 -23 64 -139 3 -91 6 -105 20 -102 20 4 27 80 17 167 -9 74 -37 101 -104 101 -32 0 -55 -6 -65 -16z"></path><path id="pw4hDeRxy" d="M10290 4045 l0 -135 75 0 c59 0 75 3 75 15 0 10 -15 15 -57 17 l-58 3 0 40 0 40 53 3 c70 4 65 26 -7 30 l-52 3 3 42 3 42 58 5 c85 7 75 24 -15 28 l-78 3 0 -136z"></path><path id="pdcZFbqew" d="M10493 4165 c-8 -23 -1 -26 36 -15 40 11 77 -1 86 -29 9 -28 1 -38 -55 -66 -55 -28 -75 -55 -66 -91 9 -35 47 -56 97 -52 59 4 65 28 6 28 -73 0 -91 54 -26 80 55 23 79 49 79 86 0 52 -28 74 -95 74 -41 0 -57 -4 -62 -15z"></path><path id="p4zQR0Uqc" d="M1289 4165 c-3 -2 -2 -37 2 -77 4 -40 8 -99 8 -131 1 -57 2 -58 27 -55 24 3 30 13 59 96 17 51 34 95 37 98 5 4 16 -25 69 -173 9 -25 47 -32 54 -10 2 6 6 68 10 135 6 116 5 124 -12 120 -16 -3 -19 -17 -23 -113 l-5 -110 -40 110 c-25 69 -45 110 -54 110 -9 0 -27 -38 -50 -105 l-36 -105 -9 108 c-8 98 -17 123 -37 102z"></path><path id="poiZgwl6D" d="M1635 4158 c-3 -8 -4 -68 -3 -134 2 -98 6 -119 18 -119 13 0 15 21 15 129 0 95 -3 130 -12 133 -7 3 -15 -2 -18 -9z"></path><path id="ptH9m2rn6" d="M1735 4160 c-11 -18 5 -29 35 -23 42 8 78 -4 85 -28 9 -26 -10 -48 -61 -69 -100 -43 -56 -166 52 -146 52 10 45 36 -10 36 -50 0 -76 21 -60 48 6 9 31 27 55 41 53 29 59 37 59 79 0 50 -29 72 -94 72 -30 0 -58 -4 -61 -10z"></path><path id="p12dLdFV0b" d="M2170 4035 c0 -128 1 -135 20 -135 19 0 20 7 20 135 0 128 -1 135 -20 135 -19 0 -20 -7 -20 -135z"></path><path id="pzD3esrUl" d="M2580 4037 c0 -74 3 -136 6 -140 14 -14 38 12 97 106 l62 100 3 -102 c2 -81 6 -101 17 -101 12 0 15 23 15 135 0 123 -2 135 -18 135 -10 0 -26 -15 -37 -32 -10 -18 -40 -66 -67 -107 l-48 -75 0 107 c0 88 -3 107 -15 107 -13 0 -15 -21 -15 -133z"></path><path id="pmKGzLnG2" d="M1705 3304 c-87 -13 -241 -60 -321 -98 -123 -58 -203 -114 -301 -209 -334 -324 -426 -817 -233 -1244 133 -293 393 -511 720 -603 211 -60 434 -49 656 32 l84 30 0 137 c0 76 -3 140 -6 143 -3 4 -40 -11 -82 -33 -483 -244 -1087 46 -1196 576 -78 377 109 763 449 931 261 128 580 111 824 -46 269 -173 416 -483 381 -803 -12 -105 -38 -192 -86 -289 -19 -37 -30 -69 -26 -72 5 -3 66 -6 137 -7 112 -1 130 1 141 16 19 26 65 169 81 250 19 104 17 304 -6 417 -85 418 -404 748 -821 848 -92 23 -314 36 -395 24z"></path><path id="p4puyJwd3" d="M9938 3132 c-36 -97 -121 -320 -187 -496 -67 -175 -121 -324 -121 -332 0 -12 61 -14 380 -14 209 0 380 4 380 8 0 14 -128 357 -286 767 -42 110 -79 210 -81 223 -3 12 -8 22 -12 22 -3 0 -36 -80 -73 -178z"></path><path id="p12THKoawc" d="M10184 3185 c6 -23 47 -133 214 -575 l119 -315 242 -3 c132 -1 241 0 241 3 0 7 -51 64 -415 465 -385 426 -408 450 -401 425z"></path><path id="p1CTSH2Wel" d="M9744 3103 c-44 -48 -127 -140 -184 -203 -57 -63 -149 -164 -204 -225 -56 -60 -121 -132 -146 -160 -25 -27 -78 -85 -117 -128 -40 -43 -73 -83 -73 -88 0 -5 101 -9 238 -9 l239 0 43 113 c23 61 78 207 122 322 44 116 100 263 125 327 24 65 43 123 41 128 -2 6 -40 -29 -84 -77z"></path><path id="pKICunVLg" d="M1750 2780 c-222 -42 -387 -194 -462 -425 -19 -61 -16 -238 6 -305 66 -198 219 -346 411 -395 88 -22 225 -19 309 8 38 12 71 27 73 32 2 6 -40 53 -92 105 l-94 94 -64 1 c-90 2 -187 51 -239 120 -155 203 -28 492 225 512 95 8 162 -15 233 -80 72 -66 105 -135 109 -229 l3 -67 92 -91 c50 -49 95 -90 99 -90 11 0 39 66 51 120 13 60 13 177 -1 242 -6 29 -29 90 -50 136 -66 136 -184 241 -334 292 -64 22 -209 33 -275 20z"></path><path id="pk7ZoQpUj" d="M5835 2774 c-253 -53 -385 -106 -565 -228 -134 -90 -397 -371 -416 -444 -10 -38 3 -67 78 -163 246 -321 560 -506 940 -556 112 -14 145 -15 244 -4 181 20 360 74 503 154 166 91 347 249 472 410 62 80 69 93 69 135 0 39 -7 55 -57 121 -102 137 -245 274 -385 369 -62 43 -231 126 -304 151 -125 42 -258 61 -413 60 -80 -1 -155 -3 -166 -5z m437 -228 c235 -59 469 -217 637 -430 l31 -38 -31 -39 c-153 -194 -387 -353 -624 -425 -83 -25 -104 -28 -265 -28 -169 -1 -179 0 -290 32 -118 34 -233 86 -317 143 -114 78 -202 160 -321 301 -13 16 -8 25 51 95 66 78 166 168 262 235 136 96 293 154 490 182 76 11 283 -4 377 -28z"></path><path id="pCv1G8hZR" d="M5900 2451 c-103 -33 -166 -79 -217 -158 -44 -69 -63 -132 -63 -208 0 -167 93 -305 247 -366 79 -31 204 -32 283 -1 94 37 163 100 207 189 36 73 38 82 38 172 0 87 -3 102 -32 161 -36 76 -60 105 -126 154 -94 69 -228 92 -337 57z m44 -385 c70 -29 84 -130 25 -180 -41 -35 -69 -40 -112 -22 -116 48 -87 201 41 215 7 0 27 -5 46 -13z"></path><path id="pfhz8wm8b" d="M9002 2171 c2 -5 88 -122 193 -260 l189 -251 253 0 c139 0 253 2 253 5 0 3 -86 120 -191 260 l-191 255 -255 0 c-142 0 -253 -4 -251 -9z"></path><path id="pHtbzVXXi" d="M9662 2170 c6 -18 340 -460 348 -460 8 0 350 454 350 464 0 3 -158 6 -351 6 -230 0 -350 -3 -347 -10z"></path><path id="pwV5K6YiP" d="M10320 1926 c-105 -140 -190 -257 -190 -260 0 -3 112 -6 248 -6 245 0 249 0 269 23 20 21 351 460 367 485 6 9 -47 12 -249 12 l-255 0 -190 -254z"></path></g></g><g id="l2hjTGonZGbgD7VoD8hWQwG" fill="rgb(107,175,252)" style="transform: none;"><g style="transform: none;"><path id="pXQZYU7mC" d="M5958 3310 c-27 -16 -38 -76 -37 -200 1 -143 6 -160 50 -184 32 -17 40 -18 68 -6 17 7 36 20 41 30 5 9 10 83 11 164 2 133 0 150 -18 174 -22 29 -83 41 -115 22z"></path><path id="pI9PBFczV" d="M5389 3211 c-16 -16 -29 -39 -29 -50 0 -37 99 -285 121 -303 12 -10 34 -18 49 -18 37 0 90 45 90 75 0 13 -18 69 -41 126 -22 57 -45 117 -51 132 -14 35 -54 67 -85 67 -14 0 -37 -13 -54 -29z"></path><path id="pfcfi2XIa" d="M6530 3225 c-20 -10 -37 -43 -78 -152 -29 -76 -52 -148 -52 -161 0 -33 46 -72 85 -72 51 0 77 36 129 179 51 140 52 167 9 201 -30 23 -58 25 -93 5z"></path><path id="pXuRIx04O" d="M4853 2933 c-31 -6 -53 -41 -53 -83 0 -28 8 -43 33 -66 56 -53 184 -153 210 -165 52 -24 117 18 117 76 0 34 -40 77 -165 177 -71 57 -101 70 -142 61z"></path><path id="pJYXxr6MJ" d="M7114 2931 c-12 -3 -71 -46 -133 -96 -113 -91 -130 -116 -119 -172 5 -25 68 -58 99 -50 24 6 209 150 242 189 22 26 22 77 -1 104 -19 24 -56 35 -88 25z"></path><path id="p10Wiclvjy" d="M1795 2278 c-15 -14 -28 -38 -32 -61 l-6 -38 327 -327 326 -328 0 -137 0 -138 186 -185 c102 -101 190 -181 195 -178 5 3 9 79 9 169 0 90 3 170 6 179 5 14 30 16 169 16 167 0 195 3 195 24 0 6 -81 92 -180 191 l-180 180 -124 -3 c-77 -2 -132 0 -144 7 -12 6 -166 155 -343 331 -349 346 -349 345 -404 298z"></path><path id="paFsiu38C" d="M8833 1695 c-75 -65 -125 -116 -129 -131 -9 -33 12 -79 42 -93 50 -23 71 -14 181 81 60 50 116 100 125 112 43 52 3 136 -64 136 -27 0 -54 -18 -155 -105z"></path><path id="pD71dzIp6" d="M10975 1775 c-30 -29 -33 -83 -7 -113 18 -21 157 -142 206 -180 58 -44 136 -13 136 54 0 20 -4 43 -10 53 -8 17 -145 137 -214 189 -39 29 -81 28 -111 -3z"></path><path id="pRrvxHfGb" d="M4924 1452 c-124 -101 -135 -118 -120 -178 8 -30 60 -58 94 -49 26 6 145 98 220 169 50 48 56 88 17 130 -45 49 -76 39 -211 -72z"></path><path id="pMmqsPoaG" d="M6886 1527 c-31 -31 -35 -85 -8 -115 21 -24 176 -152 214 -176 51 -33 128 6 128 65 0 46 -8 56 -121 150 -128 106 -168 121 -213 76z"></path><path id="p24e3XLc1" d="M9421 1473 c-11 -10 -35 -56 -52 -103 -17 -47 -46 -128 -65 -180 -22 -62 -32 -104 -28 -122 13 -64 111 -78 149 -22 32 48 125 316 125 361 0 71 -76 109 -129 66z"></path><path id="ppi9ZRsdT" d="M9984 1480 c-12 -5 -31 -21 -43 -36 -22 -28 -22 -34 -19 -267 l3 -239 30 -24 c17 -13 38 -24 48 -24 26 0 74 27 81 45 3 9 6 126 6 259 0 239 0 243 -22 263 -29 26 -57 34 -84 23z"></path><path id="po4RwFs9V" d="M10485 1464 c-37 -40 -35 -57 28 -219 8 -22 28 -74 42 -115 35 -95 57 -120 105 -120 44 0 83 35 83 75 0 41 -115 354 -140 381 -31 34 -86 33 -118 -2z"></path><path id="pvpxrV9pV" d="M5484 1306 c-29 -21 -128 -287 -120 -321 9 -34 63 -67 96 -59 26 6 70 41 70 56 0 5 20 60 45 124 25 63 45 123 45 134 0 10 -12 32 -26 49 -29 35 -75 42 -110 17z"></path><path id="ppjmwcyU4" d="M6432 1302 c-35 -27 -38 -77 -10 -142 14 -30 35 -85 47 -122 28 -83 68 -123 115 -114 35 7 76 48 76 76 0 33 -107 290 -126 305 -26 20 -74 18 -102 -3z"></path><path id="p17xEF79fc" d="M5953 1226 l-28 -24 0 -162 c0 -160 0 -161 25 -180 35 -27 91 -26 118 3 21 22 22 33 22 181 0 153 -1 157 -25 181 -31 32 -75 32 -112 1z"></path></g></g></svg>