<svg width="69" height="87" viewBox="0 0 69 87" fill="none" xmlns="http://www.w3.org/2000/svg">
<path d="M21.3746 11.6438C21.3746 10.9014 21.9759 10.3017 22.7166 10.3017H47.5038C48.2462 10.3017 48.8459 10.9031 48.8459 11.6438C48.8459 12.3845 48.2445 12.9859 47.5038 12.9859H22.7166C21.9759 12.9859 21.3746 12.3845 21.3746 11.6438ZM9.27074 27.3892H47.5038C48.2462 27.3892 48.8459 26.7879 48.8459 26.0471C48.8459 25.3064 48.2445 24.705 47.5038 24.705H9.27074C8.52832 24.705 7.92867 25.3064 7.92867 26.0471C7.92867 26.7879 8.53 27.3892 9.27074 27.3892ZM9.27074 41.7959H47.5038C48.2462 41.7959 48.8459 41.1945 48.8459 40.4538C48.8459 39.7131 48.2445 39.1117 47.5038 39.1117H9.27074C8.52832 39.1117 7.92867 39.7131 7.92867 40.4538C7.92867 41.1945 8.53 41.7959 9.27074 41.7959ZM36.2633 53.5134H9.27074C8.52832 53.5134 7.92867 54.1147 7.92867 54.8554C7.92867 55.5962 8.53 56.1975 9.27074 56.1975H36.2633C37.0057 56.1975 37.6054 55.5962 37.6054 54.8554C37.6054 54.1147 37.0041 53.5134 36.2633 53.5134ZM36.2633 67.9217H9.27074C8.52832 67.9217 7.92867 68.5231 7.92867 69.2638C7.92867 70.0045 8.53 70.6059 9.27074 70.6059H36.2633C37.0057 70.6059 37.6054 70.0045 37.6054 69.2638C37.6054 68.5231 37.0041 67.9217 36.2633 67.9217ZM68.4932 59.5468V74.5935C68.4932 77.9276 66.8891 80.9712 63.9765 83.1649C61.425 85.0865 58.0959 86.1883 54.8423 86.1883C51.5888 86.1883 48.258 85.0865 45.7082 83.1649C44.7424 82.4376 43.9244 81.6162 43.2575 80.7209H5.73836C2.89969 80.7209 0.591797 78.4097 0.591797 75.5694V16.5518C0.591797 15.8329 0.731211 15.1527 0.999961 14.5245C1.02684 14.4506 1.05707 14.3817 1.0957 14.3145C1.34262 13.8039 1.67855 13.3336 2.10016 12.912L13.3171 1.695C13.7706 1.24149 14.2812 0.888755 14.8355 0.636802C14.8456 0.631763 14.8574 0.626724 14.8675 0.621685C15.5125 0.336138 16.2146 0.186646 16.9553 0.186646H51.0362C53.8748 0.186646 56.1827 2.49622 56.1827 5.33321V55.1292L67.5055 58.2518C68.0884 58.413 68.4932 58.9421 68.4932 59.5468ZM5.17566 13.6325H14.0377V4.77051L5.17566 13.6325ZM41.7979 78.0351C41.3998 76.9417 41.1915 75.786 41.1915 74.5935V59.5468C41.1915 58.9421 41.5946 58.413 42.1775 58.2518L53.5003 55.1292V5.33489C53.5003 3.9777 52.3967 2.87415 51.0378 2.87415H16.9553C16.8764 2.87415 16.7991 2.87751 16.7218 2.88422V14.978C16.7218 15.7187 16.1205 16.32 15.3798 16.32H3.28602C3.2793 16.3956 3.27594 16.4746 3.27594 16.5535V75.5694C3.27594 76.9299 4.37949 78.0351 5.73836 78.0351H41.7979ZM65.8073 60.5697L54.8423 57.5446L43.8773 60.5697V74.5935C43.8773 79.9214 49.5463 83.5025 54.8423 83.5025C60.1384 83.5025 65.8073 79.9231 65.8073 74.5935V60.5697ZM49.3733 67.8344C48.8492 67.3103 47.9993 67.3103 47.4752 67.8344C46.9512 68.3584 46.9512 69.2084 47.4752 69.7324L52.8603 75.1175C53.1223 75.3795 53.4667 75.5106 53.8093 75.5106C54.152 75.5106 54.4963 75.3795 54.7584 75.1175L62.2095 67.6664C62.7335 67.1423 62.7335 66.2924 62.2095 65.7684C61.6854 65.2443 60.8355 65.2443 60.3114 65.7684L53.8093 72.2704L49.3733 67.8344Z" fill="white" style="fill:white;fill-opacity:1;"/>
</svg>
