<svg width="331" height="331" viewBox="0 0 331 331" fill="none" xmlns="http://www.w3.org/2000/svg">
<mask id="mask0_792_160" style="mask-type:alpha" maskUnits="userSpaceOnUse" x="0" y="0" width="331" height="331">
<rect width="331" height="331" fill="#D9D9D9" style="fill:#D9D9D9;fill:color(display-p3 0.8510 0.8510 0.8510);fill-opacity:1;"/>
</mask>
<g mask="url(#mask0_792_160)">
<path d="M147.62 235.353C122.32 230.053 109.12 224.753 91.1203 212.553C77.7203 203.553 51.4203 175.453 49.5203 168.153C48.5203 164.353 49.8203 161.453 57.3203 151.853C81.9203 119.753 113.32 101.253 151.32 96.2527C162.52 94.8527 165.82 94.7527 175.72 95.8527C193.82 97.8527 211.72 103.253 226.02 111.253C242.62 120.353 260.72 136.153 273.22 152.253C279.42 160.253 280.12 161.553 280.12 165.753C280.12 169.653 279.42 171.253 274.42 177.853C264.22 191.553 249.92 205.253 235.92 214.753C229.72 219.053 212.82 227.353 205.52 229.853C193.02 234.053 179.72 235.953 164.22 235.853C156.22 235.753 148.72 235.553 147.62 235.353ZM191.32 212.553C214.82 206.653 238.22 190.853 255.02 169.553L258.12 165.753L255.02 161.853C239.72 142.453 216.32 126.553 192.62 119.353C184.32 116.853 182.22 116.553 166.12 116.553C149.22 116.453 148.22 116.553 137.12 119.753C125.32 123.153 113.82 128.353 105.42 134.053C94.0203 141.853 85.2203 150.053 73.3203 164.153C72.0203 165.753 72.5203 166.653 78.4203 173.653C85.0203 181.453 95.0203 190.453 104.62 197.153C118.22 206.753 133.92 212.553 153.62 215.353C161.22 216.453 181.92 214.953 191.32 212.553Z" fill="#1C299D" style="fill:#1C299D;fill:color(display-p3 0.1098 0.1608 0.6157);fill-opacity:1;"/>
<path d="M154.12 203.053C143.82 199.753 137.52 195.153 132.42 187.253C128.02 180.353 126.12 174.053 126.12 166.453C126.12 149.753 135.42 135.953 150.82 129.853C158.72 126.753 171.22 126.653 179.12 129.753C188.52 133.453 195.42 139.753 199.82 148.653C203.42 155.953 203.62 156.853 203.62 165.853C203.62 174.553 203.32 176.053 200.42 181.953C196.82 189.553 194.42 192.453 187.82 197.353C178.42 204.253 165.02 206.553 154.12 203.053ZM158.52 164.553C165.52 161.653 166.92 151.553 161.02 146.553C156.92 143.053 154.12 142.553 149.82 144.353C138.22 149.153 141.12 164.453 153.92 165.853C154.62 165.853 156.62 165.353 158.52 164.553Z" fill="#1C299D" style="fill:#1C299D;fill:color(display-p3 0.1098 0.1608 0.6157);fill-opacity:1;"/>
<path d="M159.92 288.953C157.22 287.353 156.12 281.353 156.22 268.953C156.32 254.653 156.82 252.953 161.22 250.553C164.42 248.853 165.22 248.753 168.02 249.953C169.72 250.653 171.62 251.953 172.12 252.953C172.62 253.853 173.12 261.253 173.22 269.353C173.42 282.653 173.22 284.353 171.42 286.753C169.22 289.653 163.12 290.853 159.92 288.953Z" fill="#6BAFFC" style="fill:#6BAFFC;fill:color(display-p3 0.4196 0.6863 0.9882);fill-opacity:1;"/>
<path d="M103.02 279.053C101.42 277.453 100.12 275.153 100.12 274.053C100.12 270.353 110.02 245.553 112.22 243.753C113.42 242.753 115.62 241.953 117.12 241.953C120.82 241.953 126.12 246.453 126.12 249.453C126.12 250.753 124.32 256.353 122.02 262.053C119.82 267.753 117.52 273.753 116.92 275.253C115.52 278.753 111.52 281.953 108.42 281.953C107.02 281.953 104.72 280.653 103.02 279.053Z" fill="#6BAFFC" style="fill:#6BAFFC;fill:color(display-p3 0.4196 0.6863 0.9882);fill-opacity:1;"/>
<path d="M217.12 280.453C215.12 279.453 213.42 276.153 209.32 265.253C206.42 257.653 204.12 250.453 204.12 249.153C204.12 245.853 208.72 241.953 212.62 241.953C217.72 241.953 220.32 245.553 225.52 259.853C230.62 273.853 230.72 276.553 226.42 279.953C223.42 282.253 220.62 282.453 217.12 280.453Z" fill="#6BAFFC" style="fill:#6BAFFC;fill:color(display-p3 0.4196 0.6863 0.9882);fill-opacity:1;"/>
<path d="M49.4201 251.253C46.3201 250.653 44.1201 247.153 44.1201 242.953C44.1201 240.153 44.9201 238.653 47.4201 236.353C53.0201 231.053 65.8201 221.053 68.4201 219.853C73.6201 217.453 80.1201 221.653 80.1201 227.453C80.1201 230.853 76.1201 235.153 63.6201 245.153C56.5201 250.853 53.5201 252.153 49.4201 251.253Z" fill="#6BAFFC" style="fill:#6BAFFC;fill:color(display-p3 0.4196 0.6863 0.9882);fill-opacity:1;"/>
<path d="M275.52 251.053C274.32 250.753 268.42 246.453 262.22 241.453C250.92 232.353 249.22 229.853 250.32 224.253C250.82 221.753 257.12 218.453 260.22 219.253C262.62 219.853 281.12 234.253 284.42 238.153C286.62 240.753 286.62 245.853 284.32 248.553C282.42 250.953 278.72 252.053 275.52 251.053Z" fill="#6BAFFC" style="fill:#6BAFFC;fill:color(display-p3 0.4196 0.6863 0.9882);fill-opacity:1;"/>
<path d="M56.5205 103.153C44.1205 93.0526 43.0205 91.3526 44.5205 85.3526C45.3205 82.3526 50.5205 79.5526 53.9205 80.4526C56.5205 81.0526 68.4206 90.2526 75.9206 97.3526C80.9206 102.153 81.5206 106.153 77.6206 110.353C73.1206 115.253 70.0206 114.253 56.5205 103.153Z" fill="#6BAFFC" style="fill:#6BAFFC;fill:color(display-p3 0.4196 0.6863 0.9882);fill-opacity:1;"/>
<path d="M252.72 110.653C249.62 107.553 249.22 102.153 251.92 99.1528C254.02 96.7528 269.52 83.9528 273.32 81.5528C278.42 78.2528 286.12 82.1528 286.12 88.0528C286.12 92.6528 285.32 93.6528 274.02 103.053C261.22 113.653 257.22 115.153 252.72 110.653Z" fill="#6BAFFC" style="fill:#6BAFFC;fill:color(display-p3 0.4196 0.6863 0.9882);fill-opacity:1;"/>
<path d="M112.52 88.5527C109.62 86.4527 99.7204 59.8527 100.52 56.4527C101.42 53.0527 106.82 49.7527 110.12 50.5527C112.72 51.1527 117.12 54.6527 117.12 56.1527C117.12 56.6527 119.12 62.1527 121.62 68.5527C124.12 74.8527 126.12 80.8527 126.12 81.9527C126.12 82.9527 124.92 85.1527 123.52 86.8527C120.62 90.3527 116.02 91.0527 112.52 88.5527Z" fill="#6BAFFC" style="fill:#6BAFFC;fill:color(display-p3 0.4196 0.6863 0.9882);fill-opacity:1;"/>
<path d="M207.32 88.1527C203.82 85.4527 203.52 80.4527 206.32 73.9527C207.72 70.9527 209.82 65.4527 211.02 61.7527C213.82 53.4527 217.82 49.4527 222.52 50.3527C226.02 51.0527 230.12 55.1527 230.12 57.9527C230.12 61.2527 219.42 86.9527 217.52 88.4527C214.92 90.4527 210.12 90.2527 207.32 88.1527Z" fill="#6BAFFC" style="fill:#6BAFFC;fill:color(display-p3 0.4196 0.6863 0.9882);fill-opacity:1;"/>
<path d="M159.42 80.5527L156.62 78.1527V61.9527C156.62 45.9527 156.62 45.8527 159.12 43.9527C162.62 41.2527 168.22 41.3527 170.92 44.2527C173.02 46.4527 173.12 47.5527 173.12 62.3527C173.12 77.6527 173.02 78.0527 170.62 80.4527C167.52 83.6527 163.12 83.6527 159.42 80.5527Z" fill="#6BAFFC" style="fill:#6BAFFC;fill:color(display-p3 0.4196 0.6863 0.9882);fill-opacity:1;"/>
</g>
</svg>
